<svg width="18" height="18" viewBox="0 0 18 18" fill="none" xmlns="http://www.w3.org/2000/svg">
  <g clip-path="url(#clip0_1089_11582)">
    <path d="M16.0943 1.91333C13.5373 -0.637775 9.37727 -0.637775 6.82617 1.91333C5.5656 3.17389 4.92932 4.83074 4.9113 6.48729L0.175211 11.2234C0.0311462 11.3674 -0.0288809 11.5775 0.013138 11.7756C0.055157 11.9737 0.199222 12.1418 0.391318 12.2078L4.341 13.6605L5.79366 17.6102C5.86569 17.8022 6.02777 17.9463 6.22585 17.9883C6.26787 18.0003 6.30989 18.0003 6.35191 18.0003C6.50798 18.0003 6.66405 17.9403 6.77811 17.8263L11.5142 13.0902C13.1709 13.0722 14.8217 12.4359 16.0822 11.1753C18.6393 8.61825 18.6393 4.46419 16.0822 1.90713L16.0943 1.91333ZM1.68785 11.4097L5.07934 8.01822C5.30143 8.99667 5.74565 9.92708 6.41795 10.7374L4.65315 12.5022L1.68785 11.4097ZM6.59797 16.3198L5.50548 13.3544L7.27028 11.5896C8.08065 12.2619 9.01707 12.7061 9.98945 12.9282L6.59797 16.3198ZM7.67247 10.3352C5.58352 8.24623 5.58352 4.85475 7.67247 2.76581C8.71694 1.72134 10.0855 1.19911 11.4602 1.19911C12.835 1.19911 14.2034 1.72136 15.242 2.76581C17.331 4.85475 17.331 8.24623 15.242 10.3352C13.159 12.4182 9.7616 12.4241 7.67266 10.3352H7.67247Z" fill="#231F20" />
    <path d="M14.0879 6.18763L14.4241 5.19118C14.5802 4.72898 14.4661 4.23075 14.1179 3.8886C13.7758 3.54646 13.2776 3.4264 12.8154 3.58245L11.8189 3.9186L10.9785 3.28833C10.5884 3.0002 10.0781 2.95218 9.64594 3.17428C9.21374 3.39638 8.94363 3.83458 8.94962 4.32081L8.96163 5.37129L8.10323 5.97755C7.70705 6.25969 7.50896 6.73389 7.58099 7.21411C7.65902 7.69433 7.99516 8.08449 8.45738 8.22856L9.45984 8.5407L9.77198 9.54316C9.91605 10.0054 10.3062 10.3415 10.7864 10.4196C10.8525 10.4316 10.9185 10.4376 10.9905 10.4376C11.3987 10.4376 11.7829 10.2395 12.023 9.90333L12.6293 9.04494L13.6797 9.05694C14.154 9.05694 14.6042 8.79881 14.8263 8.36662C15.0484 7.93442 15.0003 7.41819 14.7122 7.02801L14.0819 6.18763H14.0879ZM13.7638 7.82036C13.7458 7.85638 13.7158 7.86238 13.7038 7.85638L12.3352 7.83837C12.1431 7.85038 11.951 7.92841 11.8369 8.09049L11.0446 9.20699C11.0446 9.20699 11.0145 9.24301 10.9785 9.237C10.9365 9.231 10.9305 9.20099 10.9245 9.18898L10.5163 7.88039C10.4563 7.69431 10.3122 7.54424 10.1201 7.48421L8.81155 7.07603C8.81155 7.07603 8.76953 7.06402 8.76353 7.022C8.75753 6.97999 8.78154 6.96198 8.79354 6.95597L9.91005 6.16362C10.0721 6.04957 10.1682 5.86348 10.1622 5.66538L10.1442 4.29677C10.1442 4.29677 10.1442 4.25475 10.1802 4.23674C10.1922 4.23074 10.2042 4.23074 10.2162 4.23074C10.2342 4.23074 10.2462 4.24274 10.2582 4.24274L11.3567 5.05911C11.5128 5.17916 11.7229 5.20918 11.909 5.14915L13.2055 4.71096C13.2055 4.71096 13.2476 4.69896 13.2776 4.72897C13.3076 4.75898 13.3016 4.789 13.2956 4.801L12.8574 6.09759C12.7914 6.28367 12.8274 6.49377 12.9474 6.64984L13.7638 7.74834C13.7638 7.74834 13.7878 7.78436 13.7698 7.82037L13.7638 7.82036Z" fill="#231F20" />
  </g>
  <defs>
    <clipPath id="clip0_1089_11582">
      <rect width="18" height="18" fill="white" />
    </clipPath>
  </defs>
</svg>
