<svg width="14" height="14" viewBox="0 0 14 14" fill="none" xmlns="http://www.w3.org/2000/svg">
  <path fill-rule="evenodd" clip-rule="evenodd" d="M0.195312 2.91678C0.195312 2.55563 0.338683 2.20945 0.594118 1.95447C0.8491 1.69903 1.19528 1.55566 1.55642 1.55566C3.1276 1.55566 6.3371 1.55566 7.90828 1.55566C8.26942 1.55566 8.6156 1.69903 8.87058 1.95447C9.12602 2.20945 9.26939 2.55563 9.26939 2.91678V4.27789H11.9916C12.1731 4.27789 12.3373 4.38587 12.4086 4.55283L13.7697 7.72876C13.7937 7.78547 13.8064 7.84627 13.8064 7.90752V11.0834C13.8064 11.3339 13.6032 11.5371 13.3527 11.5371H11.914C11.7271 12.0657 11.2226 12.4446 10.6305 12.4446C10.0384 12.4446 9.5339 12.0657 9.34697 11.5371H4.65477C4.46784 12.0657 3.96332 12.4446 3.37124 12.4446C2.77916 12.4446 2.27464 12.0657 2.08771 11.5371H0.649016C0.398572 11.5371 0.195312 11.3339 0.195312 11.0834V2.91678ZM3.37124 10.6297C3.62168 10.6297 3.82494 10.833 3.82494 11.0834C3.82494 11.3339 3.62168 11.5371 3.37124 11.5371C3.12079 11.5371 2.91754 11.3339 2.91754 11.0834C2.91754 10.833 3.12079 10.6297 3.37124 10.6297ZM10.6305 10.6297C10.8809 10.6297 11.0842 10.833 11.0842 11.0834C11.0842 11.3339 10.8809 11.5371 10.6305 11.5371C10.3801 11.5371 10.1768 11.3339 10.1768 11.0834C10.1768 10.833 10.3801 10.6297 10.6305 10.6297ZM9.26939 5.18529V7.90752C9.26939 8.15796 9.06613 8.36122 8.81568 8.36122H5.87568H1.10272V10.6297H2.08771C2.27464 10.1012 2.77916 9.72233 3.37124 9.72233C3.96332 9.72233 4.46784 10.1012 4.65477 10.6297H9.34697C9.5339 10.1012 10.0384 9.72233 10.6305 9.72233C11.2226 9.72233 11.7271 10.1012 11.914 10.6297H12.899V8.36122H10.6305C10.3801 8.36122 10.1768 8.15796 10.1768 7.90752V5.18529H9.26939ZM8.36198 2.91678V7.45381H1.10272V2.91678C1.10272 2.79654 1.15036 2.68085 1.23566 2.59601C1.3205 2.51071 1.43619 2.46307 1.55642 2.46307H7.90828C8.02851 2.46307 8.1442 2.51071 8.22904 2.59601C8.31434 2.68085 8.36198 2.79654 8.36198 2.91678ZM11.6926 5.18529H11.0842V7.45381H12.6645L11.6926 5.18529Z" fill="#231F20" />
</svg>
