<svg width="32" height="32" viewBox="0 0 32 32" fill="none" xmlns="http://www.w3.org/2000/svg">
  <rect width="32" height="32" rx="16" fill="white" />
  <g clip-path="url(#clip0_809_7950)">
    <path d="M17.1572 13.7667H14.3601L14.4999 13.6333C14.7797 13.3667 14.7797 12.9667 14.4999 12.7C14.2202 12.4333 13.8007 12.4333 13.521 12.7L12.1923 13.9667C12.1224 14.0333 12.0524 14.1 12.0524 14.1667C11.9825 14.3 11.9825 14.5 12.0524 14.7C12.1224 14.7667 12.1224 14.8333 12.1923 14.9L13.521 16.1667C13.6608 16.3 13.8706 16.3667 14.0105 16.3667C14.1503 16.3667 14.3601 16.3 14.5 16.1667C14.7797 15.9 14.7797 15.5 14.5 15.2333L14.3601 15.1H17.1572C18.0663 15.1 18.7656 15.7667 18.7656 16.6333C18.7656 17.5 18.0663 18.1667 17.1572 18.1667H13.8007C13.3811 18.1667 13.1014 18.4333 13.1014 18.8333C13.1014 19.2333 13.3811 19.5 13.8007 19.5H17.1572C18.8355 19.5 20.1642 18.2333 20.1642 16.6333C20.2341 15.0334 18.8355 13.7667 17.1572 13.7667Z" fill="#231F20" />
    <circle cx="16" cy="16" r="8.4" stroke="#231F20" stroke-width="1.2" />
  </g>
  <defs>
    <clipPath id="clip0_809_7950">
      <rect width="18" height="18" fill="white" transform="translate(7 7)" />
    </clipPath>
  </defs>
</svg>
