<svg width="32" height="32" viewBox="0 0 32 32" fill="none" xmlns="http://www.w3.org/2000/svg">
  <rect width="32" height="32" rx="16" fill="white" />
  <path fill-rule="evenodd" clip-rule="evenodd" d="M7.25 10.75C7.25 10.2857 7.43433 9.84058 7.76275 9.51275C8.09058 9.18433 8.53567 9 9 9C11.0201 9 15.1466 9 17.1667 9C17.631 9 18.0761 9.18433 18.4039 9.51275C18.7323 9.84058 18.9167 10.2857 18.9167 10.75V12.5H22.4167C22.65 12.5 22.8612 12.6388 22.9528 12.8535L24.7027 16.9368C24.7337 17.0098 24.75 17.0879 24.75 17.1667V21.25C24.75 21.572 24.4887 21.8333 24.1667 21.8333H22.3169C22.0766 22.5129 21.4279 23 20.6667 23C19.9054 23 19.2567 22.5129 19.0164 21.8333H12.9836C12.7432 22.5129 12.0946 23 11.3333 23C10.5721 23 9.92342 22.5129 9.68308 21.8333H7.83333C7.51133 21.8333 7.25 21.572 7.25 21.25V10.75ZM11.3333 20.6667C11.6553 20.6667 11.9167 20.928 11.9167 21.25C11.9167 21.572 11.6553 21.8333 11.3333 21.8333C11.0113 21.8333 10.75 21.572 10.75 21.25C10.75 20.928 11.0113 20.6667 11.3333 20.6667ZM20.6667 20.6667C20.9887 20.6667 21.25 20.928 21.25 21.25C21.25 21.572 20.9887 21.8333 20.6667 21.8333C20.3447 21.8333 20.0833 21.572 20.0833 21.25C20.0833 20.928 20.3447 20.6667 20.6667 20.6667ZM18.9167 13.6667V17.1667C18.9167 17.4887 18.6553 17.75 18.3333 17.75H14.5533H8.41667V20.6667H9.68308C9.92342 19.9871 10.5721 19.5 11.3333 19.5C12.0946 19.5 12.7432 19.9871 12.9836 20.6667H19.0164C19.2567 19.9871 19.9054 19.5 20.6667 19.5C21.4279 19.5 22.0766 19.9871 22.3169 20.6667H23.5833V17.75H20.6667C20.3447 17.75 20.0833 17.4887 20.0833 17.1667V13.6667H18.9167ZM17.75 10.75V16.5833H8.41667V10.75C8.41667 10.5954 8.47792 10.4467 8.58758 10.3376C8.69667 10.2279 8.84542 10.1667 9 10.1667H17.1667C17.3212 10.1667 17.47 10.2279 17.5791 10.3376C17.6888 10.4467 17.75 10.5954 17.75 10.75ZM22.0322 13.6667H21.25V16.5833H23.2817L22.0322 13.6667Z" fill="#231F20" />
</svg>
