<svg width="14" height="14" viewBox="0 0 14 14" fill="none" xmlns="http://www.w3.org/2000/svg">
  <path d="M3.36977 1.55566C2.9525 1.55566 2.57352 1.8023 2.40399 2.18348L1.78766 3.56981C1.63453 3.91545 1.55469 4.28896 1.55469 4.66685V11.6669C1.55469 12.0935 1.90578 12.4446 2.33235 12.4446H11.6659C12.0925 12.4446 12.4436 12.0935 12.4436 11.6669L12.4441 4.66685C12.4441 4.28896 12.3648 3.91489 12.2112 3.56981L11.5954 2.18403C11.4259 1.80285 11.0463 1.55566 10.6291 1.55566H3.36977ZM3.36977 2.0741L6.74015 2.07465V4.14834H2.13818C2.16881 4.02256 2.20873 3.89952 2.26178 3.78029L2.87756 2.39451C2.96451 2.19928 3.15649 2.0741 3.36977 2.0741ZM7.25857 2.0741H10.629C10.8422 2.0741 11.0342 2.19879 11.1211 2.39403L11.7375 3.77982C11.7905 3.89849 11.8299 4.02209 11.8605 4.14786L7.25855 4.14841L7.25857 2.0741ZM2.07364 4.66692H11.9251V11.667C11.9251 11.813 11.8119 11.9262 11.6659 11.9262H2.33284C2.18682 11.9262 2.07361 11.813 2.07361 11.667L2.07364 4.66692Z" fill="#231F20" stroke="#231F20" stroke-width="0.6" />
  <mask id="path-2-inside-1_817_7726" fill="white">
    <rect x="3.10938" y="7.77783" width="4.66667" height="3.11111" rx="1" />
  </mask>
  <rect x="3.10938" y="7.77783" width="4.66667" height="3.11111" rx="1" stroke="#231F20" stroke-width="2.4" mask="url(#path-2-inside-1_817_7726)" />
</svg>
