<svg width="14" height="14" viewBox="0 0 14 14" fill="none" xmlns="http://www.w3.org/2000/svg">
  <g clip-path="url(#clip0_1063_11399)">
    <path d="M8.15719 4.76665H5.36008L5.49994 4.63332C5.77965 4.36666 5.77965 3.96666 5.49994 3.7C5.22023 3.43333 4.80066 3.43333 4.52095 3.7L3.1923 4.96667C3.12237 5.03334 3.05245 5.1 3.05245 5.16667C2.98252 5.3 2.98252 5.5 3.05245 5.7C3.12237 5.76666 3.12237 5.83333 3.1923 5.89999L4.52095 7.16666C4.66081 7.3 4.87059 7.36666 5.01047 7.36666C5.15035 7.36666 5.36011 7.3 5.49998 7.16666C5.7797 6.9 5.7797 6.50001 5.49998 6.23334L5.36013 6.10001H8.15724C9.06628 6.10001 9.7656 6.76667 9.7656 7.63335C9.7656 8.50003 9.06632 9.16668 8.15724 9.16668H4.80071C4.38114 9.16668 4.10143 9.43335 4.10143 9.83334C4.10143 10.2333 4.38114 10.5 4.80071 10.5H8.15724C9.8355 10.5 11.1642 9.23333 11.1642 7.63335C11.2341 6.03337 9.83546 4.76665 8.15719 4.76665Z" fill="#8E8E8E" />
    <circle cx="7" cy="7" r="6.4" stroke="#8E8E8E" stroke-width="1.2" />
  </g>
  <defs>
    <clipPath id="clip0_1063_11399">
      <rect width="14" height="14" fill="white" />
    </clipPath>
  </defs>
</svg>
