<svg width="18" height="18" viewBox="0 0 18 18" fill="none" xmlns="http://www.w3.org/2000/svg">
  <path d="M11.0311 1H6.96887C4.70686 1 3 4.6257 3 9.43459C3 14.2435 4.70605 17.8692 6.96887 17.8692H11.0311C13.2931 17.8692 15 14.2435 15 9.43459C14.9993 4.6257 13.2933 1 11.0311 1ZM4.12471 9.43459C4.12471 5.12687 5.62338 2.12471 6.96887 2.12471H8.99334C7.81943 3.55659 7.06244 6.23268 7.06244 9.43459C7.06244 12.6365 7.81951 15.3126 8.99334 16.7445H6.96887C5.62343 16.7445 4.12471 13.7421 4.12471 9.43459ZM11.0311 16.7445C9.68569 16.7445 8.18697 13.7421 8.18697 9.43459C8.18697 5.12705 9.68564 2.12471 11.0311 2.12471C12.3766 2.12471 13.8753 5.12705 13.8753 9.43459C13.8753 13.7421 12.3766 16.7445 11.0311 16.7445Z" fill="#231F20" />
  <path d="M5.83342 9.99678C6.14413 9.99678 6.39577 9.74513 6.39577 9.43442C6.39577 9.12372 6.14413 8.87207 5.83342 8.87207H5.12485C4.81415 8.87207 4.5625 9.12372 4.5625 9.43442C4.5625 9.74513 4.81415 9.99678 5.12485 9.99678H5.83342Z" fill="#231F20" />
  <path d="M6.66921 12.2113C6.66921 11.9006 6.41756 11.6489 6.10686 11.6489H5.39829C5.08758 11.6489 4.83594 11.9006 4.83594 12.2113C4.83594 12.522 5.08758 12.7736 5.39829 12.7736H6.10686C6.41756 12.7736 6.66921 12.522 6.66921 12.2113Z" fill="#231F20" />
  <path d="M6.86858 14.1753H6.16001C5.8493 14.1753 5.59766 14.4269 5.59766 14.7376C5.59766 15.0484 5.8493 15.3 6.16001 15.3H6.86858C7.17928 15.3 7.43093 15.0484 7.43093 14.7376C7.43093 14.4269 7.17928 14.1753 6.86858 14.1753Z" fill="#231F20" />
  <path d="M5.39829 7.22041H6.10686C6.41756 7.22041 6.66921 6.96876 6.66921 6.65806C6.66921 6.34735 6.41756 6.0957 6.10686 6.0957H5.39829C5.08758 6.0957 4.83594 6.34735 4.83594 6.65806C4.83594 6.96876 5.08758 7.22041 5.39829 7.22041Z" fill="#231F20" />
  <path d="M6.16001 4.69404H6.86858C7.17928 4.69404 7.43093 4.4424 7.43093 4.13169C7.43093 3.82098 7.17928 3.56934 6.86858 3.56934H6.16001C5.8493 3.56934 5.59766 3.82098 5.59766 4.13169C5.59766 4.4424 5.8493 4.69404 6.16001 4.69404Z" fill="#231F20" />
</svg>
