<svg width="32" height="32" viewBox="0 0 32 32" fill="none" xmlns="http://www.w3.org/2000/svg">
  <rect width="32" height="32" rx="16" fill="white" />
  <path d="M11.3336 9C10.7971 9 10.3099 9.31711 10.0919 9.8072L9.29952 11.5896C9.10265 12.034 9 12.5142 9 13.0001V22.0001C9 22.5486 9.45138 23 9.9998 23H21.9995C22.5479 23 22.9993 22.5486 22.9993 22.0001L23 13.0001C23 12.5142 22.8981 12.0333 22.7005 11.5896L21.9088 9.8079C21.6908 9.31781 21.2029 9 20.6664 9H11.3336ZM11.3336 9.66656L15.6667 9.66727V12.3334H9.75017C9.78954 12.1717 9.84087 12.0135 9.90907 11.8602L10.7007 10.0785C10.8125 9.8275 11.0594 9.66656 11.3336 9.66656ZM16.3332 9.66656H20.6663C20.9405 9.66656 21.1873 9.82687 21.2991 10.0779L22.0915 11.8596C22.1597 12.0122 22.2103 12.1711 22.2497 12.3328L16.3332 12.3335L16.3332 9.66656ZM9.66719 13.0002H22.3327V22.0002C22.3327 22.188 22.1871 22.3335 21.9994 22.3335H10.0004C9.8127 22.3335 9.66716 22.188 9.66716 22.0002L9.66719 13.0002Z" fill="#231F20" stroke="#231F20" stroke-width="0.6" />
  <mask id="path-3-inside-1_809_7863" fill="white">
    <rect x="11" y="17" width="6" height="4" rx="1" />
  </mask>
  <rect x="11" y="17" width="6" height="4" rx="1" stroke="#231F20" stroke-width="2.4" mask="url(#path-3-inside-1_809_7863)" />
</svg>
