<svg width="14" height="14" viewBox="0 0 14 14" fill="none" xmlns="http://www.w3.org/2000/svg">
  <g clip-path="url(#clip0_828_8699)">
    <path fill-rule="evenodd" clip-rule="evenodd" d="M13.97 3.27797C13.9851 3.32027 13.9966 3.36615 13.9966 3.41204L13.9852 3.41177L13.9859 10.5771C13.9859 10.7227 13.9056 10.8524 13.7794 10.9177L7.9598 13.9348C7.92108 13.962 7.88309 13.9771 7.8372 13.9885C7.82573 13.9921 7.81784 13.9921 7.80637 13.9921L7.80347 13.9928C7.78548 13.9968 7.77098 14 7.7526 14C7.74507 14 7.73647 13.998 7.72786 13.9961C7.71926 13.9941 7.71066 13.9921 7.70313 13.9921C7.69166 13.9885 7.68019 13.9885 7.66871 13.9885C7.66548 13.9876 7.66222 13.9866 7.65893 13.9856C7.62358 13.975 7.58549 13.9636 7.554 13.9426C7.55041 13.9426 7.54253 13.9348 7.54253 13.9348L5.82633 13.0461L6.04029 12.2972L7.36973 12.9869V6.66975L2.28779 4.04288V7.21267C2.28779 7.42274 2.11571 7.59481 1.90565 7.59481C1.69558 7.59481 1.52351 7.42274 1.52351 7.21267V3.48087C1.51921 3.45793 1.51562 3.43499 1.51562 3.41204C1.51562 3.26649 1.59593 3.13672 1.72211 3.07148L7.58044 0.0430179C7.69158 -0.0143393 7.82135 -0.0143393 7.93248 0.0430179L13.7908 3.07148C13.8252 3.08725 13.856 3.1102 13.8826 3.13672C13.8844 3.13852 13.8863 3.14138 13.8883 3.14425C13.8903 3.14712 13.8923 3.14999 13.894 3.15178C13.917 3.17831 13.9399 3.20914 13.955 3.24355C13.9622 3.25502 13.9665 3.26649 13.97 3.27797ZM12.7843 3.41277L7.75611 0.812334L7.7562 0.815913L6.72377 1.35149L11.7483 3.95193L12.7843 3.41277ZM10.9143 4.37637L5.88984 1.77593V1.77226L4.80795 2.33437L9.83244 4.93847L10.9143 4.37637ZM11.3659 5.0073L10.2073 5.6074V7.71447L11.3659 7.11438V5.0073ZM8.99484 5.37026L3.97402 2.76615L2.73134 3.40864L7.7595 6.00908L8.99484 5.37026ZM8.13824 6.6736V12.9908L8.13816 12.993L13.2315 10.3546V4.0416L12.1302 4.61159V7.34547C12.1302 7.49101 12.0499 7.62079 11.9237 7.68603L10.0002 8.68405C9.94715 8.71129 9.88549 8.72635 9.82455 8.72635C9.75572 8.72635 9.6869 8.70699 9.62595 8.66899C9.51124 8.60016 9.44241 8.47828 9.44241 8.34421V6.00036L8.13824 6.6736Z" fill="#231F20" />
    <circle cx="3.28646" cy="10.7918" r="2.70833" stroke="#231F20" />
    <path d="M1.78906 11.0055L2.64462 11.8611L4.78351 9.72217" stroke="#231F20" />
  </g>
  <defs>
    <clipPath id="clip0_828_8699">
      <rect width="14" height="14" fill="white" />
    </clipPath>
  </defs>
</svg>
