<svg width="14" height="14" viewBox="0 0 14 14" fill="none" xmlns="http://www.w3.org/2000/svg">
  <g clip-path="url(#clip0_852_7523)">
    <path d="M0.965944 5.41583C0.86095 5.41583 0.777344 5.33222 0.777344 5.22722V3.96145C0.777344 3.48702 1.16232 3.1001 1.63674 3.1001H3.67828C3.78328 3.1001 3.86688 3.18371 3.86688 3.2887C3.86688 3.3937 3.78328 3.4773 3.67828 3.4773H1.63674C1.37036 3.4773 1.15454 3.69507 1.15454 3.96145V5.22722C1.15454 5.33027 1.07094 5.41583 0.965944 5.41583Z" fill="#F73030" stroke="#F73030" stroke-width="0.6" />
    <path d="M11.2277 5.12612C11.1227 5.12612 11.0391 5.04251 11.0391 4.93751V3.96145C11.0391 3.69507 10.8214 3.4773 10.555 3.4773H9.95032C9.84533 3.4773 9.76172 3.3937 9.76172 3.2887C9.76172 3.18371 9.84533 3.1001 9.95032 3.1001H10.555C11.0294 3.1001 11.4163 3.48702 11.4163 3.96145V4.93751C11.4163 5.04251 11.3327 5.12612 11.2277 5.12612Z" fill="#F73030" stroke="#F73030" stroke-width="0.6" />
    <path d="M9.68349 5.12582C9.62905 5.12582 9.57655 5.10249 9.53961 5.05971C9.47156 4.97999 9.48322 4.86139 9.561 4.79333L10.3834 4.09725L8.01137 1.29544L7.2453 1.94485C7.16558 2.0129 7.04698 2.00318 6.97893 1.92346C6.91087 1.84374 6.9206 1.72514 7.00031 1.65709L7.91026 0.885177C7.98998 0.817124 8.10858 0.826846 8.17663 0.906565L10.7937 3.99615C10.8618 4.07587 10.8501 4.19447 10.7723 4.26252L9.80598 5.0811C9.76904 5.11221 9.72626 5.12582 9.68349 5.12582Z" fill="#F73030" stroke="#F73030" stroke-width="0.6" />
    <path d="M1.73218 5.126C1.67774 5.126 1.62524 5.10267 1.5883 5.05989C1.52025 4.98017 1.52997 4.86157 1.60969 4.79351L6.29747 0.823137C6.33635 0.790083 6.38496 0.774529 6.43551 0.778417C6.48607 0.782306 6.53079 0.805638 6.56384 0.844525L9.18091 3.93411C9.21396 3.973 9.22952 4.0216 9.22563 4.07216C9.22174 4.12271 9.19841 4.16743 9.15952 4.20048L8.1193 5.08128C8.03959 5.14739 7.92098 5.13766 7.85293 5.05989C7.78488 4.98017 7.79655 4.86157 7.87432 4.79351L8.77065 4.03521L6.39663 1.2334L1.85273 5.08128C1.81773 5.11239 1.77496 5.126 1.73218 5.126Z" fill="#F73030" stroke="#F73030" stroke-width="0.6" />
    <path d="M12.6963 10.4998H9.32484C8.90097 10.4998 8.50044 10.3346 8.20101 10.0351C7.89964 9.73376 7.73438 9.33516 7.73438 8.91129C7.73438 8.03439 8.44794 7.32275 9.32289 7.32275H12.6963C12.7119 7.32275 12.741 7.32275 12.776 7.33442C12.8752 7.36747 12.9277 7.47441 12.8946 7.57358C12.8655 7.66107 12.776 7.71357 12.6885 7.69996H9.32484C8.65599 7.69996 8.11352 8.24438 8.11352 8.91129C8.11352 9.23406 8.2399 9.53932 8.46933 9.76875C8.69682 9.99624 9.00208 10.1226 9.32678 10.1226H12.6944C12.7819 10.109 12.8713 10.1615 12.9005 10.249C12.9335 10.3482 12.8791 10.4551 12.7819 10.4882C12.743 10.4998 12.7138 10.4998 12.6963 10.4998Z" fill="#F73030" stroke="#F73030" stroke-width="0.6" />
    <path d="M12.1458 13.222H1.53758C1.11955 13.222 0.777344 12.8818 0.777344 12.4618V4.93714C0.777344 4.83214 0.86095 4.74854 0.965944 4.74854H12.1458C12.5639 4.74854 12.9061 5.0888 12.9061 5.50878V12.4618C12.9061 12.8818 12.5658 13.222 12.1458 13.222ZM1.15454 5.12574V12.4618C1.15454 12.6737 1.32564 12.8448 1.53758 12.8448H12.1458C12.3578 12.8448 12.5289 12.6737 12.5289 12.4618V5.50878C12.5289 5.29684 12.3578 5.12574 12.1458 5.12574H1.15454Z" fill="#F73030" stroke="#F73030" stroke-width="0.6" />
  </g>
  <defs>
    <clipPath id="clip0_852_7523">
      <rect width="14" height="14" fill="white" />
    </clipPath>
  </defs>
</svg>
