<svg width="32" height="32" viewBox="0 0 32 32" fill="none" xmlns="http://www.w3.org/2000/svg">
  <rect width="32" height="32" rx="16" fill="white" />
  <path d="M8.24249 13.9627C8.10749 13.9627 8 13.8552 8 13.7202V12.0928C8 11.4828 8.49497 10.9854 9.10493 10.9854H11.7298C11.8648 10.9854 11.9723 11.0928 11.9723 11.2278C11.9723 11.3628 11.8648 11.4703 11.7298 11.4703H9.10493C8.76245 11.4703 8.48497 11.7503 8.48497 12.0928V13.7202C8.48497 13.8527 8.37748 13.9627 8.24249 13.9627Z" fill="#231F20" stroke="#231F20" stroke-width="0.6" />
  <path d="M21.4357 13.5902C21.3007 13.5902 21.1932 13.4827 21.1932 13.3477V12.0928C21.1932 11.7503 20.9132 11.4703 20.5707 11.4703H19.7933C19.6583 11.4703 19.5508 11.3628 19.5508 11.2278C19.5508 11.0928 19.6583 10.9854 19.7933 10.9854H20.5707C21.1807 10.9854 21.6782 11.4828 21.6782 12.0928V13.3477C21.6782 13.4827 21.5707 13.5902 21.4357 13.5902Z" fill="#231F20" stroke="#231F20" stroke-width="0.6" />
  <path d="M19.4535 13.5906C19.3836 13.5906 19.3161 13.5606 19.2686 13.5056C19.1811 13.4031 19.1961 13.2506 19.2961 13.1631L20.3535 12.2682L17.3037 8.66584L16.3187 9.5008C16.2162 9.5883 16.0637 9.5758 15.9763 9.4733C15.8888 9.37081 15.9013 9.21831 16.0038 9.13082L17.1737 8.13836C17.2762 8.05087 17.4287 8.06337 17.5162 8.16586L20.881 12.1382C20.9685 12.2407 20.9535 12.3932 20.8535 12.4807L19.611 13.5331C19.5635 13.5731 19.5085 13.5906 19.4535 13.5906Z" fill="#231F20" stroke="#231F20" stroke-width="0.6" />
  <path d="M9.22765 13.5905C9.15765 13.5905 9.09016 13.5605 9.04266 13.5055C8.95516 13.403 8.96766 13.2505 9.07016 13.163L15.0973 8.05825C15.1473 8.01575 15.2098 7.99575 15.2748 8.00075C15.3398 8.00575 15.3973 8.03575 15.4398 8.08575L18.8046 12.0581C18.8471 12.1081 18.8671 12.1706 18.8621 12.2356C18.8571 12.3006 18.8271 12.3581 18.7771 12.4006L17.4397 13.533C17.3372 13.618 17.1847 13.6055 17.0972 13.5055C17.0097 13.403 17.0247 13.2505 17.1247 13.163L18.2771 12.1881L15.2248 8.58573L9.38264 13.533C9.33764 13.573 9.28265 13.5905 9.22765 13.5905Z" fill="#231F20" stroke="#231F20" stroke-width="0.6" />
  <path d="M23.3249 20.4994H18.9902C18.4452 20.4994 17.9303 20.2869 17.5453 19.9019C17.1578 19.5144 16.9453 19.0019 16.9453 18.457C16.9453 17.3295 17.8628 16.4146 18.9877 16.4146H23.3249C23.3449 16.4146 23.3824 16.4146 23.4274 16.4296C23.5549 16.472 23.6224 16.6095 23.5799 16.737C23.5424 16.8495 23.4274 16.917 23.3149 16.8995H18.9902C18.1302 16.8995 17.4328 17.5995 17.4328 18.457C17.4328 18.8719 17.5953 19.2644 17.8903 19.5594C18.1827 19.8519 18.5752 20.0144 18.9927 20.0144H23.3224C23.4349 19.9969 23.5499 20.0644 23.5874 20.1769C23.6299 20.3044 23.5599 20.4419 23.4349 20.4844C23.3849 20.4994 23.3474 20.4994 23.3249 20.4994Z" fill="#231F20" stroke="#231F20" stroke-width="0.6" />
  <path d="M22.6166 24H8.97744C8.43997 24 8 23.5625 8 23.0225V13.348C8 13.213 8.10749 13.1055 8.24249 13.1055H22.6166C23.1541 13.1055 23.5941 13.5429 23.5941 14.0829V23.0225C23.5941 23.5625 23.1566 24 22.6166 24ZM8.48497 13.5904V23.0225C8.48497 23.295 8.70496 23.515 8.97744 23.515H22.6166C22.8891 23.515 23.1091 23.295 23.1091 23.0225V14.0829C23.1091 13.8104 22.8891 13.5904 22.6166 13.5904H8.48497Z" fill="#231F20" stroke="#231F20" stroke-width="0.6" />
</svg>
