<svg width="47" height="71" viewBox="0 0 47 71" fill="none" xmlns="http://www.w3.org/2000/svg">
  <path fill-rule="evenodd" clip-rule="evenodd" d="M23.6781 46.74C23.5617 46.7764 23.437 46.7764 23.3206 46.74L4.13555 40.7447C3.88525 40.6665 3.71484 40.4347 3.71484 40.1725C3.71484 39.9102 3.88525 39.6785 4.13555 39.6003L23.3206 33.6049C23.437 33.5685 23.5617 33.5685 23.6781 33.6049L42.8631 39.6003C43.1135 39.6785 43.2839 39.9102 43.2839 40.1725C43.2839 40.4347 43.1135 40.6665 42.8631 40.7447L23.6781 46.74ZM40.6743 40.1725L23.4994 34.8053L6.32437 40.1725L23.4994 45.5397L40.6743 40.1725Z" fill="#8E8E8E" />
  <path fill-rule="evenodd" clip-rule="evenodd" d="M23.498 45.5684C23.1669 45.5684 22.8984 45.8368 22.8984 46.1679V70.1491C22.8984 70.3399 22.9892 70.5191 23.1428 70.6321C23.2965 70.7452 23.4947 70.7783 23.6767 70.7213L42.8617 64.726C43.1121 64.6478 43.2825 64.416 43.2825 64.1538V47.367C43.2825 47.0359 43.014 46.7674 42.6829 46.7674C42.3519 46.7674 42.0834 47.0359 42.0834 47.367V63.713L24.0975 69.3336V46.1679C24.0975 45.8368 23.829 45.5684 23.498 45.5684Z" fill="#8E8E8E" />
  <path fill-rule="evenodd" clip-rule="evenodd" d="M23.4994 45.5684C23.8304 45.5684 24.0989 45.8368 24.0989 46.1679V70.1491C24.0989 70.3399 24.0081 70.5191 23.8545 70.6321C23.7008 70.7452 23.5026 70.7783 23.3206 70.7213L4.13555 64.726C3.88525 64.6478 3.71484 64.416 3.71484 64.1538V47.367C3.71484 47.0359 3.98327 46.7674 4.31437 46.7674C4.64548 46.7674 4.9139 47.0359 4.9139 47.367V63.713L22.8998 69.3336V46.1679C22.8998 45.8368 23.1683 45.5684 23.4994 45.5684Z" fill="#8E8E8E" />
  <path fill-rule="evenodd" clip-rule="evenodd" d="M42.3746 39.6583C42.0907 39.8286 41.9986 40.1969 42.169 40.4807L45.374 45.8227L27.3665 51.45L24.0121 45.8592C23.8418 45.5753 23.4734 45.4832 23.1896 45.6536C22.9057 45.8239 22.8136 46.1922 22.984 46.476L26.5812 52.4713C26.7235 52.7088 27.0098 52.8178 27.274 52.7351L46.459 46.7398C46.6345 46.685 46.775 46.5528 46.8405 46.381C46.9058 46.2091 46.8888 46.0168 46.7942 45.8592L43.197 39.8639C43.0268 39.58 42.6584 39.4879 42.3746 39.6583Z" fill="#8E8E8E" />
  <path fill-rule="evenodd" clip-rule="evenodd" d="M4.62236 39.6583C4.90628 39.8286 4.99835 40.1969 4.828 40.4807L1.62286 45.8227L19.6303 51.45L22.9848 45.8592C23.1551 45.5753 23.5235 45.4832 23.8073 45.6536C24.0912 45.8239 24.1833 46.1922 24.0129 46.476L20.4157 52.4713C20.2734 52.7088 19.9871 52.8178 19.7229 52.7351L0.537888 46.7398C0.362429 46.685 0.221815 46.5528 0.156418 46.381C0.0910097 46.2091 0.108048 46.0168 0.202618 45.8592L3.7998 39.8639C3.97016 39.58 4.33843 39.4879 4.62236 39.6583Z" fill="#8E8E8E" />
  <path d="M23.7514 40.1814C23.088 35.9966 24.1284 27.0953 33.5976 24.9689C45.4342 22.3109 45.3843 3.63255 24.0785 8.41693" stroke="#56C9F3" stroke-width="2" stroke-linecap="round" stroke-dasharray="2 4" />
  <path opacity="0.5" d="M17.4408 4.56889C12.8277 5.70446 11.6018 9.51543 11.5655 11.279L20.146 9.82476C21.1664 7.59965 22.0539 3.43332 17.4408 4.56889Z" fill="#56C9F3" />
  <path opacity="0.5" d="M19.9838 14.899C15.3707 16.0345 12.5158 13.2281 11.665 11.6829L19.9401 8.98796C21.8768 10.4851 24.5969 13.7634 19.9838 14.899Z" fill="#56C9F3" />
  <path d="M12.207 11.4834L20.0238 9.5592" stroke="#56C9F3" stroke-width="2" stroke-linecap="round" />
</svg>
