<svg width="69" height="69" viewBox="0 0 69 69" fill="none" xmlns="http://www.w3.org/2000/svg">
  <circle cx="34.5" cy="34.5" r="34.5" fill="white" />
  <g clip-path="url(#clip0_852_8557)">
    <path opacity="0.41" fill-rule="evenodd" clip-rule="evenodd" d="M40.782 41.1214C40.6593 40.9781 40.5534 40.8424 40.4646 40.7252L40.4625 40.7224L40.4492 40.6934L40.782 41.1214Z" fill="#231F20" />
    <path opacity="0.41" d="M38.971 38.5781L38.9609 38.5867" stroke="#231F20" stroke-miterlimit="10" />
    <path opacity="0.41" d="M40.4609 40.7224C40.4027 40.645 40.3518 40.5752 40.3086 40.5146L40.3745 40.5992L40.4609 40.7224Z" fill="#231F20" />
    <path opacity="0.41" d="M40.4609 40.7222L40.463 40.725" stroke="#231F20" stroke-miterlimit="10" />
    <path d="M46.4283 21.8491C45.6304 21.8157 44.838 21.9993 44.1312 22.3813C43.184 22.8978 42.6889 23.6205 42.4428 23.9891C41.7208 25.0697 41.5567 26.1571 41.5117 26.7291V35.3333H45.3892C45.2667 35.2416 45.143 35.1428 45.0181 35.0371C44.3303 34.4383 43.7685 33.7017 43.367 32.8723V26.8684C43.3595 26.4687 43.3995 26.0695 43.4858 25.6796C43.8949 23.8419 45.0707 22.7674 45.6951 22.3261C45.746 22.2903 45.9195 22.1567 45.9917 22.1112C46.0509 22.0726 46.1081 22.0396 46.1715 21.9991C46.2196 21.9673 46.2673 21.9354 46.3179 21.9085L46.4283 21.8491Z" fill="#231F20" />
    <path d="M42.2253 23.9111C42.1299 23.9534 42.0426 24.0129 41.9674 24.0866C41.6538 24.3954 41.2614 24.8868 41.0719 25.577C41.0698 25.5838 41.068 25.5909 41.0663 25.5977C41.0112 25.8061 40.9837 26.0211 40.9844 26.2371V35.3345H41.351V26.3606C41.3501 26.1142 41.3808 25.8688 41.4423 25.6307V25.6264C41.5547 25.1982 41.7186 24.7862 41.9301 24.3997L42.2239 23.9111H42.2253Z" fill="#231F20" />
    <path fill-rule="evenodd" clip-rule="evenodd" d="M48.7774 39.6869C48.5558 39.1683 48.2526 38.857 47.9759 38.5794C47.2899 37.8932 46.433 37.4148 45.4995 37.1969C44.566 36.979 43.5921 37.0301 42.6851 37.3445C43.1529 37.2429 43.6309 37.1987 44.1089 37.2127C44.5522 37.2256 45.6739 37.2721 46.8298 37.9809C47.2058 38.2116 47.7215 38.5354 48.1369 39.1776C48.284 39.4046 48.5613 39.8441 48.6342 40.4874C48.6652 40.7599 48.7234 41.343 48.4049 41.9412C48.1125 42.4906 47.6644 42.7488 47.4023 42.895C46.7775 43.2438 46.2022 43.2635 45.6948 43.275C44.7689 43.2945 43.8522 43.0829 43.0234 42.6582C42.1564 42.2062 41.6198 41.6285 41.3365 41.318C41.0486 41.0064 40.788 40.6694 40.5576 40.3108L40.7775 40.1199C40.9901 40.4039 41.2192 40.6746 41.4633 40.9304C41.9411 41.4319 42.8373 42.3695 43.9835 42.7599C45.492 43.2739 47.6877 42.924 48.2665 41.6618C48.4906 41.1726 48.4854 40.5157 48.3038 39.9806C48.1296 39.467 47.8215 39.165 47.5372 38.8935C46.1834 37.597 44.4358 37.5447 44.1765 37.5408C43.638 37.5345 43.1017 37.6133 42.5864 37.7743C43.2143 37.7574 43.8406 37.8461 44.4407 38.0368C45.6255 38.4158 47.3124 39.4 47.2549 40.453C47.2375 40.7714 47.0619 41.0737 46.8465 41.2521C46.4391 41.5891 45.8826 41.4885 45.4774 41.4089C44.9977 41.3112 44.5394 41.1244 44.1249 40.8577C43.6317 40.5424 43.2014 40.1335 42.8568 39.6529L36.4293 30.7815L41.564 23.7736C41.9438 23.1939 42.4184 22.6862 42.9666 22.2729C43.9503 21.5404 45.1266 21.1311 46.3409 21.0988C45.448 20.9982 44.5449 21.1351 43.7183 21.4964C43.6869 21.5104 43.6559 21.5243 43.6252 21.5386C43.0715 21.8013 42.5701 22.1675 42.1467 22.6185L41.9686 22.8062C41.7321 23.0555 41.5109 23.3197 41.3065 23.5974L36.2324 30.4896L36.0993 30.3044L40.6486 24.0924C40.8277 23.8477 41.0002 23.5985 41.1713 23.3477C41.462 22.9221 41.8023 22.5347 42.1846 22.1941C42.6287 21.783 43.1358 21.4502 43.6855 21.2091C44.2584 20.9616 44.7358 20.8807 45.0606 20.8277C45.5346 20.7498 46.0152 20.7237 46.4946 20.7496C45.8069 20.346 45.0431 20.0983 44.2546 20.0232C43.8113 19.9817 42.9401 19.9104 41.9351 20.3255C41.7351 20.4089 41.5411 20.5067 41.3546 20.6182C40.8867 20.8997 40.4763 21.2718 40.1461 21.7138L39.3857 22.7199L34.9741 28.7765H34.9542L30.522 22.7027L29.7619 21.6948C29.4318 21.2528 29.0214 20.8807 28.5534 20.5992C28.3668 20.4883 28.1728 20.3911 27.9729 20.3083C26.9675 19.8932 26.0971 19.9645 25.6535 20.0061C24.8653 20.0813 24.1019 20.329 23.4145 20.7324C23.8934 20.706 24.3737 20.7315 24.8474 20.8087C25.1722 20.8617 25.6489 20.9427 26.2225 21.1902C26.7722 21.4312 27.2793 21.764 27.7234 22.1751C28.1059 22.5165 28.4462 22.9047 28.7367 23.3313C28.9078 23.582 29.0803 23.8327 29.2594 24.0759L33.8102 30.2886L33.677 30.4738L28.6012 23.5802C28.3967 23.3025 28.1756 23.0383 27.9391 22.789L27.761 22.6013C27.3378 22.1503 26.8366 21.7842 26.2831 21.5215C26.2525 21.5071 26.2215 21.4932 26.1901 21.4792C25.3635 21.1179 24.4604 20.981 23.5675 21.0816C24.7818 21.114 25.9581 21.5233 26.9418 22.2557C27.49 22.669 27.9646 23.1767 28.3444 23.7564L33.4788 30.7643L27.0519 39.6367C26.7073 40.1174 26.277 40.5263 25.7838 40.8416C25.369 41.108 24.9105 41.2944 24.4307 41.3917C24.0254 41.4713 23.4689 41.5708 23.0615 41.2349C22.8462 41.0558 22.6705 40.7542 22.6531 40.4358C22.5956 39.3828 24.2843 38.3986 25.4674 38.0196C26.0674 37.8289 26.6937 37.7402 27.3216 37.7571C26.806 37.596 26.2693 37.5172 25.7305 37.5236C25.4712 37.5275 23.7236 37.5798 22.3698 38.8764C22.0865 39.1478 21.7774 39.4494 21.6032 39.9634C21.4216 40.4978 21.4164 41.1554 21.6404 41.6446C22.2193 42.9068 24.415 43.2564 25.9235 42.7427C27.0696 42.3523 27.9659 41.4136 28.4437 40.9132C28.6882 40.6573 28.9176 40.3865 29.1305 40.1024L29.3504 40.2933C29.1201 40.6518 28.8594 40.9889 28.5716 41.3004C28.2883 41.6109 27.7516 42.1887 26.8846 42.6407C26.0558 43.0653 25.1391 43.277 24.2132 43.2574C23.7058 43.246 23.1305 43.2263 22.5057 42.8774C22.2437 42.7313 21.7955 42.473 21.5031 41.9236C21.1846 41.3255 21.2428 40.7417 21.2739 40.4698C21.3467 39.8251 21.6241 39.3871 21.7711 39.16C22.1865 38.5178 22.7022 38.193 23.0782 37.9634C24.2341 37.2546 25.3559 37.208 25.7991 37.1951C26.2775 37.1811 26.7558 37.2253 27.224 37.3269C26.3168 37.0107 25.3421 36.9587 24.4079 37.1767C23.4737 37.3948 22.6164 37.8743 21.9311 38.5622C21.6554 38.8398 21.3523 39.1511 21.1296 39.6697C20.9403 40.0851 20.8576 40.5434 20.8895 41.001C20.927 41.4459 21.073 41.874 21.3139 42.2456C21.7007 42.8402 22.22 43.1052 22.4959 43.2445C23.855 43.9218 25.5852 43.66 26.8024 43.0533C27.9635 42.4745 28.7688 41.5264 29.1281 41.1038L29.4609 40.674L29.534 40.5798L29.5999 40.4953L33.5631 43.7854C33.4983 43.8821 33.4136 44.0142 33.3216 44.1754C33.0816 44.5974 32.8905 45.0469 32.7522 45.5146C32.624 45.9476 32.4832 46.4236 32.4954 47.0597C32.502 47.4179 32.5124 47.9738 32.809 48.5425C32.8815 48.6829 33.3902 49.6335 34.4141 49.8745C34.5866 49.9151 34.7633 49.9337 34.9402 49.9297C35.0654 49.9322 35.2807 49.9429 35.4978 49.8917C36.5216 49.6507 37.0311 48.7001 37.1029 48.5597C37.398 47.9909 37.4085 47.4365 37.4165 47.0769C37.4287 46.4408 37.2879 45.9666 37.1597 45.5318C37.0214 45.0641 36.8303 44.6146 36.5903 44.1926C36.4983 44.0314 36.4136 43.8993 36.3488 43.8026L40.3081 40.5142L40.374 40.5988L40.4472 40.693L40.78 41.1228C41.1392 41.5454 41.9445 42.4935 43.1057 43.0723C44.3229 43.679 46.0523 43.9408 47.4121 43.2635C47.6891 43.1256 48.2073 42.8592 48.5941 42.2646C48.835 41.8929 48.981 41.4649 49.0185 41.02C49.0504 40.5617 48.9674 40.1027 48.7774 39.6869ZM29.465 40.0003L29.296 39.862L29.4302 39.6883L29.5992 39.8266L29.465 40.0003ZM35.3246 32.4494L39.4335 38.2209L39.2916 38.3545L35.2309 32.6214L35.3246 32.4494ZM38.9609 38.5866L34.9486 41.8785L30.9471 38.5694L34.9416 32.8814L38.9609 38.5866ZM34.5834 32.4322L34.6772 32.6042L30.6164 38.3373L30.4746 38.2041L34.5834 32.4322ZM33.7471 43.4995L29.7477 40.2313L29.8818 40.0576L33.8798 43.3258L33.7471 43.4995ZM35.5755 47.5959C35.4494 47.9035 35.3006 48.0364 35.257 48.0733C35.1504 48.1639 35.0131 48.1972 34.9396 48.2259C34.8353 48.1861 34.7383 48.1288 34.6524 48.0561C34.6089 48.0203 34.4601 47.8864 34.3339 47.5787C34.2232 47.2952 34.173 46.9906 34.1865 46.6854C34.1997 46.2696 34.313 45.9662 34.4022 45.7345C34.5373 45.3914 34.7217 45.0711 34.9493 44.7843C35.1803 45.0768 35.3681 45.4027 35.5069 45.7513C35.5961 45.9831 35.7093 46.2864 35.7226 46.7023C35.7359 47.0072 35.6855 47.3116 35.5748 47.5948L35.5755 47.5959ZM36.1616 43.5157L36.0271 43.342L40.0262 40.0748L40.1604 40.2485L36.1616 43.5157ZM40.443 40.0175L40.3088 39.8438L40.4778 39.7055L40.612 39.8792L40.443 40.0175Z" fill="#231F20" />
    <path opacity="0.41" fill-rule="evenodd" clip-rule="evenodd" d="M29.4617 40.6758L29.4485 40.7048L29.4464 40.7077C29.3575 40.8248 29.2516 40.9584 29.1289 41.1038L29.4617 40.6758Z" fill="#231F20" />
    <path opacity="0.41" d="M30.9476 38.5691L30.9375 38.5605" stroke="#231F20" stroke-miterlimit="10" />
    <path opacity="0.41" d="M29.6015 40.4966C29.5583 40.5571 29.5074 40.627 29.4492 40.7043L29.5356 40.5811L29.6015 40.4966Z" fill="#231F20" />
    <path opacity="0.41" d="M29.4453 40.7075L29.4474 40.7046" stroke="#231F20" stroke-miterlimit="10" />
    <path d="M23.4805 21.832C24.2785 21.7986 25.071 21.9822 25.7779 22.3642C26.7251 22.8807 27.2203 23.6031 27.4663 23.972C28.188 25.0526 28.3525 26.1396 28.396 26.712V35.3158H24.52C24.6431 35.2251 24.7668 35.1265 24.8911 35.02C25.4037 34.5764 25.8462 34.0537 26.2027 33.4706C26.4257 33.1058 26.5434 32.6836 26.5421 32.2528V26.8506C26.5494 26.4511 26.5094 26.0521 26.423 25.6626C26.0142 23.8259 24.8385 22.7492 24.214 22.3091C24.1631 22.2732 23.9896 22.1396 23.9175 22.0942C23.8509 22.0512 23.7871 22.0154 23.7139 21.9649C23.6745 21.9376 23.6335 21.9128 23.5913 21.8904L23.4805 21.832Z" fill="#231F20" />
    <path d="M27.6836 23.8936C27.7789 23.9358 27.8662 23.9952 27.9411 24.0691C28.2547 24.3778 28.6475 24.8692 28.837 25.5594C28.8391 25.5662 28.8409 25.573 28.8426 25.5798C28.8977 25.7883 28.9252 26.0034 28.9245 26.2195V35.3169H28.5579V26.343C28.5589 26.0967 28.5284 25.8513 28.467 25.6131V25.6088C28.3546 25.1806 28.1907 24.7686 27.9791 24.3821L27.6853 23.8936H27.6836Z" fill="#231F20" />
    <path d="M34.957 45.103C35.0264 45.1569 35.0865 45.2224 35.1348 45.2968C35.317 45.5801 35.5686 46.078 35.5717 46.7144C35.5717 46.9787 35.5763 47.6886 35.1389 48.0095C35.0828 48.0507 35.0217 48.0841 34.957 48.1088V47.7914C35.1543 47.469 35.2627 47.0977 35.2707 46.7169C35.281 46.3838 35.2081 46.0536 35.0588 45.7578C35.0282 45.6988 34.9944 45.6418 34.9574 45.5869V45.103H34.957Z" fill="#231F20" />
    <path d="M34.9546 45.103C34.8852 45.1569 34.8251 45.2224 34.7768 45.2968C34.5946 45.5801 34.343 46.078 34.3398 46.7144C34.3398 46.9787 34.3353 47.6886 34.7723 48.0095C34.8285 48.0507 34.8898 48.0841 34.9546 48.1088V47.7914C34.7573 47.469 34.6489 47.0977 34.6409 46.7169C34.6304 46.3838 34.7034 46.0535 34.8528 45.7578C34.8833 45.6988 34.9172 45.6418 34.9542 45.5869V45.103H34.9546Z" fill="#231F20" />
  </g>
  <defs>
    <clipPath id="clip0_852_8557">
      <rect width="28.1447" height="29.9605" fill="white" transform="translate(20.8828 19.9736)" />
    </clipPath>
  </defs>
</svg>
