<svg width="267" height="279" viewBox="0 0 267 279" fill="none" xmlns="http://www.w3.org/2000/svg">
  <g opacity="0.05" clip-path="url(#clip0_56_2155)">
    <path opacity="0.41" fill-rule="evenodd" clip-rule="evenodd" d="M188.764 196.931C187.6 195.597 186.595 194.333 185.752 193.242L185.732 193.215L185.606 192.945L188.764 196.931Z" fill="white" />
    <path opacity="0.41" d="M171.607 173.25L171.511 173.33" stroke="white" stroke-miterlimit="10" />
    <path opacity="0.41" d="M185.736 193.215C185.184 192.495 184.701 191.844 184.291 191.281L184.916 192.068L185.736 193.215Z" fill="white" />
    <path opacity="0.41" d="M185.735 193.215L185.755 193.242" stroke="white" stroke-miterlimit="10" />
    <path d="M242.348 17.4636C234.779 17.1533 227.262 18.8629 220.556 22.4198C211.571 27.2294 206.873 33.9601 204.539 37.3921C197.69 47.4548 196.133 57.5808 195.706 62.9074V143.032H232.49C231.329 142.178 230.155 141.259 228.969 140.274C222.445 134.698 217.115 127.839 213.306 120.115V64.2048C213.236 60.4824 213.614 56.7651 214.434 53.1349C218.315 36.0213 229.469 26.0153 235.393 21.9062C235.875 21.5727 237.522 20.3286 238.206 19.905C238.768 19.5448 239.31 19.2379 239.912 18.8611C240.368 18.5642 240.821 18.2674 241.3 18.0172L242.348 17.4636Z" fill="white" />
    <path d="M202.473 36.665C201.568 37.0589 200.74 37.6124 200.027 38.2993C197.052 41.1744 193.329 45.7505 191.531 52.1776C191.511 52.241 191.495 52.3077 191.478 52.3711C190.956 54.3115 190.694 56.3139 190.701 58.3246V143.042H194.179V59.4753C194.17 57.181 194.462 54.8955 195.045 52.6779V52.6379C196.111 48.6509 197.666 44.8135 199.673 41.2144L202.46 36.665H202.473Z" fill="white" />
    <path fill-rule="evenodd" clip-rule="evenodd" d="M264.637 183.576C262.534 178.747 259.658 175.848 257.033 173.263C250.525 166.873 242.396 162.418 233.54 160.389C224.685 158.36 215.446 158.835 206.841 161.763C211.279 160.818 215.813 160.406 220.348 160.536C224.553 160.656 235.195 161.089 246.16 167.69C249.727 169.838 254.62 172.853 258.561 178.833C259.956 180.948 262.587 185.04 263.278 191.031C263.572 193.569 264.124 198.999 261.103 204.569C258.329 209.685 254.078 212.09 251.592 213.451C245.664 216.699 240.206 216.883 235.393 216.99C226.61 217.171 217.913 215.201 210.051 211.246C201.826 207.037 196.735 201.657 194.047 198.765C191.316 195.864 188.844 192.726 186.658 189.386L188.744 187.609C190.762 190.254 192.934 192.774 195.25 195.156C199.783 199.826 208.285 208.558 219.158 212.193C233.469 216.98 254.299 213.721 259.79 201.967C261.916 197.411 261.866 191.294 260.144 186.311C258.491 181.528 255.569 178.717 252.871 176.188C240.028 164.115 223.449 163.628 220.99 163.591C215.881 163.533 210.793 164.266 205.905 165.766C211.861 165.609 217.803 166.435 223.495 168.21C234.735 171.739 250.739 180.905 250.193 190.71C250.028 193.676 248.362 196.491 246.319 198.152C242.454 201.29 237.175 200.353 233.33 199.612C228.78 198.702 224.432 196.963 220.5 194.479C215.821 191.543 211.739 187.735 208.47 183.259L147.494 100.647L196.206 35.3877C199.809 29.9898 204.31 25.2617 209.512 21.4127C218.843 14.592 230.003 10.7805 241.522 10.4795C233.052 9.54269 224.484 10.8175 216.642 14.1817C216.345 14.3118 216.051 14.4419 215.76 14.5753C210.507 17.0211 205.75 20.431 201.733 24.6313L200.044 26.379C197.8 28.7005 195.702 31.1612 193.763 33.7467L145.626 97.9284L144.363 96.204L187.521 38.3561C189.22 36.0781 190.857 33.7567 192.48 31.422C195.238 27.4583 198.466 23.8504 202.093 20.6789C206.306 16.8508 211.117 13.7517 216.332 11.5068C221.766 9.20206 226.295 8.44828 229.377 7.95465C233.873 7.22963 238.433 6.98591 242.98 7.22755C236.456 3.46917 229.211 1.16285 221.73 0.463508C217.525 0.0766101 209.26 -0.58712 199.726 3.27852C197.829 4.05456 195.989 4.96516 194.219 6.00348C189.78 8.62527 185.887 12.0901 182.754 16.2062L175.541 25.5752L133.689 81.9755H133.5L91.4533 25.4151L84.2432 16.0295C81.1108 11.9133 77.2175 8.4485 72.7786 5.82671C71.0083 4.79409 69.1679 3.88907 67.271 3.11843C57.7337 -0.747215 49.4757 -0.0834856 45.2673 0.303412C37.7902 1.00415 30.5482 3.31043 24.0273 7.06745C28.5706 6.82101 33.1271 7.05914 37.6209 7.77788C40.7019 8.27151 45.2243 9.02529 50.6658 11.33C55.8804 13.5749 60.6913 16.674 64.904 20.5021C68.5328 23.6808 71.7614 27.2967 74.5174 31.2686C76.1406 33.6033 77.777 35.938 79.4762 38.2027L122.647 96.0573L121.384 97.7817L73.2315 33.5866C71.292 31.0011 69.1942 28.5404 66.9504 26.2189L65.2611 24.4712C61.2457 20.2716 56.4916 16.8617 51.241 14.4152C50.9501 14.2818 50.6558 14.1517 50.3583 14.0216C42.5164 10.6574 33.9492 9.38259 25.4785 10.3194C36.9979 10.6204 48.1572 14.4319 57.489 21.2526C62.6903 25.1016 67.192 29.8297 70.7951 35.2276L119.503 100.487L58.5337 183.109C55.2652 187.585 51.1827 191.393 46.5037 194.329C42.5689 196.81 38.2189 198.546 33.6671 199.452C29.8224 200.193 24.543 201.12 20.6784 197.992C18.6354 196.324 16.9693 193.516 16.804 190.55C16.2585 180.745 32.2786 171.579 43.502 168.05C49.1944 166.274 55.1361 165.449 61.0924 165.605C56.201 164.105 51.1101 163.372 45.9979 163.431C43.5384 163.468 26.9595 163.955 14.1163 176.028C11.4287 178.557 8.49639 181.365 6.84347 186.151C5.12112 191.127 5.07153 197.251 7.19719 201.807C12.6882 213.561 33.5183 216.816 47.8293 212.033C58.7023 208.398 67.2049 199.656 71.7372 194.996C74.057 192.613 76.2328 190.092 78.2531 187.445L80.339 189.223C78.1539 192.562 75.6815 195.701 72.9505 198.602C70.2628 201.494 65.1718 206.873 56.9469 211.083C49.0841 215.037 40.3879 217.008 31.6043 216.826C26.7909 216.719 21.333 216.536 15.4056 213.287C12.9196 211.926 8.66829 209.522 5.89469 204.405C2.87314 198.835 3.42522 193.399 3.71944 190.867C4.41036 184.864 7.04182 180.785 8.43688 178.67C12.3775 172.69 17.2701 169.665 20.8371 167.527C31.8026 160.926 42.4441 160.492 46.6492 160.372C51.1873 160.241 55.7248 160.653 60.1668 161.6C51.5602 158.655 42.3137 158.171 33.4512 160.201C24.5887 162.231 16.4562 166.697 9.95427 173.103C7.33934 175.688 4.46326 178.587 2.35082 183.416C0.554835 187.285 -0.229317 191.553 0.0730931 195.814C0.429249 199.957 1.81402 203.943 4.09961 207.404C7.7691 212.94 12.6948 215.409 15.313 216.706C28.2058 223.013 44.6194 220.575 56.1667 214.925C67.1818 209.535 74.8216 200.706 78.2299 196.771L81.387 192.768L82.0812 191.891L82.706 191.104L120.303 221.742C119.689 222.643 118.885 223.874 118.012 225.375C115.735 229.304 113.923 233.49 112.611 237.845C111.394 241.878 110.059 246.31 110.174 252.234C110.237 255.569 110.336 260.746 113.15 266.042C113.837 267.35 118.664 276.202 128.376 278.446C130.013 278.824 131.69 278.997 133.368 278.96C134.555 278.983 136.598 279.083 138.657 278.606C148.37 276.362 153.203 267.51 153.884 266.202C156.684 260.906 156.783 255.743 156.859 252.394C156.975 246.47 155.64 242.055 154.423 238.005C153.111 233.65 151.298 229.465 149.021 225.535C148.149 224.034 147.345 222.803 146.73 221.902L184.291 191.281L184.916 192.068L185.61 192.945L188.768 196.948C192.176 200.883 199.816 209.712 210.831 215.102C222.378 220.752 238.785 223.19 251.684 216.883C254.313 215.599 259.228 213.117 262.898 207.581C265.183 204.12 266.568 200.134 266.924 195.99C267.227 191.723 266.439 187.449 264.637 183.576ZM81.4267 186.495L79.8233 185.207L81.0961 183.59L82.6994 184.877L81.4267 186.495ZM137.014 116.179L175.994 169.925L174.648 171.169L136.125 117.78L137.014 116.179ZM171.511 173.33L133.447 203.985L95.4864 173.17L133.381 120.202L171.511 173.33ZM129.983 116.019L130.872 117.62L92.3492 171.009L91.0037 169.768L129.983 116.019ZM122.049 219.081L84.1077 188.646L85.3805 187.028L123.308 217.463L122.049 219.081ZM139.395 257.227C138.198 260.092 136.786 261.329 136.373 261.673C135.362 262.517 134.059 262.827 133.362 263.094C132.373 262.724 131.452 262.189 130.637 261.513C130.224 261.179 128.813 259.932 127.616 257.067C126.566 254.427 126.089 251.59 126.218 248.749C126.343 244.876 127.418 242.051 128.264 239.893C129.545 236.698 131.295 233.716 133.454 231.045C135.645 233.769 137.427 236.803 138.743 240.05C139.59 242.208 140.664 245.033 140.79 248.905C140.916 251.745 140.438 254.579 139.388 257.217L139.395 257.227ZM144.955 219.231L143.679 217.613L181.617 187.188L182.89 188.806L144.955 219.231ZM185.571 186.655L184.298 185.037L185.901 183.75L187.174 185.367L185.571 186.655Z" fill="white" />
    <path opacity="0.41" fill-rule="evenodd" clip-rule="evenodd" d="M81.3866 192.782L81.261 193.052L81.2411 193.079C80.3981 194.169 79.3932 195.413 78.2295 196.767L81.3866 192.782Z" fill="white" />
    <path opacity="0.41" d="M95.4894 173.167L95.3936 173.087" stroke="white" stroke-miterlimit="10" />
    <path opacity="0.41" d="M82.7054 191.114C82.2955 191.678 81.8128 192.328 81.2607 193.049L82.0806 191.901L82.7054 191.114Z" fill="white" />
    <path opacity="0.41" d="M81.2441 193.078L81.264 193.052" stroke="white" stroke-miterlimit="10" />
    <path d="M24.6484 17.3035C32.2192 16.9928 39.7372 18.7024 46.4439 22.2598C55.4292 27.0693 60.1268 33.7967 62.4607 37.2321C69.3071 47.2947 70.8675 57.4175 71.2807 62.7473V142.868H34.5098C35.6778 142.024 36.8514 141.105 38.0305 140.114C42.8933 135.983 47.091 131.115 50.4737 125.685C52.5889 122.288 53.7055 118.356 53.6936 114.345V64.0381C53.7626 60.3177 53.3829 56.6027 52.563 52.9748C48.6852 35.8712 37.5313 25.8453 31.6072 21.7461C31.1246 21.4126 29.4783 20.1685 28.794 19.7449C28.1626 19.3447 27.5576 19.0112 26.8634 18.5409C26.4889 18.2874 26.1004 18.0558 25.6997 17.8471L24.6484 17.3035Z" fill="white" />
    <path d="M64.5264 36.5054C65.4309 36.8985 66.2583 37.4521 66.9694 38.1397C69.9447 41.0147 73.6703 45.5908 75.4687 52.018C75.4886 52.0813 75.5051 52.1447 75.5216 52.2081C76.0439 54.1496 76.3052 56.1532 76.2985 58.165V142.882H72.8207V59.3157C72.8305 57.0215 72.5404 54.736 71.9579 52.5183V52.4782C70.8921 48.491 69.3373 44.6536 67.3297 41.0548L64.5429 36.5054H64.5264Z" fill="white" />
    <path d="M133.5 234.01C134.158 234.512 134.728 235.122 135.186 235.814C136.915 238.452 139.302 243.089 139.332 249.015C139.332 251.477 139.374 258.087 135.226 261.076C134.693 261.459 134.113 261.77 133.5 262V259.045C135.371 256.043 136.4 252.584 136.475 249.039C136.574 245.937 135.882 242.862 134.465 240.107C134.176 239.558 133.854 239.027 133.503 238.516V234.01H133.5Z" fill="white" />
    <path d="M133.5 234.01C132.842 234.512 132.272 235.122 131.814 235.814C130.086 238.452 127.699 243.089 127.669 249.015C127.669 251.477 127.626 258.087 131.772 261.076C132.305 261.459 132.886 261.77 133.5 262V259.045C131.629 256.043 130.601 252.584 130.525 249.039C130.425 245.937 131.117 242.861 132.535 240.107C132.825 239.558 133.146 239.027 133.497 238.516V234.01H133.5Z" fill="white" />
  </g>
  <defs>
    <clipPath id="clip0_56_2155">
      <rect width="267" height="279" fill="white" />
    </clipPath>
  </defs>
</svg>
