<svg width="25" height="25" viewBox="0 0 25 25" fill="none" xmlns="http://www.w3.org/2000/svg">
  <path d="M21.4468 20.631H3.55062C3.09482 20.631 2.65769 20.4499 2.3354 20.1276C2.0131 19.8053 1.83203 19.3682 1.83203 18.9124V4.88559C1.83203 4.42979 2.0131 3.99266 2.3354 3.67036C2.65769 3.34806 3.09482 3.16699 3.55062 3.16699H21.4468C21.9026 3.16699 22.3397 3.34806 22.662 3.67036C22.9843 3.99266 23.1654 4.42979 23.1654 4.88559V18.9124C23.1654 19.3682 22.9843 19.8053 22.662 20.1276C22.3397 20.4499 21.9026 20.631 21.4468 20.631ZM3.55062 4.50703C3.45022 4.50703 3.35394 4.54691 3.28294 4.6179C3.21195 4.6889 3.17206 4.78519 3.17206 4.88559V18.9124C3.17206 18.9621 3.18186 19.0113 3.20088 19.0573C3.21991 19.1032 3.24779 19.1449 3.28294 19.1801C3.31809 19.2152 3.35983 19.2431 3.40576 19.2621C3.45168 19.2812 3.50091 19.2909 3.55062 19.2909H21.4468C21.5466 19.2901 21.642 19.2498 21.7123 19.1789C21.7826 19.108 21.822 19.0122 21.822 18.9124V4.88559C21.822 4.78576 21.7826 4.68998 21.7123 4.61908C21.642 4.54818 21.5466 4.50791 21.4468 4.50703H3.55062Z" fill="#231F20" />
  <path d="M5.87735 17.7265H19.1135C19.2195 17.7295 19.3242 17.7027 19.4157 17.6491C19.5073 17.5955 19.5819 17.5173 19.6311 17.4234C19.6803 17.3294 19.7022 17.2236 19.6942 17.1178C19.6862 17.0121 19.6487 16.9107 19.5859 16.8253L17.7601 14.3462C17.7124 14.2803 17.6511 14.2253 17.5803 14.1852C17.5095 14.1451 17.4309 14.1207 17.3498 14.1137C17.2688 14.1067 17.1871 14.1173 17.1105 14.1447C17.0339 14.1721 16.9641 14.2157 16.9058 14.2725L15.0298 16.0581L10.6747 10.1452C10.6204 10.0713 10.5491 10.0117 10.4668 9.97152C10.3844 9.9313 10.2936 9.91166 10.202 9.9143C10.1104 9.91693 10.0208 9.94176 9.94091 9.98665C9.86102 10.0315 9.79323 10.0951 9.74335 10.172L5.38824 16.8521C5.33207 16.9386 5.30059 17.0387 5.29718 17.1418C5.29378 17.2448 5.31859 17.3469 5.36893 17.4369C5.41927 17.5269 5.49323 17.6014 5.58283 17.6524C5.67243 17.7035 5.77427 17.7291 5.87735 17.7265Z" fill="#231F20" />
  <path d="M16.6155 10.2183C17.7127 10.2183 18.6021 9.32889 18.6021 8.23172C18.6021 7.13455 17.7127 6.24512 16.6155 6.24512C15.5183 6.24512 14.6289 7.13455 14.6289 8.23172C14.6289 9.32889 15.5183 10.2183 16.6155 10.2183Z" fill="#231F20" />
</svg>
