<svg width="19" height="18" viewBox="0 0 19 18" fill="none" xmlns="http://www.w3.org/2000/svg">
  <g clip-path="url(#clip0_688_10178)">
    <path d="M17.9548 9.2625L16.855 7.54335C16.63 7.19097 16.2456 6.98047 15.8269 6.98047L9.49946 6.98123H3.17207C2.75335 6.98123 2.36969 7.19173 2.14394 7.54411L1.04412 9.26326C0.803856 9.63928 0.787083 10.116 1.0014 10.5072C1.21573 10.8985 1.6253 11.1418 2.07149 11.1418H2.22937V16.7798C2.22937 17.4525 2.777 18.0001 3.44971 18.0001H15.5478C16.2205 18.0001 16.7682 17.4525 16.7682 16.7798V11.1418H16.926C17.3722 11.1418 17.7826 10.8985 17.9969 10.5065C18.2112 10.1144 18.1951 9.63699 17.9548 9.2625ZM3.17195 8.2008H8.38425L7.28442 9.91996L2.07213 9.91919L3.17195 8.2008ZM3.45034 11.1404H7.28376C7.70248 11.1404 8.08614 10.9298 8.31189 10.5775L8.88925 9.67595V16.7775H3.45046L3.45034 11.1404ZM15.5485 16.7783H10.1097V9.67595L10.6863 10.5775C10.9113 10.9298 11.2957 11.1404 11.7144 11.1404H15.5486L15.5485 16.7783ZM11.7211 9.92001H11.7142L10.6144 8.20086H15.8267L16.9273 9.92001H11.7211Z" fill="#231F20" />
    <path d="M7.68359 5L11.6834 1.00023" stroke="#231F20" stroke-width="1.3" stroke-linecap="round" />
    <path d="M7.68359 1L11.6834 4.99977" stroke="#231F20" stroke-width="1.3" stroke-linecap="round" />
  </g>
  <defs>
    <clipPath id="clip0_688_10178">
      <rect width="18" height="18" fill="white" transform="translate(0.5)" />
    </clipPath>
  </defs>
</svg>
