<svg width="42" height="42" viewBox="0 0 42 42" fill="none" xmlns="http://www.w3.org/2000/svg">
  <rect x="0.5" y="0.5" width="41" height="41" rx="20.5" stroke="#231F20" />
  <path d="M28.7741 20.007C28.6361 20.0197 28.4977 20.0263 28.3591 20.0269C27.6109 20.027 26.8744 19.8508 26.2162 19.5142C25.5579 19.1776 24.9986 18.6911 24.5887 18.0988V24.6645C24.5887 25.6242 24.288 26.5625 23.7245 27.3605C23.161 28.1585 22.36 28.7805 21.4229 29.1478C20.4858 29.515 19.4547 29.6111 18.4599 29.4239C17.4651 29.2367 16.5513 28.7745 15.8341 28.0958C15.1169 27.4172 14.6285 26.5525 14.4306 25.6112C14.2327 24.6699 14.3343 23.6941 14.7224 22.8074C15.1106 21.9207 15.7679 21.1628 16.6112 20.6296C17.4546 20.0964 18.4461 19.8118 19.4604 19.8118C19.5674 19.8118 19.6721 19.8209 19.7773 19.8272V22.2185C19.6721 22.2065 19.5686 22.1883 19.4604 22.1883C18.7662 22.1883 18.1005 22.4493 17.6096 22.9137C17.1187 23.3782 16.843 24.0082 16.843 24.665C16.843 25.3219 17.1187 25.9519 17.6096 26.4163C18.1005 26.8808 18.7662 27.1417 19.4604 27.1417C20.9062 27.1417 22.183 26.0639 22.183 24.6958L22.2083 13.5449H24.626C24.7365 14.539 25.2127 15.4646 25.9714 16.1601C26.7301 16.8555 27.723 17.2764 28.7765 17.3493V20.007" fill="#231F20" />
</svg>
