<svg width="12" height="12" viewBox="0 0 12 12" fill="none" xmlns="http://www.w3.org/2000/svg">
  <g clip-path="url(#clip0_184_5530)">
    <path d="M4.00923 9.8834C4.19589 9.8834 4.34756 9.73173 4.34756 9.54507V4.45845C4.34756 4.27178 4.19589 4.12012 4.00923 4.12012C3.82256 4.12012 3.6709 4.27178 3.6709 4.45845V9.54507C3.6709 9.73173 3.82256 9.8834 4.00923 9.8834Z" fill="black" />
    <path d="M6.02778 9.8834C6.21445 9.8834 6.36611 9.73173 6.36611 9.54507V4.45845C6.36611 4.27178 6.21445 4.12012 6.02778 4.12012C5.84112 4.12012 5.68945 4.27178 5.68945 4.45845V9.54507C5.68945 9.73173 5.84112 9.8834 6.02778 9.8834Z" fill="black" />
    <path d="M8.04599 9.8834C8.23266 9.8834 8.38432 9.73173 8.38432 9.54507V4.45845C8.38432 4.27178 8.23266 4.12012 8.04599 4.12012C7.85933 4.12012 7.70766 4.27178 7.70766 4.45845V9.54507C7.696 9.73173 7.84766 9.8834 8.04599 9.8834Z" fill="black" />
    <path d="M11.0793 2.17149H8.51268L7.82435 1.07483C7.66102 0.818169 7.39269 0.666504 7.08935 0.666504H4.96604C4.66271 0.666504 4.39438 0.818169 4.23105 1.07483L3.55439 2.17149H0.987744C0.801079 2.17149 0.649414 2.32316 0.649414 2.50982C0.649414 2.69649 0.801079 2.84815 0.987744 2.84815H1.57107V10.6531C1.57107 11.2481 2.0494 11.7264 2.6444 11.7264H9.43433C10.0293 11.7264 10.5077 11.2481 10.5077 10.6531V2.85982H11.0793C11.266 2.85982 11.4176 2.70815 11.4176 2.52149C11.4176 2.33482 11.266 2.17149 11.0793 2.17149ZM4.81438 1.4365C4.84938 1.38983 4.89604 1.35483 4.96604 1.35483H7.10102C7.15935 1.35483 7.21769 1.38983 7.25269 1.4365L7.70768 2.17149H4.35938L4.81438 1.4365ZM9.80766 10.6764C9.80766 10.8864 9.63266 11.0614 9.42267 11.0614H2.63273C2.42273 11.0614 2.24773 10.8864 2.24773 10.6764V2.85982H9.81933V10.6764H9.80766Z" fill="black" />
  </g>
  <defs>
    <clipPath id="clip0_184_5530">
      <rect width="12" height="12" fill="white" />
    </clipPath>
  </defs>
</svg>
