<svg width="18" height="18" viewBox="0 0 18 18" fill="none" xmlns="http://www.w3.org/2000/svg">
  <path d="M9.0008 8.5L8.95471 8.4998C6.74931 8.47475 4.97541 6.66018 5.00026 4.45481C5.02491 2.27408 6.81885 0.5 8.9994 0.5L9.04529 0.5002C11.2505 0.525252 13.0246 2.33982 12.9997 4.54519C12.9749 6.72592 11.1811 8.5 9.0008 8.5ZM8.9994 1.7025C7.47462 1.7025 6.22 2.94327 6.20277 4.46823C6.18533 6.01063 7.42612 7.27967 8.96853 7.2971L9.001 7.2973C10.5256 7.2973 11.7802 6.05673 11.7974 4.53157C11.8149 2.98917 10.5741 1.72013 9.03187 1.7027L8.9994 1.7025Z" fill="#231F20" stroke="#231F20" stroke-width="0.2" />
  <path d="M13.7872 17.5H4.21277C2.99268 17.5 2 16.4182 2 15.0887V13.3459C2 12.0593 2.89957 10.8177 4.04783 10.5192L7.22587 9.69291C7.704 9.56863 8.33413 9.5 9 9.5C9.66604 9.5 10.296 9.56844 10.7741 9.69291L13.9523 10.5192C15.1006 10.8177 16 12.0595 16 13.3459V15.0887C16 16.4182 15.0073 17.5 13.7872 17.5ZM9 10.6127C8.42008 10.6127 7.85975 10.6719 7.46281 10.7752L4.28477 11.6016C3.59983 11.7796 3.02128 12.5785 3.02128 13.3457V15.0885C3.02128 15.8043 3.55574 16.3869 4.21277 16.3869H13.7872C14.4441 16.3869 14.9787 15.8043 14.9787 15.0885V13.3457C14.9787 12.5783 14.4002 11.7796 13.7152 11.6016L10.537 10.7752C10.1401 10.6719 9.57991 10.6127 9 10.6127Z" fill="#231F20" stroke="#231F20" stroke-width="0.2" />
</svg>
