<svg width="18" height="18" viewBox="0 0 18 18" fill="none" xmlns="http://www.w3.org/2000/svg">
  <g clip-path="url(#clip0_184_6009)">
    <path d="M8.71663 2.33807C8.81002 2.06941 9.18998 2.0694 9.28337 2.33807L10.461 5.72588C10.6395 6.23947 11.1188 6.5877 11.6624 6.59878L15.2483 6.67185C15.5327 6.67765 15.6501 7.03901 15.4234 7.21085L12.5653 9.3777C12.1321 9.7062 11.949 10.2696 12.1064 10.7901L13.145 14.2231C13.2274 14.4953 12.92 14.7186 12.6865 14.5562L9.74253 12.5076C9.29622 12.197 8.70378 12.197 8.25747 12.5076L5.31347 14.5562C5.08 14.7186 4.7726 14.4953 4.85497 14.2231L5.89357 10.7901C6.05102 10.2696 5.86795 9.7062 5.43466 9.3777L2.57657 7.21085C2.34991 7.03901 2.46732 6.67765 2.7517 6.67185L6.33759 6.59878C6.88121 6.5877 7.36051 6.23947 7.53903 5.72588L8.71663 2.33807Z" stroke="#07285F" />
  </g>
  <defs>
    <clipPath id="clip0_184_6009">
      <rect width="18" height="18" fill="white" />
    </clipPath>
  </defs>
</svg>
