<svg width="18" height="18" viewBox="0 0 18 18" fill="none" xmlns="http://www.w3.org/2000/svg">
  <path d="M12.6019 2.82305C13.5232 2.82305 14.4454 3.18515 15.1484 3.90859C16.5545 5.35547 16.5545 7.70254 15.1484 9.14955L9.00047 15.1764L2.85254 9.14955C1.4465 7.70268 1.4465 5.35561 2.85254 3.90859C3.55557 3.18515 4.47767 2.82305 5.39907 2.82305C5.80199 2.82305 6.20563 2.89253 6.59053 3.03074C7.23429 3.26237 7.788 3.70167 8.20891 4.25372L9.00047 5.29371L9.79203 4.25372C10.2122 3.70167 10.7667 3.26237 11.4104 3.03074C11.7953 2.89254 12.1982 2.82305 12.6019 2.82305ZM12.6019 2C12.1044 2 11.6145 2.0857 11.1463 2.25402C10.3825 2.52888 9.69674 3.04463 9.16257 3.74646L9.0005 3.95878L8.83844 3.74646C8.30424 3.04463 7.61846 2.52888 6.85469 2.25402C6.38651 2.08571 5.89656 2 5.39913 2C4.22342 2 3.11824 2.47097 2.28694 3.32643C0.57102 5.09218 0.57102 7.96593 2.28694 9.73235L8.44832 15.773C8.60288 15.9243 8.8017 16 9.00053 16C9.19937 16 9.39818 15.9243 9.55275 15.773L15.7007 9.74619C17.4308 7.96577 17.4308 5.09285 15.7142 3.32643C14.8829 2.47097 13.7776 2 12.6019 2Z" fill="#8e8e8e" stroke="#8e8e8e" stroke-width="0.5" />
</svg>
