<svg width="14" height="15" viewBox="0 0 14 15" fill="none" xmlns="http://www.w3.org/2000/svg">
  <path d="M12.7991 5.55783C12.7769 5.50449 12.7458 5.4556 12.7013 5.41117L8.70574 1.41117C8.66574 1.37117 8.61685 1.33561 8.55908 1.31339C8.50575 1.29117 8.44797 1.27783 8.39019 1.27783H5.27908C3.5636 1.27783 2.16797 2.67339 2.16797 4.38894V10.6112C2.16797 12.3266 3.56352 13.7223 5.27908 13.7223H9.72352C11.439 13.7223 12.8346 12.3267 12.8346 10.6112V5.72228C12.8346 5.6645 12.8213 5.60672 12.7991 5.55339L12.7991 5.55783ZM8.83466 2.79786L11.3191 5.28234H9.27911C9.03466 5.28234 8.83466 5.08235 8.83466 4.8379V2.79786ZM11.9458 10.6157C11.9458 11.8423 10.9502 12.8379 9.72355 12.8379H5.27911C4.05244 12.8379 3.05689 11.8423 3.05689 10.6157V4.39345C3.05689 3.16679 4.05244 2.17123 5.27911 2.17123H7.94578V4.8379C7.94578 5.57122 8.54578 6.17123 9.27911 6.17123H11.9458V10.6157ZM4.93251 7.68675H10.0437C10.2881 7.68675 10.4881 7.88674 10.4881 8.13119C10.4881 8.37565 10.2881 8.57564 10.0437 8.57564H4.93251C4.68806 8.57564 4.48807 8.37565 4.48807 8.13119C4.48807 7.88674 4.68806 7.68675 4.93251 7.68675ZM8.83481 10.2867C8.83481 10.5312 8.63481 10.7312 8.39036 10.7312H4.94588C4.70143 10.7312 4.50144 10.5312 4.50144 10.2867C4.50144 10.0423 4.70143 9.84227 4.94588 9.84227H8.39036C8.63481 9.84227 8.83481 10.0423 8.83481 10.2867Z" fill="#8E8E8E" />
</svg>
