<svg width="14" height="15" viewBox="0 0 14 15" fill="none" xmlns="http://www.w3.org/2000/svg">
  <path d="M6.73673 13.6572C6.81877 13.7012 6.91009 13.7225 6.99998 13.7225C7.08915 13.7225 7.18047 13.7012 7.26323 13.6572C7.46585 13.5501 12.2052 10.9949 12.2052 6.42852C12.2052 3.66719 9.86945 1.41943 7.00005 1.41943C4.13066 1.41943 1.79492 3.66719 1.79492 6.42852C1.79421 10.9928 6.534 13.5502 6.73673 13.6572ZM6.99926 2.47398C9.26578 2.47398 11.1086 4.24737 11.1086 6.42852C11.1086 9.79269 7.94386 11.9965 6.99926 12.5779C6.05326 11.9964 2.88995 9.80288 2.88995 6.42852C2.88995 4.24737 4.73494 2.47398 6.99926 2.47398Z" fill="#231F20" />
  <path d="M6.99976 8.99072C8.30391 8.99072 9.36572 7.92891 9.36572 6.62476C9.36572 5.3206 8.30391 4.25879 6.99976 4.25879C5.6956 4.25879 4.63379 5.3206 4.63379 6.62476C4.63379 7.92823 5.69628 8.99072 6.99976 8.99072ZM6.99976 5.31033C7.72542 5.31033 8.31418 5.89909 8.31418 6.62476C8.31418 7.35043 7.72542 7.93918 6.99976 7.93918C6.27409 7.93918 5.68533 7.35043 5.68533 6.62476C5.68533 5.89909 6.27614 5.31033 6.99976 5.31033Z" fill="#231F20" />
</svg>
