<svg width="28" height="28" viewBox="0 0 28 28" fill="none" xmlns="http://www.w3.org/2000/svg">
  <rect width="28" height="28" rx="14" fill="white" />
  <g clip-path="url(#clip0_299_242)">
    <path fill-rule="evenodd" clip-rule="evenodd" d="M6 12.9248C6 9.33851 9.58911 6.4209 13.9999 6.4209C18.4114 6.4209 22 9.33851 22 12.9248C22 14.3601 21.4447 15.6526 20.2856 16.9263C18.6072 18.8617 14.8538 21.219 13.9999 21.5794C13.1701 21.9298 13.266 21.3822 13.3039 21.1652C13.305 21.159 13.3061 21.153 13.307 21.1474C13.3273 21.0269 13.4211 20.4614 13.4211 20.4614C13.4481 20.2567 13.476 19.9393 13.3954 19.7367C13.3057 19.5136 12.9511 19.3977 12.6905 19.3415C8.84607 18.8323 6 16.1398 6 12.9248ZM15.8908 11.4148H15.3658C15.2854 11.4148 15.2201 11.479 15.2201 11.5578V13.4619L13.7257 11.4784C13.7222 11.4733 13.7183 11.4685 13.7143 11.4639L13.7133 11.463C13.7105 11.4598 13.7076 11.457 13.7046 11.4542L13.7018 11.4518C13.6994 11.4495 13.6968 11.4474 13.6941 11.4454C13.6937 11.445 13.6932 11.4446 13.6927 11.4442C13.6923 11.4439 13.6918 11.4435 13.6914 11.4432L13.6904 11.4424L13.6874 11.4404L13.6828 11.4374C13.6813 11.4364 13.6799 11.4355 13.6783 11.4348C13.6757 11.4333 13.6732 11.4317 13.6706 11.4305L13.6688 11.4296L13.666 11.4283C13.6633 11.4271 13.6605 11.4258 13.6577 11.4248L13.6529 11.4231C13.6501 11.4221 13.6472 11.4212 13.6442 11.4205L13.6416 11.4197L13.6391 11.419L13.6308 11.4172L13.6247 11.4165C13.6236 11.4163 13.6226 11.4161 13.6215 11.416C13.6206 11.4159 13.6197 11.4158 13.6188 11.4157L13.6169 11.4155L13.6119 11.4152L13.6094 11.4151L13.6069 11.415L13.6043 11.4148H13.0795C12.999 11.4148 12.9335 11.479 12.9335 11.5578V14.7627C12.9335 14.8417 12.999 14.9057 13.0795 14.9057H13.6043C13.6849 14.9057 13.7502 14.8417 13.7502 14.7627V12.8592L15.2465 14.8452C15.2568 14.8596 15.2696 14.8713 15.2835 14.8806L15.2849 14.8818L15.294 14.8871C15.2954 14.888 15.2967 14.8885 15.2981 14.8892C15.3003 14.8905 15.3027 14.8916 15.305 14.8926L15.3122 14.8956L15.3165 14.8971C15.3199 14.8984 15.3231 14.8994 15.3264 14.9004L15.3278 14.9006L15.3285 14.9008C15.3404 14.9039 15.3529 14.9057 15.3658 14.9057H15.8908C15.9714 14.9057 16.0366 14.8417 16.0366 14.7627V11.5578C16.0366 11.479 15.9714 11.4148 15.8908 11.4148ZM11.9085 11.415C11.832 11.415 11.7698 11.4791 11.7698 11.558V14.7629C11.7698 14.8419 11.832 14.9059 11.9085 14.9059H12.4071C12.4836 14.9059 12.5456 14.8419 12.5456 14.7629V11.558C12.5456 11.4791 12.4836 11.415 12.4071 11.415H11.9085ZM9.84999 14.1034H11.2399C11.3183 14.1034 11.3817 14.1675 11.3817 14.2466V14.7625C11.3817 14.8416 11.3183 14.9059 11.2399 14.9059H9.19628C9.15812 14.9059 9.12372 14.8907 9.09814 14.8659L9.09604 14.8639C9.09521 14.8632 9.09465 14.8625 9.09409 14.8618C9.06962 14.8361 9.05438 14.8013 9.05438 14.7628V14.7625V11.5582C9.05438 11.4791 9.11799 11.415 9.19642 11.415H9.70809C9.78638 11.415 9.84999 11.4791 9.84999 11.5582V14.1034ZM18.6093 12.2174C18.6878 12.2174 18.7511 12.1533 18.7511 12.0741V11.5582C18.7511 11.4791 18.6878 11.4148 18.6093 11.4148H16.5658H16.5656C16.5273 11.4148 16.4927 11.4303 16.4671 11.4553L16.4664 11.4559L16.4655 11.4568L16.4632 11.4594C16.4389 11.485 16.4238 11.5197 16.4238 11.5581V11.5582V14.7625V14.7626C16.4238 14.8011 16.439 14.8359 16.4635 14.8616C16.4641 14.8623 16.4648 14.8631 16.4655 14.8637C16.466 14.8644 16.4669 14.8651 16.4676 14.8657C16.493 14.8904 16.5275 14.9057 16.5656 14.9057H18.6093C18.6878 14.9057 18.7511 14.8414 18.7511 14.7625V14.2464C18.7511 14.1675 18.6878 14.1032 18.6093 14.1032H17.2196V13.5615H18.6093C18.6878 13.5615 18.7511 13.4973 18.7511 13.4182V12.9023C18.7511 12.8232 18.6878 12.7589 18.6093 12.7589H17.2196V12.2174H18.6093Z" fill="#231F20" />
  </g>
  <defs>
    <clipPath id="clip0_299_242">
      <rect width="16" height="16" fill="white" transform="translate(6 6)" />
    </clipPath>
  </defs>
</svg>
