<svg width="28" height="28" viewBox="0 0 28 28" fill="none" xmlns="http://www.w3.org/2000/svg">
  <rect width="28" height="28" rx="14" fill="white" />
  <path d="M20.2206 13.1723C20.1103 13.1828 19.9995 13.1884 19.8886 13.1889C19.2901 13.189 18.7009 13.0419 18.1743 12.7609C17.6477 12.4799 17.2003 12.0738 16.8724 11.5793V17.0602C16.8724 17.8614 16.6317 18.6446 16.1809 19.3108C15.7301 19.977 15.0894 20.4962 14.3397 20.8028C13.59 21.1094 12.7651 21.1896 11.9693 21.0333C11.1734 20.877 10.4424 20.4912 9.86864 19.9247C9.29487 19.3581 8.90413 18.6363 8.74583 17.8505C8.58752 17.0647 8.66877 16.2502 8.97929 15.51C9.28981 14.7698 9.81567 14.1371 10.4903 13.692C11.165 13.2469 11.9582 13.0093 12.7697 13.0093C12.8553 13.0093 12.939 13.0169 13.0232 13.0221V15.0184C12.939 15.0084 12.8563 14.9932 12.7697 14.9932C12.2143 14.9932 11.6817 15.211 11.2891 15.5988C10.8964 15.9865 10.6758 16.5124 10.6758 17.0607C10.6758 17.609 10.8964 18.1349 11.2891 18.5227C11.6817 18.9104 12.2143 19.1282 12.7697 19.1282C13.9263 19.1282 14.9478 18.2284 14.9478 17.0864L14.968 7.77783H16.9022C16.9906 8.60763 17.3715 9.38036 17.9785 9.9609C18.5854 10.5414 19.3798 10.8928 20.2225 10.9537V13.1723" fill="#231F20" />
</svg>
