<svg width="25" height="25" viewBox="0 0 25 25" fill="none" xmlns="http://www.w3.org/2000/svg">
  <path d="M22.0803 9.17014C22.0422 9.07871 21.9888 8.9949 21.9127 8.91872L15.0631 2.06158C14.9945 1.99301 14.9107 1.93206 14.8117 1.89396C14.7202 1.85586 14.6212 1.83301 14.5221 1.83301H9.1888C6.24797 1.83301 3.85547 4.22539 3.85547 7.16634V17.833C3.85547 20.7738 6.24785 23.1663 9.1888 23.1663H16.8078C19.7487 23.1663 22.1412 20.774 22.1412 17.833V9.45205C22.1412 9.35301 22.1183 9.25396 22.0802 9.16253L22.0803 9.17014ZM15.2841 4.43877L19.5432 8.69788H16.046C15.6269 8.69788 15.2841 8.35503 15.2841 7.93597V4.43877ZM20.6174 17.8407C20.6174 19.9436 18.9108 21.6503 16.8079 21.6503H9.18885C7.08599 21.6503 5.37933 19.9436 5.37933 17.8407V7.17407C5.37933 5.07121 7.08599 3.36455 9.18885 3.36455H13.7603V7.93597C13.7603 9.1931 14.7889 10.2217 16.046 10.2217H20.6174V17.8407ZM8.59469 12.8197H17.3567C17.7758 12.8197 18.1186 13.1626 18.1186 13.5816C18.1186 14.0007 17.7758 14.3435 17.3567 14.3435H8.59469C8.17563 14.3435 7.83278 14.0007 7.83278 13.5816C7.83278 13.1626 8.17563 12.8197 8.59469 12.8197ZM15.2843 17.2768C15.2843 17.6959 14.9415 18.0387 14.5224 18.0387H8.61761C8.19855 18.0387 7.8557 17.6959 7.8557 17.2768C7.8557 16.8577 8.19855 16.5149 8.61761 16.5149H14.5224C14.9415 16.5149 15.2843 16.8577 15.2843 17.2768Z" fill="#231F20" />
</svg>
