<svg width="18" height="18" viewBox="0 0 18 18" fill="none" xmlns="http://www.w3.org/2000/svg">
  <g clip-path="url(#clip0_1095_13732)">
    <circle cx="4.125" cy="13.625" r="3.625" stroke="#231F20" />
    <path d="M4.62754 12.2238H3.25752L3.32602 12.1476C3.46302 11.9952 3.46302 11.7667 3.32602 11.6143C3.18902 11.4619 2.98352 11.4619 2.84652 11.6143L2.19575 12.3381C2.1615 12.3762 2.12725 12.4143 2.12725 12.4524C2.093 12.5286 2.093 12.6429 2.12725 12.7571C2.1615 12.7952 2.1615 12.8333 2.19575 12.8714L2.84652 13.5952C2.91502 13.6714 3.01777 13.7095 3.08628 13.7095C3.15479 13.7095 3.25753 13.6714 3.32604 13.5952C3.46305 13.4429 3.46305 13.2143 3.32604 13.0619L3.25754 12.9857H4.62756C5.0728 12.9857 5.41532 13.3667 5.41532 13.8619C5.41532 14.3572 5.07282 14.7381 4.62756 14.7381H2.98354C2.77804 14.7381 2.64104 14.8905 2.64104 15.1191C2.64104 15.3476 2.77804 15.5 2.98354 15.5H4.62756C5.44956 15.5 6.10033 14.7762 6.10033 13.8619C6.13458 12.9476 5.44954 12.2238 4.62754 12.2238Z" fill="#231F20" />
    <path d="M2.24249 6.46272C2.10749 6.46272 2 6.35522 2 6.22023V4.5928C2 3.98283 2.49497 3.48535 3.10493 3.48535H5.72978C5.86477 3.48535 5.97227 3.59285 5.97227 3.72784C5.97227 3.86283 5.86477 3.97033 5.72978 3.97033H3.10493C2.76245 3.97033 2.48497 4.25032 2.48497 4.5928V6.22023C2.48497 6.35272 2.37748 6.46272 2.24249 6.46272Z" fill="#231F20" stroke="#231F20" stroke-width="0.6" />
    <path d="M15.4357 6.09023C15.3007 6.09023 15.1932 5.98274 15.1932 5.84774V4.5928C15.1932 4.25032 14.9132 3.97033 14.5707 3.97033H13.7933C13.6583 3.97033 13.5508 3.86283 13.5508 3.72784C13.5508 3.59285 13.6583 3.48535 13.7933 3.48535H14.5707C15.1807 3.48535 15.6782 3.98283 15.6782 4.5928V5.84774C15.6782 5.98274 15.5707 6.09023 15.4357 6.09023Z" fill="#231F20" stroke="#231F20" stroke-width="0.6" />
    <path d="M13.4535 6.09062C13.3836 6.09062 13.3161 6.06062 13.2686 6.00562C13.1811 5.90313 13.1961 5.75063 13.2961 5.66314L14.3535 4.76818L11.3037 1.16584L10.3187 2.0008C10.2162 2.0883 10.0637 2.0758 9.97625 1.9733C9.88876 1.87081 9.90126 1.71831 10.0038 1.63082L11.1737 0.638364C11.2762 0.550867 11.4287 0.563367 11.5162 0.665862L14.881 4.63818C14.9685 4.74068 14.9535 4.89317 14.8535 4.98067L13.611 6.03312C13.5635 6.07312 13.5085 6.09062 13.4535 6.09062Z" fill="#231F20" stroke="#231F20" stroke-width="0.6" />
    <path d="M3.22765 6.0905C3.15765 6.0905 3.09016 6.0605 3.04266 6.0055C2.95516 5.90301 2.96766 5.75051 3.07016 5.66302L9.0973 0.55825C9.1473 0.515752 9.2098 0.495753 9.27479 0.500752C9.33979 0.505752 9.39728 0.535751 9.43978 0.585749L12.8046 4.55807C12.8471 4.60807 12.8671 4.67056 12.8621 4.73556C12.8571 4.80056 12.8271 4.85806 12.7771 4.90055L11.4397 6.033C11.3372 6.118 11.1847 6.1055 11.0972 6.0055C11.0097 5.90301 11.0247 5.75051 11.1247 5.66302L12.2771 4.68806L9.22479 1.08573L3.38264 6.033C3.33764 6.073 3.28265 6.0905 3.22765 6.0905Z" fill="#231F20" stroke="#231F20" stroke-width="0.6" />
    <path d="M17.3249 12.9994H12.9902C12.4452 12.9994 11.9303 12.7869 11.5453 12.4019C11.1578 12.0144 10.9453 11.5019 10.9453 10.957C10.9453 9.82951 11.8628 8.91455 12.9877 8.91455H17.3249C17.3449 8.91455 17.3824 8.91455 17.4274 8.92955C17.5549 8.97205 17.6224 9.10954 17.5799 9.23704C17.5424 9.34953 17.4274 9.41703 17.3149 9.39953H12.9902C12.1302 9.39953 11.4328 10.0995 11.4328 10.957C11.4328 11.3719 11.5953 11.7644 11.8903 12.0594C12.1827 12.3519 12.5752 12.5144 12.9927 12.5144H17.3224C17.4349 12.4969 17.5499 12.5644 17.5874 12.6769C17.6299 12.8044 17.5599 12.9419 17.4349 12.9844C17.3849 12.9994 17.3474 12.9994 17.3249 12.9994Z" fill="#231F20" stroke="#231F20" stroke-width="0.6" />
    <path fill-rule="evenodd" clip-rule="evenodd" d="M8.6586 16.5H16.6166C17.1566 16.5 17.5941 16.0625 17.5941 15.5225V6.58292C17.5941 6.04295 17.1541 5.60547 16.6166 5.60547H2.24249C2.10749 5.60547 2 5.71296 2 5.84796V8.58296C2.15961 8.55618 2.32135 8.53571 2.48497 8.5218V6.09045H16.6166C16.8891 6.09045 17.1091 6.31044 17.1091 6.58292V15.5225C17.1091 15.795 16.8891 16.015 16.6166 16.015H8.80709C8.76429 16.1795 8.71469 16.3413 8.6586 16.5Z" fill="#231F20" />
    <path d="M8.6586 16.5L8.37574 16.4L8.23438 16.8H8.6586V16.5ZM2 8.58296H1.7V8.93748L2.04964 8.87882L2 8.58296ZM2.48497 8.5218L2.51038 8.82072L2.78497 8.79737V8.5218H2.48497ZM2.48497 6.09045V5.79045H2.18497V6.09045H2.48497ZM8.80709 16.015V15.715H8.57515L8.51676 15.9395L8.80709 16.015ZM16.6166 16.2H8.6586V16.8H16.6166V16.2ZM17.2941 15.5225C17.2941 15.8968 16.9909 16.2 16.6166 16.2V16.8C17.3223 16.8 17.8941 16.2282 17.8941 15.5225H17.2941ZM17.2941 6.58292V15.5225H17.8941V6.58292H17.2941ZM16.6166 5.90547C16.9889 5.90547 17.2941 6.20913 17.2941 6.58292H17.8941C17.8941 5.87677 17.3193 5.30547 16.6166 5.30547V5.90547ZM2.24249 5.90547H16.6166V5.30547H2.24249V5.90547ZM2.3 5.84796C2.3 5.87865 2.27318 5.90547 2.24249 5.90547V5.30547C1.9418 5.30547 1.7 5.54728 1.7 5.84796H2.3ZM2.3 8.58296V5.84796H1.7V8.58296H2.3ZM2.04964 8.87882C2.20124 8.85339 2.3549 8.83394 2.51038 8.82072L2.45956 8.22287C2.28781 8.23748 2.11798 8.25897 1.95036 8.28709L2.04964 8.87882ZM2.18497 6.09045V8.5218H2.78497V6.09045H2.18497ZM16.6166 5.79045H2.48497V6.39045H16.6166V5.79045ZM17.4091 6.58292C17.4091 6.14476 17.0548 5.79045 16.6166 5.79045V6.39045C16.7234 6.39045 16.8091 6.47612 16.8091 6.58292H17.4091ZM17.4091 15.5225V6.58292H16.8091V15.5225H17.4091ZM16.6166 16.315C17.0548 16.315 17.4091 15.9607 17.4091 15.5225H16.8091C16.8091 15.6293 16.7234 15.715 16.6166 15.715V16.315ZM8.80709 16.315H16.6166V15.715H8.80709V16.315ZM8.51676 15.9395C8.47611 16.0957 8.42901 16.2493 8.37574 16.4L8.94145 16.5999C9.00037 16.4333 9.05247 16.2633 9.09743 16.0905L8.51676 15.9395Z" fill="#231F20" />
  </g>
  <defs>
    <clipPath id="clip0_1095_13732">
      <rect width="18" height="18" fill="white" />
    </clipPath>
  </defs>
</svg>
