<svg width="18" height="18" viewBox="0 0 18 18" fill="none" xmlns="http://www.w3.org/2000/svg">
  <path d="M17.5 8.50538C17.2238 8.50538 17 8.72905 17 9.0051C17 13.4138 13.4112 17.0006 9 17.0006C4.5888 17.0006 1 13.4138 1 9.0051C1 4.5964 4.5888 1.00963 9 1.00963C10.8352 1.00963 12.5752 1.62468 13.9874 2.75464L12.4662 3.16201C12.1994 3.23337 12.0412 3.50761 12.1126 3.77406C12.1724 3.99733 12.3746 4.14465 12.5954 4.14465C12.6382 4.14465 12.6818 4.13905 12.725 4.12766L15.1398 3.48103C15.3534 3.42386 15.5104 3.21918 15.5104 2.9983V0.499717C15.5104 0.223673 15.2866 0 15.0104 0C14.7342 0 14.5104 0.223673 14.5104 0.499717V1.89513C12.94 0.674018 11.0216 0.0101942 9 0.0101942C4.0374 0.0101942 0 4.04531 0 9.0051C0 13.9649 4.0374 18 9 18C13.9626 18 18 13.9649 18 9.0051C18 8.72905 17.7762 8.50538 17.5 8.50538Z" fill="#231F20" />
  <path d="M8.99995 4.94824C4.82435 4.94824 3.11455 8.64255 3.04395 8.79986C2.98535 8.93019 2.98535 9.0793 3.04395 9.20963C3.11475 9.36694 4.82435 13.0612 8.99995 13.0612C13.1756 13.0612 14.8854 9.36694 14.956 9.20963C15.0146 9.0793 15.0146 8.93019 14.956 8.79986C14.8854 8.64255 13.1756 4.94824 8.99995 4.94824ZM8.99995 12.0618C5.96015 12.0618 4.45295 9.72573 4.06015 9.00494C4.45355 8.28275 5.96095 5.94768 8.99995 5.94768C12.0388 5.94768 13.5462 8.28255 13.9397 9.00474C13.5462 9.72693 12.0388 12.0618 8.99995 12.0618Z" fill="#231F20" />
  <path d="M9 7.00635C7.8972 7.00635 7 7.90304 7 9.00521C7 10.1074 7.8972 11.0041 9 11.0041C10.1028 11.0041 11 10.1074 11 9.00521C11 7.90304 10.1028 7.00635 9 7.00635ZM9 10.0046C8.4486 10.0046 8 9.5563 8 9.00521C8 8.45413 8.4486 8.00578 9 8.00578C9.5514 8.00578 10 8.45413 10 9.00521C10 9.5563 9.5514 10.0046 9 10.0046Z" fill="#231F20" />
</svg>
