<svg width="18" height="18" viewBox="0 0 18 18" fill="none" xmlns="http://www.w3.org/2000/svg">
  <path d="M15.8073 15.7819L15.0906 3.75532H12.1107V3.57447C12.1107 1.87447 10.6773 0.5 8.90445 0.5C7.13158 0.5 5.69819 1.87447 5.69819 3.57447V3.75532H2.71826L2.00157 15.7819C1.98271 16.234 2.13359 16.6681 2.45422 16.9936C2.77485 17.3191 3.22749 17.5 3.68014 17.5H14.1099C14.5814 17.5 15.0152 17.3191 15.3358 16.9936C15.6753 16.6681 15.845 16.216 15.8073 15.7819ZM6.82981 3.57447C6.82981 2.47128 7.75397 1.58511 8.90445 1.58511C10.0549 1.58511 10.9791 2.47128 10.9791 3.57447V3.75532H6.82981V3.57447ZM14.5248 16.2521C14.4117 16.3606 14.2796 16.4149 14.1099 16.4149H3.699C3.54812 16.4149 3.39724 16.3606 3.28407 16.2521C3.17091 16.1436 3.11433 15.9989 3.13319 15.8543L3.77444 4.84043H5.69819V5.74468C5.58503 5.87128 5.50959 6.03404 5.50959 6.21489C5.50959 6.61277 5.84908 6.9383 6.264 6.9383C6.67893 6.9383 7.01842 6.61277 7.01842 6.21489C7.01842 6.03404 6.94298 5.87128 6.82981 5.74468V4.84043H10.9791V5.74468C10.8659 5.87128 10.7905 6.03404 10.7905 6.21489C10.7905 6.61277 11.13 6.9383 11.5449 6.9383C11.9598 6.9383 12.2993 6.61277 12.2993 6.21489C12.2993 6.03404 12.2239 5.87128 12.1107 5.74468V4.84043H14.0345L14.6946 15.8362C14.6946 15.9989 14.638 16.1436 14.5248 16.2521Z" fill="#231F20" stroke="#231F20" stroke-width="0.1" />
</svg>
