<svg width="32" height="32" viewBox="0 0 32 32" fill="none" xmlns="http://www.w3.org/2000/svg">
  <rect width="32" height="32" rx="16" fill="white" />
  <g clip-path="url(#clip0_828_8711)">
    <path d="M15.9055 10.5557L15.9056 10.5559L15.9055 10.5557ZM15.0352 13.6031L16 10.8274L16.9648 13.6031C17.1159 14.0377 17.5214 14.3323 17.9814 14.3417L20.9194 14.4016L18.5777 16.1769C18.2111 16.4549 18.0562 16.9316 18.1894 17.372L19.0404 20.1847L16.6283 18.5062C16.2507 18.2434 15.7493 18.2434 15.3717 18.5062L12.9596 20.1847L13.8106 17.372C13.9438 16.9316 13.7889 16.4549 13.4223 16.1769L11.0806 14.4016L14.0186 14.3417C14.4786 14.3323 14.8841 14.0377 15.0352 13.6031ZM19.1237 20.4601C19.1237 20.46 19.1236 20.46 19.1236 20.4599L19.1237 20.4601ZM12.7235 20.349C12.7235 20.349 12.7236 20.349 12.7236 20.349L12.7235 20.349Z" stroke="#231F20" stroke-width="1.2" />
    <circle cx="16" cy="16" r="8.4" stroke="#231F20" stroke-width="1.2" />
  </g>
  <defs>
    <clipPath id="clip0_828_8711">
      <rect width="18" height="18" fill="white" transform="translate(7 7)" />
    </clipPath>
  </defs>
</svg>
