<svg width="19" height="18" viewBox="0 0 19 18" fill="none" xmlns="http://www.w3.org/2000/svg">
  <path d="M16.0985 8.9514C16.0985 7.2017 16.0208 7.12394 14.2905 7.06561C14.2905 6.28797 14.2905 5.31592 14.2711 4.71324C14.1739 2.4192 12.7547 1.03888 10.4801 1C10.0912 1 9.70243 1 9.29417 1C6.76683 1.01944 5.2893 2.55529 5.32819 5.06318V5.08262V7.08505C5.1921 7.08505 5.05601 7.08505 4.90048 7.08505C3.7729 7.08505 3.52017 7.35723 3.52017 8.48481C3.52017 10.8761 3.53961 13.2673 3.50073 15.6586C3.48129 16.5723 3.85067 17 4.7644 17C8.14714 17 11.5104 17 14.8932 17C15.7486 17 16.1374 16.6112 16.118 15.7363C16.0791 13.4812 16.0985 11.226 16.0985 8.9514ZM10.4995 12.4313V13.5589C10.4995 13.9478 10.1885 14.2394 9.81907 14.2394C9.44969 14.2394 9.1192 13.9283 9.1192 13.5589V12.4313C8.5554 12.1786 8.14714 11.5954 8.14714 10.9149C8.14714 10.0012 8.8859 9.26245 9.79963 9.26245C10.7134 9.26245 11.4521 10.0012 11.4521 10.9149C11.4716 11.5954 11.0633 12.1786 10.4995 12.4313ZM12.1714 7.06561C10.5967 7.06561 9.04143 7.08505 7.4667 7.08505V5.43256C7.48615 5.31592 7.48615 5.19927 7.48615 5.10207C7.4667 3.68287 8.26379 3.09964 10.0135 3.13852C11.4521 3.15796 12.1714 3.8384 12.1714 5.19927C12.1714 5.82138 12.1714 6.4435 12.1714 7.06561Z" fill="white" />
</svg>
