<svg width="18" height="18" viewBox="0 0 18 18" fill="none" xmlns="http://www.w3.org/2000/svg">
  <path d="M4.33356 2C3.79709 2 3.30985 2.31711 3.0919 2.8072L2.29952 4.58962C2.10265 5.03401 2 5.51423 2 6.00009V15.0001C2 15.5486 2.45138 16 2.9998 16H14.9995C15.5479 16 15.9993 15.5486 15.9993 15.0001L16 6.00009C16 5.51423 15.8981 5.03329 15.7005 4.58962L14.9088 2.8079C14.6908 2.31781 14.2029 2 13.6664 2H4.33356ZM4.33356 2.66656L8.66668 2.66727V5.33344H2.75017C2.78954 5.17172 2.84087 5.01353 2.90907 4.86024L3.70074 3.07851C3.81254 2.8275 4.05936 2.66656 4.33356 2.66656ZM9.33319 2.66656H13.6663C13.9405 2.66656 14.1873 2.82687 14.2991 3.0779L15.0915 4.85962C15.1597 5.0122 15.2103 5.17112 15.2497 5.33283L9.33316 5.33353L9.33319 2.66656ZM2.66719 6.00018H15.3327V15.0002C15.3327 15.188 15.1871 15.3335 14.9994 15.3335H3.00043C2.8127 15.3335 2.66716 15.188 2.66716 15.0002L2.66719 6.00018Z" fill="#231F20" stroke="#231F20" stroke-width="0.6" />
  <mask id="path-2-inside-1_1583_17664" fill="white">
    <rect x="4" y="10" width="6" height="4" rx="1" />
  </mask>
  <rect x="4" y="10" width="6" height="4" rx="1" stroke="#231F20" stroke-width="2.4" mask="url(#path-2-inside-1_1583_17664)" />
  <circle cx="14" cy="14" r="4" fill="#90EDB5" />
  <circle cx="14" cy="14" r="3.5" stroke="#231F20" />
  <path d="M12.1338 14.2665L13.2005 15.3332L15.8671 12.6665" stroke="#231F20" />
</svg>
