<svg width="42" height="42" viewBox="0 0 42 42" fill="none" xmlns="http://www.w3.org/2000/svg">
  <rect x="0.5" y="0.5" width="41" height="41" rx="20.5" stroke="#231F20" />
  <g clip-path="url(#clip0_724_10828)">
    <path fill-rule="evenodd" clip-rule="evenodd" d="M21.0059 13.1421C23.6793 13.1421 23.9959 13.1533 25.0473 13.1983C26.0244 13.2395 26.5521 13.3967 26.9038 13.5278C27.369 13.7 27.7051 13.9097 28.053 14.2429C28.4047 14.5799 28.6197 14.8981 28.7995 15.3437C28.9363 15.6807 29.1004 16.1899 29.1434 17.1222C29.1903 18.1331 29.2021 18.4364 29.2021 20.9937C29.2021 23.5548 29.1903 23.8581 29.1434 24.8653C29.1004 25.8013 28.9363 26.3068 28.7995 26.6438C28.6197 27.0893 28.4008 27.4113 28.053 27.7446C27.7012 28.0815 27.369 28.2875 26.9038 28.4597C26.5521 28.5908 26.0205 28.748 25.0473 28.7892C23.992 28.8341 23.6754 28.8454 21.0059 28.8454C18.3324 28.8454 18.0158 28.8341 16.9644 28.7892C15.9873 28.748 15.4596 28.5908 15.1079 28.4597C14.6428 28.2875 14.3066 28.0778 13.9588 27.7446C13.607 27.4076 13.392 27.0893 13.2122 26.6438C13.0754 26.3068 12.9113 25.7976 12.8683 24.8653C12.8214 23.8543 12.8097 23.551 12.8097 20.9937C12.8097 18.4327 12.8214 18.1294 12.8683 17.1222C12.9113 16.1862 13.0754 15.6807 13.2122 15.3437C13.392 14.8981 13.6109 14.5761 13.9588 14.2429C14.3105 13.9059 14.6428 13.7 15.1079 13.5278C15.4596 13.3967 15.9912 13.2395 16.9644 13.1983C18.0158 13.1533 18.3324 13.1421 21.0059 13.1421ZM21.0059 11.416C18.2894 11.416 17.9494 11.4272 16.8824 11.4722C15.8192 11.5171 15.0883 11.6819 14.4551 11.9177C13.7946 12.1649 13.2357 12.4906 12.6807 13.026C12.1218 13.5577 11.7817 14.0931 11.5237 14.7222C11.2775 15.3325 11.1055 16.0289 11.0586 17.0473C11.0117 18.0732 11 18.399 11 21.0012C11 23.6035 11.0117 23.9292 11.0586 24.9514C11.1055 25.9698 11.2775 26.67 11.5237 27.2765C11.7817 27.9093 12.1218 28.4447 12.6807 28.9764C13.2357 29.5081 13.7946 29.8376 14.4512 30.081C15.0883 30.3168 15.8153 30.4816 16.8784 30.5265C17.9455 30.5715 18.2855 30.5827 21.002 30.5827C23.7184 30.5827 24.0584 30.5715 25.1255 30.5265C26.1886 30.4816 26.9195 30.3168 27.5527 30.081C28.2093 29.8376 28.7682 29.5081 29.3232 28.9764C29.8782 28.4447 30.2222 27.9093 30.4763 27.2803C30.7225 26.67 30.8945 25.9735 30.9414 24.9551C30.9883 23.9329 31 23.6072 31 21.005C31 18.4027 30.9883 18.077 30.9414 17.0548C30.8945 16.0364 30.7225 15.3362 30.4763 14.7297C30.23 14.0931 29.89 13.5577 29.3311 13.026C28.776 12.4944 28.2171 12.1649 27.5605 11.9215C26.9234 11.6856 26.1964 11.5209 25.1333 11.4759C24.0623 11.4272 23.7223 11.416 21.0059 11.416ZM21.0059 16.0776C18.1683 16.0776 15.8661 18.2829 15.8661 21.0012C15.8661 23.7195 18.1683 25.9249 21.0059 25.9249C23.8435 25.9249 26.1456 23.7195 26.1456 21.0012C26.1456 18.2829 23.8435 16.0776 21.0059 16.0776ZM21.0059 24.195C19.1649 24.195 17.6719 22.7648 17.6719 21.0012C17.6719 19.2377 19.1649 17.8074 21.0059 17.8074C22.8468 17.8074 24.3398 19.2377 24.3398 21.0012C24.3398 22.7648 22.8468 24.195 21.0059 24.195ZM26.3488 17.0323C27.0094 17.0323 27.5488 16.5194 27.5488 15.8828C27.5488 15.2501 27.0094 14.7334 26.3488 14.7334C25.6883 14.7334 25.1489 15.2463 25.1489 15.8828C25.1489 16.5156 25.6844 17.0323 26.3488 17.0323Z" fill="#231F20" />
  </g>
  <defs>
    <clipPath id="clip0_724_10828">
      <rect width="20" height="19.1667" fill="white" transform="translate(11 11.416)" />
    </clipPath>
  </defs>
</svg>
