<svg width="14" height="15" viewBox="0 0 14 15" fill="none" xmlns="http://www.w3.org/2000/svg">
  <path d="M7.28588 5.49414H3.27404C2.81819 5.49464 2.38115 5.67595 2.05882 5.99829C1.73649 6.32063 1.55518 6.75766 1.55469 7.21351V11.2253C1.55518 11.6812 1.73649 12.1182 2.05882 12.4406C2.38115 12.7629 2.81819 12.9442 3.27404 12.9447H7.28588C7.74173 12.9442 8.17876 12.7629 8.5011 12.4406C8.82343 12.1182 9.00473 11.6812 9.00523 11.2253V7.21351C9.00473 6.75766 8.82343 6.32062 8.5011 5.99829C8.17876 5.67595 7.74173 5.49464 7.28588 5.49414ZM7.859 11.2253C7.85885 11.3773 7.79842 11.523 7.69097 11.6304C7.58352 11.7379 7.43783 11.7983 7.28588 11.7985H3.27404C3.12208 11.7983 2.97639 11.7379 2.86895 11.6304C2.7615 11.523 2.70107 11.3773 2.70092 11.2253V7.21351C2.70107 7.06156 2.7615 6.91587 2.86895 6.80842C2.9764 6.70098 3.12208 6.64055 3.27404 6.6404H7.28588C7.43783 6.64054 7.58352 6.70097 7.69097 6.80842C7.79842 6.91587 7.85885 7.06156 7.859 7.21351V11.2253Z" fill="#231F20" />
  <path d="M10.7234 2.05566H6.71154C6.25569 2.05616 5.81865 2.23746 5.49632 2.5598C5.17399 2.88213 4.99268 3.31917 4.99219 3.77501V4.34813C4.99219 4.4234 5.00701 4.49792 5.03581 4.56745C5.06461 4.63699 5.10683 4.70017 5.16005 4.75339C5.21327 4.80661 5.27645 4.84882 5.34598 4.87762C5.41551 4.90642 5.49004 4.92125 5.5653 4.92125C5.64057 4.92125 5.71509 4.90642 5.78462 4.87762C5.85416 4.84882 5.91734 4.80661 5.97056 4.75339C6.02378 4.70017 6.06599 4.63699 6.09479 4.56745C6.12359 4.49792 6.13842 4.4234 6.13842 4.34813V3.77501C6.13857 3.62306 6.199 3.47737 6.30645 3.36992C6.4139 3.26248 6.55958 3.20205 6.71154 3.2019H10.7234C10.8753 3.20205 11.021 3.26248 11.1285 3.36993C11.2359 3.47738 11.2963 3.62306 11.2965 3.77501V7.78685C11.2963 7.93881 11.2359 8.08449 11.1285 8.19194C11.021 8.29939 10.8753 8.35982 10.7234 8.35997H10.1503C9.99826 8.35997 9.85248 8.42035 9.745 8.52783C9.63752 8.63531 9.57714 8.78109 9.57714 8.93309C9.57714 9.08509 9.63752 9.23086 9.745 9.33834C9.85248 9.44582 9.99826 9.5062 10.1503 9.5062H10.7234C11.1792 9.50571 11.6163 9.3244 11.9386 9.00207C12.2609 8.67974 12.4422 8.2427 12.4427 7.78685V3.77501C12.4422 3.31917 12.2609 2.88213 11.9386 2.5598C11.6163 2.23746 11.1792 2.05616 10.7234 2.05566Z" fill="#231F20" />
</svg>
