<svg width="14" height="14" viewBox="0 0 14 14" fill="none" xmlns="http://www.w3.org/2000/svg">
  <g clip-path="url(#clip0_184_4707)">
    <path d="M6.52772 1.35869C6.68337 0.910914 7.31663 0.910914 7.47228 1.35869L8.53156 4.40611C8.60023 4.60364 8.78457 4.73758 8.99366 4.74184L12.2193 4.80757C12.6932 4.81723 12.8889 5.4195 12.5111 5.70591L9.94022 7.65505C9.77357 7.78139 9.70315 7.9981 9.76371 8.19827L10.698 11.2863C10.8352 11.7401 10.3229 12.1123 9.93379 11.8415L7.28559 9.99873C7.11393 9.87928 6.88607 9.87928 6.71441 9.99873L4.06621 11.8415C3.67709 12.1123 3.16476 11.7401 3.30204 11.2863L4.23629 8.19827C4.29685 7.9981 4.22643 7.78139 4.05979 7.65505L1.48886 5.70591C1.11109 5.41951 1.30678 4.81723 1.78074 4.80757L5.00634 4.74184C5.21543 4.73758 5.39977 4.60365 5.46844 4.40611L6.52772 1.35869Z" fill="#07285F" />
  </g>
  <defs>
    <clipPath id="clip0_184_4707">
      <rect width="14" height="14" fill="white" />
    </clipPath>
  </defs>
</svg>
