<svg width="14" height="15" viewBox="0 0 14 15" fill="none" xmlns="http://www.w3.org/2000/svg">
  <path d="M1.74828 13.7223C1.77868 13.7223 1.8103 13.7211 1.84131 13.7174L4.14822 13.4973C4.48448 13.4657 4.80188 13.3161 5.04085 13.0772L12.7959 5.32365C13.3638 4.75454 13.3638 3.82911 12.7953 3.26122L11.2387 1.70466C10.6708 1.13556 9.7441 1.13556 9.17618 1.70466L1.42235 9.4577C1.18277 9.69666 1.0338 10.014 1.00219 10.3503L0.782065 12.6571C0.753487 12.9471 0.85564 13.2317 1.06177 13.4372C1.24541 13.6208 1.49167 13.7223 1.74828 13.7223ZM8.4405 3.81512L10.6842 6.05874L5.47919 11.2623L3.2361 9.01931L8.4405 3.81512ZM9.86456 2.39173C9.9588 2.29688 10.0834 2.24945 10.2075 2.24945C10.3321 2.24945 10.4568 2.29688 10.551 2.39173L12.1077 3.94829C12.2968 4.13738 12.2968 4.44565 12.1077 4.63537L11.3719 5.37109L9.1282 3.12747L9.86456 2.39173ZM1.96954 10.4427C1.98048 10.3314 2.02974 10.2256 2.10939 10.146L2.5478 9.7076L4.79089 11.9506L4.35248 12.389C4.27282 12.4686 4.16702 12.5185 4.05576 12.5288L1.74885 12.7489L1.96954 10.4427Z" fill="#231F20" />
</svg>
