<svg width="18" height="18" viewBox="0 0 18 18" fill="none" xmlns="http://www.w3.org/2000/svg">
  <path d="M9.66667 2.37827V5.86957H13.6699C14.4045 5.86957 15 6.49184 15 7.25674V15.6128C15 16.3789 14.4049 17 13.6699 17H4.33006C3.59549 17 3 16.3777 3 15.6128V7.25674C3 6.49062 3.59508 5.86957 4.33006 5.86957H8.33333V2.37602L7.58036 3.16173C7.32241 3.4309 6.90406 3.43076 6.6419 3.1572C6.38155 2.88553 6.38308 2.44346 6.63755 2.17793L8.53186 0.201258C8.66012 0.0674199 8.82804 0.000164883 8.9967 0L9.00179 0.00207675C9.1711 0.00245364 9.33945 0.0692304 9.46598 0.201258L11.3603 2.17793C11.6182 2.4471 11.6181 2.88363 11.3559 3.1572C11.0956 3.42887 10.6719 3.42726 10.4175 3.16173L9.66667 2.37827ZM8.33333 7.26087L4.33333 7.26087V15.6087H13.6667V7.26087L9.66667 7.26087V10.0445C9.66667 10.4281 9.37076 10.7391 9 10.7391C8.63181 10.7391 8.33333 10.4278 8.33333 10.0445V7.26087ZM6.33333 5.86957V7.26087H11.6667V5.86957H6.33333ZM8.33333 5.86957H9.66667V7.26087H8.33333V5.86957Z" fill="#231F20" />
</svg>
