<svg width="18" height="18" viewBox="0 0 18 18" fill="none" xmlns="http://www.w3.org/2000/svg">
  <g clip-path="url(#clip0_724_10206)">
    <path d="M12.4393 17C9.90842 16.9993 7.34074 15.7165 4.80912 13.1861C-0.571623 7.80879 1.12414 3.58849 1.77048 2.42227C2.28175 1.50838 3.85871 1.14721 4.75538 1.01009C5.13795 0.952129 5.52052 1.14791 5.69872 1.49495L7.55784 5.11447C7.73816 5.46363 7.67027 5.89195 7.39166 6.17043L5.57144 7.98973C5.81682 8.56223 6.59257 9.65565 7.42843 10.5681C8.33995 11.4022 9.43463 12.1789 10.0088 12.4242L11.8283 10.6056C12.1077 10.3264 12.5348 10.2586 12.8863 10.4395L16.5076 12.297C16.8527 12.4751 17.0479 12.8553 16.9899 13.2398C16.8548 14.136 16.4927 15.7136 15.5784 16.2211C14.6626 16.7314 13.5779 17 12.4393 17Z" stroke="#231F20" stroke-width="1.2" />
  </g>
  <defs>
    <clipPath id="clip0_724_10206">
      <rect width="18" height="18" fill="white" />
    </clipPath>
  </defs>
</svg>
