<svg width="25" height="24" viewBox="0 0 25 24" fill="none" xmlns="http://www.w3.org/2000/svg">
  <path fill-rule="evenodd" clip-rule="evenodd" d="M1.5 10.9428C1.5 6.01172 6.43502 2 12.4999 2C18.5656 2 23.5 6.01172 23.5 10.9428C23.5 12.9163 22.7364 14.6936 21.1427 16.4449C18.8349 19.1061 13.674 22.3474 12.4999 22.843C11.3589 23.3247 11.4907 22.5718 11.5429 22.2734C11.5444 22.2649 11.5458 22.2567 11.5472 22.2489C11.575 22.0833 11.7041 21.3057 11.7041 21.3057C11.7412 21.0243 11.7796 20.5878 11.6686 20.3092C11.5453 20.0024 11.0577 19.8432 10.6995 19.7658C5.41335 19.0657 1.5 15.3635 1.5 10.9428ZM6.79396 12.5629H8.70508C8.81292 12.5629 8.9 12.6511 8.9 12.7599V13.4692C8.9 13.578 8.81292 13.6664 8.70508 13.6664H5.89511C5.84263 13.6664 5.79534 13.6455 5.76017 13.6113L5.75728 13.6086C5.75613 13.6077 5.75536 13.6067 5.75459 13.6057C5.72095 13.5704 5.7 13.5226 5.7 13.4696V13.4692V9.06338C5.7 8.95462 5.78746 8.86641 5.8953 8.86641H6.59885C6.7065 8.86641 6.79396 8.95462 6.79396 9.06338V12.5629ZM9.62379 8.86641C9.51866 8.86641 9.4332 8.95462 9.4332 9.063V13.4698C9.4332 13.5784 9.51866 13.6664 9.62379 13.6664H10.3095C10.4146 13.6664 10.4999 13.5784 10.4999 13.4698V9.063C10.4999 8.95462 10.4146 8.86641 10.3095 8.86641H9.62379ZM15.0994 8.86641H14.3776C14.2669 8.86641 14.1772 8.95462 14.1772 9.063V11.6811L12.1224 8.95385C12.1176 8.94687 12.1123 8.94028 12.1068 8.93388L12.1054 8.93271C12.1014 8.92826 12.0975 8.92438 12.0934 8.9205L12.0896 8.9172C12.0863 8.9141 12.0827 8.91119 12.079 8.90848C12.0778 8.90735 12.0765 8.90642 12.0753 8.90547L12.0752 8.90546L12.0738 8.90441L12.0698 8.90166L12.0698 8.90165C12.0676 8.90019 12.0655 8.89874 12.0634 8.89743C12.0614 8.89607 12.0594 8.89491 12.0573 8.89394C12.0562 8.89329 12.0551 8.89264 12.054 8.892C12.0515 8.89054 12.0491 8.88914 12.0466 8.88793L12.0442 8.88679C12.0429 8.88614 12.0416 8.88551 12.0403 8.88502L12.0403 8.88501C12.0365 8.88327 12.0328 8.88153 12.0289 8.88017L12.0223 8.87785L12.0223 8.87784C12.0184 8.87649 12.0144 8.87513 12.0103 8.87416L12.0067 8.87314L12.0034 8.87223L11.992 8.8697C11.9892 8.86932 11.9862 8.86893 11.9835 8.86874C11.9808 8.86815 11.9782 8.8679 11.9755 8.86764L11.9728 8.86738C11.9706 8.86712 11.9683 8.86703 11.966 8.86694L11.9626 8.8668L11.959 8.8666L11.9555 8.86641H11.2338C11.1232 8.86641 11.0332 8.95462 11.0332 9.063V13.4698C11.0332 13.5784 11.1232 13.6664 11.2338 13.6664H11.9555C12.0663 13.6664 12.1561 13.5784 12.1561 13.4698V10.8525L14.2135 13.5832C14.2277 13.603 14.2452 13.6191 14.2644 13.6319L14.2663 13.6334C14.2705 13.636 14.2746 13.6385 14.2788 13.6408C14.2802 13.6417 14.2816 13.6423 14.283 13.643C14.2835 13.6432 14.284 13.6435 14.2845 13.6437C14.2875 13.6455 14.2908 13.647 14.294 13.6484L14.2978 13.65L14.3038 13.6524C14.3055 13.6531 14.3071 13.6537 14.3087 13.6543C14.3091 13.6544 14.3094 13.6545 14.3097 13.6546C14.3145 13.6563 14.3188 13.6577 14.3234 13.659C14.3237 13.659 14.3241 13.6591 14.3244 13.6592C14.3247 13.6592 14.325 13.6593 14.3253 13.6594L14.3263 13.6596C14.3427 13.6639 14.3599 13.6664 14.3776 13.6664H15.0994C15.2103 13.6664 15.2999 13.5784 15.2999 13.4698V9.063C15.2999 8.95462 15.2103 8.86641 15.0994 8.86641ZM18.8383 9.96991C18.9461 9.96991 19.0332 9.88189 19.0332 9.77294V9.06357C19.0332 8.95481 18.9461 8.86641 18.8383 8.86641H16.0285H16.0281C15.9755 8.86641 15.928 8.88773 15.8928 8.92205L15.8918 8.92293L15.8905 8.92418L15.8874 8.92767C15.854 8.96296 15.8332 9.01065 15.8332 9.06338V9.06357V13.4694V13.4696C15.8332 13.5226 15.8542 13.5704 15.8878 13.6057C15.8886 13.6067 15.8895 13.6079 15.8905 13.6086C15.8913 13.6096 15.8924 13.6106 15.8934 13.6113C15.9284 13.6453 15.9758 13.6664 16.0281 13.6664H18.8383C18.9461 13.6664 19.0332 13.578 19.0332 13.4694V12.7599C19.0332 12.6513 18.9461 12.5629 18.8383 12.5629H16.9274V11.8181H18.8383C18.9461 11.8181 19.0332 11.7299 19.0332 11.6211V10.9117C19.0332 10.803 18.9461 10.7146 18.8383 10.7146H16.9274V9.96991H18.8383Z" fill="white" />
</svg>
