<svg width="18" height="18" viewBox="0 0 18 18" fill="none" xmlns="http://www.w3.org/2000/svg">
  <g clip-path="url(#clip0_611_6311)">
    <path d="M8.56498 5.51143C8.68396 5.62889 8.83878 5.68762 8.99438 5.68762C9.14998 5.68762 9.30479 5.62889 9.42378 5.51143L10.9576 3.99365C11.1971 3.75645 11.1994 3.37052 10.9622 3.13026C10.7257 2.89076 10.3383 2.88847 10.0995 3.12568L9.60453 3.6161V0.610168C9.60453 0.273043 9.33149 0 8.99437 0C8.65724 0 8.3842 0.273043 8.3842 0.610168V3.61532L7.88919 3.12566C7.64893 2.88923 7.26301 2.89075 7.0258 3.13024C6.78937 3.36974 6.79089 3.75642 7.03037 3.99363L8.56498 5.51143Z" fill="#231F20" />
    <path d="M17.4509 9.2625L16.3511 7.54335C16.1261 7.19097 15.7417 6.98047 15.3229 6.98047L8.99555 6.98123H2.66816C2.24944 6.98123 1.86579 7.19173 1.64003 7.54411L0.540209 9.26326C0.299949 9.63928 0.283177 10.116 0.497497 10.5072C0.711827 10.8985 1.12139 11.1418 1.56759 11.1418H1.72547V16.7798C1.72547 17.4525 2.27309 18.0001 2.9458 18.0001H15.0439C15.7166 18.0001 16.2643 17.4525 16.2643 16.7798V11.1418H16.4221C16.8683 11.1418 17.2787 10.8985 17.493 10.5065C17.7073 10.1144 17.6912 9.63699 17.4509 9.2625ZM2.66805 8.2008H7.88034L6.78052 9.91996L1.56822 9.91919L2.66805 8.2008ZM2.94644 11.1404H6.77986C7.19858 11.1404 7.58223 10.9298 7.80798 10.5775L8.38535 9.67595V16.7775H2.94656L2.94644 11.1404ZM15.0446 16.7783H9.60576V9.67595L10.1824 10.5775C10.4074 10.9298 10.7918 11.1404 11.2105 11.1404H15.0447L15.0446 16.7783ZM11.2172 9.92001H11.2103L10.1105 8.20086H15.3228L16.4234 9.92001H11.2172Z" fill="#231F20" />
  </g>
  <defs>
    <clipPath id="clip0_611_6311">
      <rect width="18" height="18" fill="white" transform="translate(-0.00390625)" />
    </clipPath>
  </defs>
</svg>
