<svg width="12" height="12" viewBox="0 0 12 12" fill="none" xmlns="http://www.w3.org/2000/svg">
  <g clip-path="url(#clip0_299_264)">
    <path d="M12 5.96C11.9867 4.44 11.4133 2.92 10.24 1.76C9.10667 0.626667 7.6 0 6 0C4.4 0 2.89333 0.626667 1.76 1.76C0.6 2.92 0.0133333 4.44 0 5.96C0 5.97333 0 5.98667 0 6C0 6.01333 0 6.02667 0 6.04C0.0133333 7.56 0.586667 9.08 1.76 10.24C2.89333 11.3733 4.4 12 6 12C7.6 12 9.10667 11.3733 10.24 10.24C11.4 9.08 11.9867 7.56 12 6.04C12 6.02667 12 6.01333 12 6C12 5.98667 12 5.97333 12 5.96ZM9.98667 9.53333C9.62667 9.21333 9.24 8.94667 8.82667 8.72C9.01333 8 9.13333 7.18667 9.16 6.33333H11.32C11.2533 7.48 10.8 8.61333 9.98667 9.53333ZM0.68 6.33333H2.84C2.86667 7.2 2.98667 8 3.17333 8.72C2.76 8.93333 2.37333 9.21333 2.01333 9.53333C1.2 8.61333 0.746667 7.48 0.68 6.33333ZM2.01333 2.46667C2.37333 2.78667 2.76 3.05333 3.17333 3.28C2.97333 4 2.86667 4.8 2.84 5.66667H0.68C0.746667 4.52 1.2 3.38667 2.01333 2.46667ZM5.66667 3.30667C5.09333 3.26667 4.52 3.14667 3.97333 2.92C4.37333 1.74667 4.97333 0.92 5.66667 0.72V3.30667ZM5.66667 3.97333V5.66667H3.50667C3.53333 4.92 3.62667 4.2 3.78667 3.56C4.38667 3.8 5.02667 3.93333 5.66667 3.97333ZM5.66667 6.33333V8.02667C5.02667 8.06667 4.38667 8.2 3.78667 8.44C3.62667 7.8 3.53333 7.08 3.50667 6.33333H5.66667ZM5.66667 8.69333V11.28C4.97333 11.08 4.37333 10.24 3.97333 9.08C4.52 8.85333 5.09333 8.73333 5.66667 8.69333ZM6.33333 8.69333C6.90667 8.73333 7.48 8.85333 8.02667 9.08C7.62667 10.2533 7.02667 11.08 6.33333 11.28V8.69333ZM6.33333 8.02667V6.33333H8.49333C8.46667 7.08 8.37333 7.8 8.21333 8.44C7.61333 8.2 6.97333 8.06667 6.33333 8.02667ZM6.33333 5.66667V3.97333C6.97333 3.93333 7.61333 3.8 8.21333 3.56C8.37333 4.2 8.46667 4.92 8.49333 5.66667H6.33333ZM6.33333 3.30667V0.72C7.02667 0.92 7.62667 1.76 8.02667 2.92C7.48 3.14667 6.90667 3.26667 6.33333 3.30667ZM7.73333 0.96C8.38667 1.18667 8.98667 1.53333 9.52 2C9.24 2.24 8.94667 2.45333 8.64 2.62667C8.4 1.96 8.09333 1.38667 7.73333 0.96ZM3.37333 2.62667C3.06667 2.45333 2.76 2.24 2.49333 2C3.02667 1.53333 3.62667 1.18667 4.28 0.96C3.90667 1.38667 3.6 1.96 3.37333 2.62667ZM3.37333 9.37333C3.61333 10.04 3.92 10.6 4.26667 11.04C3.61333 10.8133 3.01333 10.4667 2.48 10C2.76 9.76 3.05333 9.54667 3.37333 9.37333ZM8.62667 9.37333C8.93333 9.54667 9.24 9.76 9.50667 10C8.97333 10.4667 8.37333 10.8133 7.72 11.04C8.09333 10.6133 8.4 10.04 8.62667 9.37333ZM9.16 5.66667C9.13333 4.8 9.02667 4 8.82667 3.28C9.24 3.06667 9.62667 2.78667 9.98667 2.46667C10.8 3.38667 11.24 4.52 11.32 5.66667H9.16Z" fill="white" />
  </g>
  <defs>
    <clipPath id="clip0_299_264">
      <rect width="12" height="12" fill="white" />
    </clipPath>
  </defs>
</svg>
