<svg width="18" height="18" viewBox="0 0 18 18" fill="none" xmlns="http://www.w3.org/2000/svg">
  <path d="M8.66234 16.916C8.76783 16.9725 8.88523 16.9998 9.00081 16.9998C9.11546 16.9998 9.23287 16.9725 9.33927 16.916C9.59978 16.7783 15.6932 13.4929 15.6932 7.62189C15.6932 4.07162 12.6901 1.18164 9.0009 1.18164C5.31168 1.18164 2.30859 4.07162 2.30859 7.62189C2.30768 13.4902 8.40169 16.7783 8.66234 16.916ZM8.99989 2.53748C11.914 2.53748 14.2833 4.81756 14.2833 7.62189C14.2833 11.9473 10.2144 14.7807 8.99989 15.5283C7.78361 14.7806 3.71649 11.9604 3.71649 7.62189C3.71649 4.81756 6.08862 2.53748 8.99989 2.53748Z" fill="#231F20" />
  <path d="M8.99899 10.9159C10.6758 10.9159 12.0409 9.55076 12.0409 7.87399C12.0409 6.19722 10.6758 4.83203 8.99899 4.83203C7.32222 4.83203 5.95703 6.19722 5.95703 7.87399C5.95703 9.54988 7.3231 10.9159 8.99899 10.9159ZM8.99899 6.18401C9.93199 6.18401 10.689 6.94099 10.689 7.87399C10.689 8.80699 9.93199 9.56397 8.99899 9.56397C8.06599 9.56397 7.30901 8.80699 7.30901 7.87399C7.30901 6.94099 8.06862 6.18401 8.99899 6.18401Z" fill="#231F20" />
</svg>
