<svg width="25" height="25" viewBox="0 0 25 25" fill="none" xmlns="http://www.w3.org/2000/svg">
  <path d="M4.2024 6.63317H5.38759C6.01625 6.63317 6.61916 6.38968 7.06369 5.95626C7.50822 5.52284 7.75796 4.935 7.75796 4.32206C7.75796 4.01559 7.88282 3.72167 8.10509 3.50496C8.32735 3.28825 8.62881 3.1665 8.94314 3.1665H16.0543C16.3686 3.1665 16.67 3.28825 16.8923 3.50496C17.1146 3.72167 17.2394 4.01559 17.2394 4.32206C17.2394 4.935 17.4892 5.52284 17.9337 5.95626C18.3782 6.38968 18.9811 6.63317 19.6098 6.63317H20.795C21.4237 6.63317 22.0266 6.87666 22.4711 7.31008C22.9156 7.7435 23.1654 8.33134 23.1654 8.94428V19.3443C23.1654 19.9572 22.9156 20.5451 22.4711 20.9785C22.0266 21.4119 21.4237 21.6554 20.795 21.6554H4.2024C3.57374 21.6554 2.97083 21.4119 2.5263 20.9785C2.08177 20.5451 1.83203 19.9572 1.83203 19.3443V8.94428C1.83203 8.33134 2.08177 7.7435 2.5263 7.31008C2.97083 6.87666 3.57374 6.63317 4.2024 6.63317Z" stroke="#231F20" stroke-width="1.2" stroke-linecap="round" stroke-linejoin="round" />
  <path d="M8.94141 13.8334C8.94141 14.7764 9.31601 15.6808 9.9828 16.3475C10.6496 17.0143 11.554 17.3889 12.497 17.3889C13.44 17.3889 14.3443 17.0143 15.0111 16.3475C15.6779 15.6808 16.0525 14.7764 16.0525 13.8334C16.0525 12.8904 15.6779 11.986 15.0111 11.3192C14.3443 10.6524 13.44 10.2778 12.497 10.2778C11.554 10.2778 10.6496 10.6524 9.9828 11.3192C9.31601 11.986 8.94141 12.8904 8.94141 13.8334Z" stroke="#231F20" stroke-width="1.2" stroke-linecap="round" stroke-linejoin="round" />
</svg>
