<svg width="18" height="18" viewBox="0 0 18 18" fill="none" xmlns="http://www.w3.org/2000/svg">
  <path fill-rule="evenodd" clip-rule="evenodd" d="M0.25 3.75C0.25 3.28567 0.434333 2.84058 0.76275 2.51275C1.09058 2.18433 1.53567 2 2 2C4.02008 2 8.14658 2 10.1667 2C10.631 2 11.0761 2.18433 11.4039 2.51275C11.7323 2.84058 11.9167 3.28567 11.9167 3.75V5.5H15.4167C15.65 5.5 15.8612 5.63883 15.9528 5.8535L17.7027 9.93683C17.7337 10.0098 17.75 10.0879 17.75 10.1667V14.25C17.75 14.572 17.4887 14.8333 17.1667 14.8333H15.3169C15.0766 15.5129 14.4279 16 13.6667 16C12.9054 16 12.2567 15.5129 12.0164 14.8333H5.98358C5.74325 15.5129 5.09458 16 4.33333 16C3.57208 16 2.92342 15.5129 2.68308 14.8333H0.833333C0.511333 14.8333 0.25 14.572 0.25 14.25V3.75ZM4.33333 13.6667C4.65533 13.6667 4.91667 13.928 4.91667 14.25C4.91667 14.572 4.65533 14.8333 4.33333 14.8333C4.01133 14.8333 3.75 14.572 3.75 14.25C3.75 13.928 4.01133 13.6667 4.33333 13.6667ZM13.6667 13.6667C13.9887 13.6667 14.25 13.928 14.25 14.25C14.25 14.572 13.9887 14.8333 13.6667 14.8333C13.3447 14.8333 13.0833 14.572 13.0833 14.25C13.0833 13.928 13.3447 13.6667 13.6667 13.6667ZM11.9167 6.66667V10.1667C11.9167 10.4887 11.6553 10.75 11.3333 10.75H7.55333H1.41667V13.6667H2.68308C2.92342 12.9871 3.57208 12.5 4.33333 12.5C5.09458 12.5 5.74325 12.9871 5.98358 13.6667H12.0164C12.2567 12.9871 12.9054 12.5 13.6667 12.5C14.4279 12.5 15.0766 12.9871 15.3169 13.6667H16.5833V10.75H13.6667C13.3447 10.75 13.0833 10.4887 13.0833 10.1667V6.66667H11.9167ZM10.75 3.75V9.58333H1.41667V3.75C1.41667 3.59542 1.47792 3.44667 1.58758 3.33758C1.69667 3.22792 1.84542 3.16667 2 3.16667H10.1667C10.3212 3.16667 10.47 3.22792 10.5791 3.33758C10.6888 3.44667 10.75 3.59542 10.75 3.75ZM15.0322 6.66667H14.25V9.58333H16.2817L15.0322 6.66667Z" fill="#231F20" />
</svg>
