<svg width="28" height="28" viewBox="0 0 28 28" fill="none" xmlns="http://www.w3.org/2000/svg">
  <rect width="28" height="28" rx="14" fill="white" />
  <g clip-path="url(#clip0_299_254)">
    <path fill-rule="evenodd" clip-rule="evenodd" d="M14.0047 7.44091C16.1434 7.44091 16.3967 7.45028 17.2378 7.48779C18.0195 7.52217 18.4417 7.65345 18.7231 7.76284C19.0952 7.90662 19.3641 8.08166 19.6424 8.35984C19.9238 8.64114 20.0958 8.90682 20.2396 9.27877C20.349 9.56007 20.4804 9.98515 20.5148 10.7634C20.5523 11.6073 20.5617 11.8605 20.5617 13.9953C20.5617 16.1332 20.5523 16.3864 20.5148 17.2272C20.4804 18.0086 20.349 18.4306 20.2396 18.7119C20.0958 19.0838 19.9207 19.3526 19.6424 19.6308C19.361 19.9121 19.0952 20.084 18.7231 20.2278C18.4417 20.3372 18.0164 20.4685 17.2378 20.5028C16.3936 20.5403 16.1403 20.5497 14.0047 20.5497C11.8659 20.5497 11.6127 20.5403 10.7715 20.5028C9.98984 20.4685 9.56772 20.3372 9.2863 20.2278C8.91421 20.084 8.6453 19.909 8.36701 19.6308C8.0856 19.3495 7.91362 19.0838 7.76979 18.7119C7.66035 18.4306 7.52902 18.0055 7.49463 17.2272C7.4571 16.3833 7.44772 16.1301 7.44772 13.9953C7.44772 11.8574 7.4571 11.6042 7.49463 10.7634C7.52902 9.98203 7.66035 9.56007 7.76979 9.27877C7.91362 8.90682 8.08872 8.63802 8.36701 8.35984C8.64843 8.07853 8.91421 7.90662 9.2863 7.76284C9.56772 7.65345 9.99296 7.52217 10.7715 7.48779C11.6127 7.45028 11.8659 7.44091 14.0047 7.44091ZM14.0047 6C11.8315 6 11.5595 6.00938 10.7059 6.04688C9.85538 6.08439 9.27067 6.22192 8.76412 6.41883C8.23568 6.62512 7.78855 6.89705 7.34454 7.34401C6.8974 7.78785 6.62537 8.23481 6.419 8.75991C6.22201 9.26939 6.08442 9.85075 6.0469 10.7009C6.00938 11.5573 6 11.8293 6 14.0016C6 16.1739 6.00938 16.4458 6.0469 17.2991C6.08442 18.1492 6.22201 18.7337 6.419 19.2401C6.62537 19.7683 6.8974 20.2153 7.34454 20.6591C7.78855 21.103 8.23569 21.378 8.76099 21.5812C9.27067 21.7781 9.85226 21.9156 10.7028 21.9531C11.5564 21.9906 11.8284 22 14.0016 22C16.1747 22 16.4467 21.9906 17.3004 21.9531C18.1509 21.9156 18.7356 21.7781 19.2421 21.5812C19.7674 21.378 20.2146 21.103 20.6586 20.6591C21.1026 20.2153 21.3778 19.7683 21.581 19.2432C21.778 18.7337 21.9156 18.1524 21.9531 17.3022C21.9906 16.4489 22 16.177 22 14.0047C22 11.8324 21.9906 11.5605 21.9531 10.7072C21.9156 9.857 21.778 9.27251 21.581 8.76617C21.384 8.23481 21.112 7.78785 20.6648 7.34401C20.2208 6.90018 19.7737 6.62512 19.2484 6.42196C18.7387 6.22504 18.1571 6.08752 17.3066 6.05001C16.4499 6.00938 16.1778 6 14.0047 6ZM14.0047 9.89139C11.7346 9.89139 9.89291 11.7324 9.89291 14.0016C9.89291 16.2708 11.7346 18.1117 14.0047 18.1117C16.2748 18.1117 18.1165 16.2708 18.1165 14.0016C18.1165 11.7324 16.2748 9.89139 14.0047 9.89139ZM14.0047 16.6677C12.532 16.6677 11.3375 15.4737 11.3375 14.0016C11.3375 12.5294 12.532 11.3354 14.0047 11.3354C15.4774 11.3354 16.6719 12.5294 16.6719 14.0016C16.6719 15.4737 15.4774 16.6677 14.0047 16.6677ZM18.2791 10.6884C18.8075 10.6884 19.239 10.2602 19.239 9.72882C19.239 9.20059 18.8075 8.76926 18.2791 8.76926C17.7506 8.76926 17.3191 9.19747 17.3191 9.72882C17.3191 10.2571 17.7475 10.6884 18.2791 10.6884Z" fill="#231F20" />
  </g>
  <defs>
    <clipPath id="clip0_299_254">
      <rect width="16" height="16" fill="white" transform="translate(6 6)" />
    </clipPath>
  </defs>
</svg>
