<svg width="42" height="42" viewBox="0 0 42 42" fill="none" xmlns="http://www.w3.org/2000/svg">
  <rect x="0.5" y="0.5" width="41" height="41" rx="20.5" stroke="#231F20" />
  <g clip-path="url(#clip0_724_10824)">
    <path fill-rule="evenodd" clip-rule="evenodd" d="M11 19.711C11 15.415 15.4864 11.9199 20.9999 11.9199C26.5142 11.9199 31 15.415 31 19.711C31 21.4304 30.3059 22.9788 28.857 24.5045C26.759 26.823 22.0673 29.6468 20.9999 30.0786C19.9627 30.4983 20.0825 29.8423 20.1299 29.5824C20.1313 29.5749 20.1326 29.5678 20.1338 29.561C20.1591 29.4167 20.2764 28.7393 20.2764 28.7393C20.3102 28.4941 20.3451 28.1139 20.2442 27.8711C20.1321 27.6039 19.6889 27.4651 19.3632 27.3977C14.5576 26.7878 11 23.5624 11 19.711ZM23.3635 17.9022H22.7073C22.6067 17.9022 22.5251 17.9791 22.5251 18.0735V20.3544L20.6571 17.9784C20.6528 17.9723 20.6479 17.9666 20.6429 17.961L20.6417 17.96C20.6381 17.9561 20.6345 17.9527 20.6307 17.9493L20.6273 17.9465C20.6243 17.9438 20.621 17.9412 20.6176 17.9389C20.6166 17.9379 20.6154 17.9371 20.6143 17.9362L20.613 17.9353L20.6093 17.9329L20.6035 17.9292C20.6017 17.9281 20.5999 17.927 20.5979 17.9262L20.5979 17.9262C20.5946 17.9243 20.5914 17.9225 20.5882 17.921L20.586 17.92L20.5825 17.9184C20.5791 17.9169 20.5757 17.9154 20.5721 17.9142L20.5662 17.9122C20.5626 17.911 20.559 17.9098 20.5552 17.909L20.552 17.9081L20.5489 17.9073L20.5385 17.9051C20.536 17.9047 20.5333 17.9044 20.5308 17.9042C20.5295 17.904 20.5282 17.9038 20.5269 17.9036C20.5258 17.9035 20.5247 17.9034 20.5236 17.9033L20.5211 17.9031C20.5191 17.9028 20.517 17.9028 20.5149 17.9027L20.5118 17.9026L20.5086 17.9024L20.5054 17.9022H19.8493C19.7487 17.9022 19.6669 17.9791 19.6669 18.0735V21.9128C19.6669 22.0073 19.7487 22.084 19.8493 22.084H20.5054C20.6061 22.084 20.6877 22.0073 20.6877 21.9128V19.6325L22.5581 22.0116C22.571 22.0288 22.587 22.0428 22.6044 22.054L22.6062 22.0553L22.6175 22.0617L22.6197 22.0629L22.6227 22.0643C22.6242 22.0652 22.6259 22.066 22.6276 22.0668C22.6289 22.0673 22.6301 22.0678 22.6313 22.0683L22.6402 22.0719L22.6402 22.0719C22.642 22.0726 22.6438 22.0732 22.6456 22.0737C22.6499 22.0752 22.6539 22.0764 22.658 22.0776L22.6598 22.0779L22.6607 22.0781C22.6756 22.0818 22.6912 22.084 22.7073 22.084H23.3635C23.4643 22.084 23.5457 22.0073 23.5457 21.9128V18.0735C23.5457 17.9791 23.4643 17.9022 23.3635 17.9022ZM18.3856 17.9024C18.29 17.9024 18.2123 17.9793 18.2123 18.0737V21.913C18.2123 22.0076 18.29 22.0843 18.3856 22.0843H19.0089C19.1045 22.0843 19.182 22.0076 19.182 21.913V18.0737C19.182 17.9793 19.1045 17.9024 19.0089 17.9024H18.3856ZM15.8125 21.1229H17.5499C17.6479 21.1229 17.7271 21.1997 17.7271 21.2945V21.9125C17.7271 22.0072 17.6479 22.0843 17.5499 22.0843H14.9954C14.9476 22.0843 14.9047 22.066 14.8727 22.0363L14.8701 22.0339C14.869 22.0331 14.8683 22.0322 14.8676 22.0314C14.837 22.0006 14.818 21.9589 14.818 21.9128V21.9125V18.074C14.818 17.9793 14.8975 17.9024 14.9955 17.9024H15.6351C15.733 17.9024 15.8125 17.9793 15.8125 18.074V21.1229ZM26.7617 18.8636C26.8597 18.8636 26.9389 18.7869 26.9389 18.692V18.074C26.9389 17.9792 26.8597 17.9022 26.7617 17.9022H24.2073H24.207C24.1591 17.9022 24.1159 17.9208 24.0839 17.9507L24.083 17.9515L24.0818 17.9525L24.079 17.9556C24.0486 17.9863 24.0298 18.0279 24.0298 18.0738V18.074V21.9124V21.9126C24.0298 21.9587 24.0488 22.0004 24.0794 22.0312L24.0806 22.0325L24.0818 22.0337C24.0825 22.0345 24.0836 22.0354 24.0845 22.0361C24.1163 22.0656 24.1594 22.084 24.207 22.084H26.7617C26.8597 22.084 26.9389 22.007 26.9389 21.9124V21.2943C26.9389 21.1997 26.8597 21.1226 26.7617 21.1226H25.0244V20.4737H26.7617C26.8597 20.4737 26.9389 20.3969 26.9389 20.3021V19.6841C26.9389 19.5894 26.8597 19.5123 26.7617 19.5123H25.0244V18.8636H26.7617Z" fill="#231F20" />
  </g>
  <defs>
    <clipPath id="clip0_724_10824">
      <rect width="20" height="19.1667" fill="white" transform="translate(11 11.416)" />
    </clipPath>
  </defs>
</svg>
