<svg width="87" height="88" viewBox="0 0 87 88" fill="none" xmlns="http://www.w3.org/2000/svg">
  <circle cx="29.6777" cy="58.5" r="29.5" fill="#07285F" />
  <path d="M14.918 67.689C16.8882 70.7851 22.357 76.6577 28.4282 76.9772C36.4499 77.3994 42.3606 71.9109 44.4715 67.689" stroke="#56C9F3" stroke-width="1.5" stroke-linecap="round" />
  <path d="M15.3414 66.0688C14.6378 66.491 13.2305 67.7576 13.2305 69.4464" stroke="#56C9F3" stroke-width="1.5" stroke-linecap="round" />
  <path d="M45.2863 69.5171C45.2725 68.6966 44.8793 66.8446 43.4168 66.0002" stroke="#56C9F3" stroke-width="1.5" stroke-linecap="round" />
  <path d="M86.8199 17.2721C86.8199 10.4395 81.2771 4.89651 74.4442 4.89651C73.2838 4.89651 72.1234 5.08876 71.0278 5.34818C68.839 2.12629 65.1005 0 60.9108 0C54.0781 0 48.5352 5.54279 48.5352 12.3756C48.5352 17.7261 52.079 24.6866 57.2374 27.0074L56.7232 28.6172C56.4661 29.2611 56.5935 30.0347 56.9803 30.5512C57.3671 31.0678 58.0759 31.4545 58.7198 31.4545H59.0417C58.3979 33.7754 58.0759 37.127 59.6208 40.2843C61.7471 44.6666 60.6515 47.3096 60.6515 47.3743C60.3296 48.0182 60.6515 48.7918 61.2954 49.1138C61.4877 49.1786 61.6822 49.2435 61.812 49.2435C62.3285 49.2435 62.7778 48.9864 62.9724 48.4698C63.0372 48.3401 64.647 44.7314 61.9416 39.1889C60.589 36.4163 61.1031 33.389 61.6845 31.4549H62.9098C63.6186 31.4549 64.2625 31.133 64.6493 30.5516C65.0361 29.9726 65.1658 29.2615 64.9064 28.6176L64.3274 27.0054C64.5196 26.9406 64.7142 26.8132 64.9713 26.6835C66.5185 29.0692 68.5799 30.9384 70.7086 31.9043L70.3218 33.5164C70.0647 34.1603 70.1921 34.9339 70.5789 35.5153C70.9657 36.0944 71.6745 36.4187 72.3184 36.4187H72.6403C71.9964 38.7395 71.6745 42.0911 73.2194 45.2484C75.3457 49.6307 74.2501 52.2737 74.2501 52.3384C73.9282 52.9823 74.2501 53.7559 74.894 54.0779C75.0863 54.1427 75.2808 54.2076 75.4105 54.2076C75.9271 54.2076 76.3764 53.9505 76.571 53.4339C76.6358 53.3042 78.2456 49.6955 75.5402 44.153C74.1876 41.3804 74.7017 38.3531 75.2831 36.419H76.5084C77.2172 36.419 77.8611 36.0971 78.2479 35.5157C78.6347 34.9367 78.7644 34.2256 78.505 33.5168L77.926 31.9047C83.2764 29.519 86.8203 22.6237 86.8203 17.2729L86.8199 17.2721ZM62.5222 25.0084C62.2003 25.1381 61.8784 25.3304 61.7486 25.6523C61.6189 25.9743 61.5564 26.3611 61.6838 26.6831L62.4574 28.9391H59.3629L60.1365 26.6831C60.2662 26.3611 60.2014 25.9743 60.0716 25.6523C59.9419 25.3304 59.62 25.1358 59.298 25.0084C54.7211 23.7183 51.1775 17.1446 51.1775 12.3755C51.1149 6.96012 55.4973 2.57805 60.9103 2.57805C66.3233 2.57805 70.7077 6.96036 70.7077 12.3755C70.6428 17.0798 67.0993 23.6535 62.5222 25.0084ZM76.1211 29.905C75.7992 30.0347 75.4772 30.2269 75.3475 30.5488C75.1553 30.8708 75.1552 31.2576 75.2826 31.5796L76.0563 33.8356H74.509H74.4442H72.9618L73.7354 31.5796C73.8651 31.2576 73.8002 30.8708 73.6705 30.5488C73.4783 30.2269 73.2189 30.0323 72.8969 29.905C70.8354 29.3259 68.9014 27.6489 67.3541 25.2655C71.0277 22.1085 73.3483 16.7578 73.3483 12.3758C73.3483 10.7637 73.0264 9.15394 72.445 7.73642C73.1538 7.60671 73.8625 7.47932 74.5713 7.47932C79.9843 7.47932 84.3687 11.8616 84.3687 17.2768C84.2413 21.9787 80.6979 28.5524 76.1211 29.905Z" fill="#07285F" />
  <ellipse cx="39.1777" cy="50" rx="2" ry="4" fill="#56C9F3" />
  <ellipse cx="21.1777" cy="50" rx="2" ry="4" fill="#56C9F3" />
  <path d="M64.7244 10.3209C64.3376 9.67702 63.564 9.48241 62.9849 9.86924L62.019 10.3858V9.29016C62.019 8.58139 61.44 8 60.7289 8C60.0201 8 59.4387 8.57906 59.4387 9.29016V10.3858L58.4728 9.86924C57.8289 9.48243 57.0553 9.73953 56.7333 10.3209C56.3465 10.9648 56.6036 11.7384 57.185 12.0604L58.1509 12.5769L57.185 13.156C56.5411 13.5428 56.3465 14.3164 56.7333 14.8955C56.9904 15.2823 57.3772 15.5394 57.8289 15.5394C58.0212 15.5394 58.2806 15.4745 58.4728 15.3471L59.4387 14.8306L59.441 15.9285C59.441 16.6373 60.0201 17.2187 60.7312 17.2187C61.4399 17.2187 62.0213 16.6396 62.0213 15.9285V14.8329L62.9872 15.3494C63.1795 15.4792 63.4389 15.5417 63.6311 15.5417C64.0828 15.5417 64.5344 15.2846 64.7267 14.8978C65.1135 14.2539 64.8564 13.4803 64.275 13.1583L63.3092 12.6418L64.275 12.1253C64.8541 11.7385 65.0487 10.9649 64.7244 10.3209Z" fill="#56C9F3" />
</svg>
