<svg width="60" height="60" viewBox="0 0 60 60" fill="none" xmlns="http://www.w3.org/2000/svg">
  <rect width="60" height="60" fill="#BFD6FB" />
  <g opacity="0.4">
    <mask id="mask0_1628_10409" style="mask-type:alpha" maskUnits="userSpaceOnUse" x="0" y="0" width="60" height="60">
      <rect width="60" height="60" fill="#07285F" />
    </mask>
    <g mask="url(#mask0_1628_10409)">
      <path d="M84.8398 56.9746L57.1602 84.6553L13.0039 40.5H43V25.5H48V20.1348L84.8398 56.9746Z" fill="#3C81F2" />
    </g>
  </g>
  <path d="M46.5 19.2002C47.3284 19.2002 48 19.8718 48 20.7002V26.2373H47.9971C46.009 26.2374 44.3965 27.8488 44.3965 29.8369C44.3967 31.8249 46.0091 33.4374 47.9971 33.4375L48 33.4365V38.9727C48 39.8011 47.3284 40.4727 46.5 40.4727H21.8154V38.0186C21.8154 37.5668 21.4488 37.2003 20.9971 37.2002C20.5453 37.2003 20.1788 37.5668 20.1787 38.0186V40.4727H13.5C12.6716 40.4727 12 39.8011 12 38.9727V33.4365C13.9867 33.4348 15.5965 31.8239 15.5967 29.8369C15.5966 27.8498 13.9868 26.239 12 26.2373V20.7002C12 19.8718 12.6716 19.2002 13.5 19.2002H20.1787V21.6553C20.1789 22.1069 20.5454 22.4735 20.9971 22.4736C21.4487 22.4735 21.8152 22.1069 21.8154 21.6553V19.2002H46.5ZM20.9971 30.6553C20.5453 30.6554 20.1787 31.0218 20.1787 31.4736V34.7461C20.179 35.1976 20.5455 35.5643 20.9971 35.5645C21.4487 35.5644 21.8151 35.1976 21.8154 34.7461V31.4736C21.8154 31.0218 21.4489 30.6554 20.9971 30.6553ZM20.9971 24.1094C20.5453 24.1095 20.1787 24.4759 20.1787 24.9277V28.2002C20.1789 28.6518 20.5454 29.0184 20.9971 29.0186C21.4487 29.0185 21.8152 28.6518 21.8154 28.2002V24.9277C21.8154 24.4759 21.4489 24.1095 20.9971 24.1094Z" fill="white" />
  <mask id="mask1_1628_10409" style="mask-type:alpha" maskUnits="userSpaceOnUse" x="12" y="19" width="36" height="22">
    <path d="M46.5 19.2002C47.3284 19.2002 48 19.8718 48 20.7002V26.2373H47.9971C46.009 26.2374 44.3965 27.8488 44.3965 29.8369C44.3967 31.8249 46.0091 33.4374 47.9971 33.4375L48 33.4365V38.9727C48 39.8011 47.3284 40.4727 46.5 40.4727H21.8154V38.0186C21.8154 37.5668 21.4488 37.2003 20.9971 37.2002C20.5453 37.2003 20.1788 37.5668 20.1787 38.0186V40.4727H13.5C12.6716 40.4727 12 39.8011 12 38.9727V33.4365C13.9867 33.4348 15.5965 31.8239 15.5967 29.8369C15.5966 27.8498 13.9868 26.239 12 26.2373V20.7002C12 19.8718 12.6716 19.2002 13.5 19.2002H20.1787V21.6553C20.1789 22.1069 20.5454 22.4735 20.9971 22.4736C21.4487 22.4735 21.8152 22.1069 21.8154 21.6553V19.2002H46.5ZM20.9971 30.6553C20.5453 30.6554 20.1787 31.0218 20.1787 31.4736V34.7461C20.179 35.1976 20.5455 35.5643 20.9971 35.5645C21.4487 35.5644 21.8151 35.1976 21.8154 34.7461V31.4736C21.8154 31.0218 21.4489 30.6554 20.9971 30.6553ZM20.9971 24.1094C20.5453 24.1095 20.1787 24.4759 20.1787 24.9277V28.2002C20.1789 28.6518 20.5454 29.0184 20.9971 29.0186C21.4487 29.0185 21.8152 28.6518 21.8154 28.2002V24.9277C21.8154 24.4759 21.4489 24.1095 20.9971 24.1094Z" fill="white" />
  </mask>
  <g mask="url(#mask1_1628_10409)">
    <rect x="9" y="16" width="12" height="29" fill="#3C81F2" />
  </g>
  <path d="M30 34L38 26" stroke="#3C81F2" stroke-width="1.5" stroke-linecap="round" />
  <circle cx="37.3649" cy="33.109" r="1.63636" stroke="#3C81F2" stroke-width="1.5" />
  <circle cx="30.818" cy="26.5636" r="1.63636" stroke="#3C81F2" stroke-width="1.5" />
</svg>
