<svg width="467" height="490" viewBox="0 0 467 490" fill="none" xmlns="http://www.w3.org/2000/svg">
  <g opacity="0.1" clip-path="url(#clip0_724_10075)">
    <path opacity="0.41" fill-rule="evenodd" clip-rule="evenodd" d="M330.161 345.865C328.125 343.522 326.368 341.302 324.893 339.387L324.858 339.34L324.639 338.865L330.161 345.865Z" fill="#231F20" />
    <path opacity="0.41" d="M300.15 304.275L299.982 304.416" stroke="#231F20" stroke-miterlimit="10" />
    <path opacity="0.41" d="M324.863 339.339C323.897 338.074 323.053 336.931 322.336 335.941L323.429 337.324L324.863 339.339Z" fill="#231F20" />
    <path opacity="0.41" d="M324.863 339.34L324.898 339.387" stroke="#231F20" stroke-miterlimit="10" />
    <path d="M423.883 30.6703C410.643 30.1254 397.496 33.128 385.767 39.3749C370.051 47.8218 361.835 59.6427 357.753 65.6703C345.772 83.3431 343.049 101.127 342.303 110.482V251.203H406.641C404.609 249.703 402.556 248.088 400.483 246.358C389.071 236.566 379.749 224.519 373.087 210.954V112.761C372.963 106.223 373.625 99.6945 375.059 93.3189C381.847 63.2628 401.356 45.6896 411.717 38.4728C412.561 37.8871 415.441 35.7021 416.638 34.9582C417.621 34.3256 418.569 33.7866 419.621 33.1247C420.419 32.6034 421.212 32.082 422.05 31.6427L423.883 30.6703Z" fill="#231F20" />
    <path d="M354.139 64.3945C352.556 65.0863 351.107 66.0583 349.86 67.2648C344.657 72.3142 338.146 80.351 335 91.6389C334.966 91.7502 334.937 91.8673 334.908 91.9786C333.994 95.3865 333.537 98.9034 333.549 102.435V251.221H339.632V104.456C339.617 100.426 340.126 96.4122 341.147 92.5175V92.4473C343.012 85.4449 345.731 78.7054 349.242 72.3845L354.116 64.3945H354.139Z" fill="#231F20" />
    <path fill-rule="evenodd" clip-rule="evenodd" d="M462.865 322.409C459.188 313.927 454.157 308.837 449.566 304.297C438.184 293.074 423.965 285.25 408.476 281.686C392.986 278.123 376.827 278.958 361.776 284.1C369.54 282.439 377.47 281.715 385.402 281.944C392.757 282.155 411.369 282.916 430.549 294.509C436.788 298.281 445.345 303.577 452.237 314.08C454.677 317.793 459.28 324.981 460.489 335.501C461.003 339.959 461.969 349.495 456.684 359.278C451.833 368.264 444.397 372.487 440.049 374.877C429.681 380.582 420.135 380.905 411.716 381.092C396.353 381.411 381.143 377.95 367.39 371.005C353.004 363.613 344.1 354.164 339.399 349.085C334.622 343.99 330.298 338.478 326.476 332.613L330.124 329.491C333.653 334.136 337.452 338.563 341.504 342.747C349.431 350.948 364.303 366.284 383.32 372.669C408.351 381.075 444.784 375.351 454.388 354.709C458.106 346.707 458.02 335.964 455.007 327.213C452.116 318.813 447.005 313.875 442.286 309.434C419.823 288.229 390.825 287.374 386.523 287.31C377.588 287.207 368.689 288.495 360.14 291.129C370.557 290.853 380.95 292.304 390.906 295.423C410.566 301.62 438.557 317.717 437.603 334.939C437.314 340.146 434.4 345.09 430.826 348.008C424.067 353.52 414.833 351.874 408.108 350.573C400.15 348.974 392.545 345.919 385.668 341.558C377.484 336.401 370.343 329.714 364.626 321.853L257.975 176.762L343.175 62.1498C349.477 52.6696 357.351 44.3658 366.448 37.6059C382.77 25.6269 402.288 18.9329 422.436 18.4042C407.621 16.7589 392.636 18.9979 378.92 24.9063C378.4 25.1348 377.885 25.3632 377.376 25.5975C368.188 29.893 359.869 35.8818 352.842 43.2586L349.888 46.3281C345.963 50.4052 342.294 54.7269 338.902 59.2678L254.708 171.988L252.499 168.96L327.985 67.3632C330.957 63.3624 333.819 59.2854 336.658 55.185C341.481 48.2236 347.128 41.8871 353.473 36.3172C360.841 29.594 369.256 24.151 378.376 20.2084C387.882 16.1607 395.804 14.8369 401.193 13.9699C409.057 12.6966 417.033 12.2685 424.986 12.6929C413.575 6.09219 400.902 2.04166 387.819 0.813427C380.464 0.133929 366.008 -1.03176 349.333 5.75736C346.014 7.1203 342.795 8.71955 339.7 10.5431C331.936 15.1477 325.126 21.2328 319.647 28.462L307.031 44.9164L233.829 143.971H233.499L159.956 44.6352L147.345 28.1515C141.867 20.9223 135.057 14.8372 127.293 10.2327C124.197 8.41911 120.978 6.82965 117.66 5.47619C100.978 -1.31293 86.5346 -0.147243 79.174 0.532255C66.096 1.76295 53.4293 5.8134 42.0238 12.4118C49.9704 11.9789 57.9399 12.3971 65.7999 13.6595C71.1888 14.5264 79.0988 15.8502 88.6162 19.8979C97.7369 23.8406 106.152 29.2836 113.52 36.0067C119.867 41.5894 125.514 47.9397 130.334 54.9155C133.173 59.0159 136.036 63.1164 139.008 67.0938L214.516 168.702L212.308 171.731L128.085 58.9866C124.693 54.4457 121.024 50.124 117.099 46.0469L114.144 42.9774C107.121 35.6018 98.806 29.6131 89.6223 25.3164C89.1135 25.082 88.5989 24.8536 88.0785 24.6251C74.3624 18.7167 59.3779 16.4778 44.5621 18.1231C64.7102 18.6518 84.2286 25.3458 100.551 37.3247C109.648 44.0846 117.522 52.3884 123.824 61.8687L209.018 176.481L102.378 321.589C96.6609 329.45 89.5203 336.137 81.3365 341.295C74.4542 345.651 66.8459 348.7 58.8845 350.292C52.1598 351.593 42.9258 353.221 36.1664 347.726C32.5931 344.798 29.6789 339.865 29.3898 334.658C28.4357 317.436 56.456 301.339 76.0863 295.141C86.0427 292.023 96.4351 290.572 106.853 290.848C98.2976 288.213 89.3934 286.924 80.4518 287.028C76.1499 287.093 47.1525 287.948 24.6889 309.153C19.988 313.593 14.8593 318.526 11.9682 326.931C8.95571 335.671 8.86898 346.426 12.5869 354.428C22.191 375.07 58.6243 380.787 83.6551 372.387C102.673 366.003 117.544 350.649 125.472 342.466C129.529 338.281 133.335 333.852 136.868 329.204L140.517 332.326C136.695 338.191 132.37 343.703 127.594 348.798C122.893 353.877 113.988 363.326 99.6023 370.718C85.8498 377.663 70.6396 381.124 55.2764 380.805C46.8576 380.618 37.3113 380.295 26.9439 374.59C22.5958 372.2 15.1599 367.977 10.3087 358.991C5.02386 349.208 5.98948 339.66 6.50409 335.214C7.71255 324.67 12.3151 317.506 14.7552 313.793C21.6475 303.29 30.2051 297.977 36.444 294.222C55.6233 282.629 74.236 281.868 81.5909 281.657C89.5283 281.427 97.4647 282.151 105.234 283.813C90.1806 278.64 74.0078 277.79 58.5068 281.356C43.0057 284.922 28.7814 292.765 17.4092 304.016C12.8355 308.556 7.80507 313.646 4.11028 322.128C0.968986 328.922 -0.402545 336.418 0.126389 343.901C0.749328 351.178 3.17138 358.179 7.16903 364.257C13.5872 373.981 22.2026 378.316 26.782 380.594C49.3324 391.671 78.0407 387.389 98.2377 377.466C117.504 368 130.866 352.495 136.828 345.582L142.35 338.553L143.564 337.013L144.657 335.63L210.417 389.439C209.341 391.021 207.936 393.182 206.41 395.818C202.427 402.72 199.256 410.071 196.962 417.721C194.834 424.803 192.498 432.587 192.7 442.991C192.81 448.849 192.984 457.94 197.904 467.242C199.107 469.538 207.549 485.085 224.537 489.027C227.399 489.691 230.332 489.994 233.268 489.929C235.344 489.97 238.917 490.146 242.519 489.308C259.507 485.366 267.961 469.819 269.152 467.523C274.049 458.221 274.223 449.153 274.356 443.272C274.558 432.869 272.222 425.113 270.094 418.002C267.8 410.352 264.629 403.002 260.646 396.1C259.12 393.464 257.715 391.302 256.639 389.721L322.336 335.941L323.429 337.323L324.643 338.864L330.165 345.893C336.126 352.805 349.489 368.31 368.755 377.777C388.952 387.7 417.649 391.982 440.211 380.905C444.807 378.649 453.405 374.291 459.824 364.567C463.821 358.489 466.243 351.488 466.866 344.212C467.395 336.717 466.017 329.211 462.865 322.409ZM142.419 327.535L139.615 325.274L141.841 322.433L144.645 324.694L142.419 327.535ZM239.646 204.042L307.823 298.434L305.469 300.618L238.09 206.854L239.646 204.042ZM299.982 304.414L233.407 358.253L167.01 304.133L233.291 211.106L299.982 304.414ZM227.347 203.761L228.902 206.572L161.523 300.337L159.17 298.158L227.347 203.761ZM213.47 384.765L147.108 331.313L149.334 328.472L215.673 381.924L213.47 384.765ZM243.809 451.76C241.716 456.792 239.247 458.965 238.524 459.568C236.755 461.05 234.476 461.595 233.256 462.064C231.527 461.413 229.916 460.475 228.492 459.287C227.769 458.701 225.3 456.51 223.207 451.479C221.37 446.842 220.536 441.86 220.761 436.869C220.981 430.069 222.86 425.107 224.34 421.317C226.582 415.706 229.642 410.468 233.418 405.777C237.25 410.561 240.367 415.89 242.67 421.592C244.15 425.382 246.029 430.344 246.249 437.145C246.47 442.132 245.634 447.11 243.797 451.742L243.809 451.76ZM253.534 385.028L251.302 382.187L317.658 328.753L319.884 331.594L253.534 385.028ZM324.574 327.816L322.347 324.975L325.152 322.714L327.378 325.555L324.574 327.816Z" fill="#231F20" />
    <path opacity="0.41" fill-rule="evenodd" clip-rule="evenodd" d="M142.35 338.578L142.13 339.053L142.096 339.099C140.621 341.015 138.863 343.2 136.828 345.578L142.35 338.578Z" fill="#231F20" />
    <path opacity="0.41" d="M167.017 304.129L166.85 303.988" stroke="#231F20" stroke-miterlimit="10" />
    <path opacity="0.41" d="M144.658 335.648C143.941 336.638 143.096 337.781 142.131 339.046L143.565 337.031L144.658 335.648Z" fill="#231F20" />
    <path opacity="0.41" d="M142.102 339.1L142.136 339.053" stroke="#231F20" stroke-miterlimit="10" />
    <path d="M43.1113 30.3892C56.3531 29.8436 69.5026 32.8461 81.233 39.0938C96.9488 47.5407 105.165 59.3558 109.247 65.3892C121.222 83.062 123.951 100.84 124.674 110.201V250.916H60.3594C62.4025 249.432 64.4551 247.819 66.5174 246.077C75.0227 238.822 82.3648 230.273 88.2814 220.737C91.9811 214.771 93.934 207.865 93.9132 200.82V112.468C94.0338 105.934 93.3698 99.4093 91.9357 93.0378C85.1532 62.9993 65.6443 45.3909 55.2827 38.1918C54.4385 37.606 51.559 35.421 50.3621 34.6771C49.2577 33.9742 48.1996 33.3884 46.9854 32.5625C46.3304 32.1173 45.6509 31.7105 44.95 31.3441L43.1113 30.3892Z" fill="#231F20" />
    <path d="M112.861 64.1133C114.443 64.8038 115.891 65.7759 117.134 66.9836C122.338 72.0329 128.855 80.0698 132 91.3576C132.035 91.4689 132.064 91.5802 132.093 91.6915C133.006 95.1014 133.463 98.6202 133.452 102.153V250.94H127.369V104.174C127.386 100.145 126.878 96.1312 125.86 92.2363V92.166C123.995 85.1634 121.276 78.4237 117.765 72.1032L112.89 64.1133H112.861Z" fill="#231F20" />
    <path d="M233.5 410.984C234.651 411.866 235.648 412.937 236.449 414.153C239.473 418.787 243.648 426.929 243.7 437.338C243.7 441.661 243.775 453.271 236.518 458.52C235.587 459.193 234.572 459.739 233.5 460.143V454.953C236.773 449.68 238.572 443.606 238.704 437.379C238.876 431.932 237.665 426.531 235.188 421.692C234.682 420.729 234.12 419.796 233.506 418.898V410.984H233.5Z" fill="#231F20" />
    <path d="M233.5 410.984C232.349 411.866 231.352 412.937 230.552 414.153C227.528 418.787 223.353 426.929 223.301 437.338C223.301 441.661 223.226 453.271 230.476 458.52C231.41 459.193 232.426 459.739 233.5 460.143V454.953C230.228 449.68 228.429 443.606 228.297 437.379C228.122 431.932 229.332 426.53 231.812 421.692C232.319 420.729 232.881 419.796 233.495 418.898V410.984H233.5Z" fill="#231F20" />
  </g>
  <defs>
    <clipPath id="clip0_724_10075">
      <rect width="467" height="490" fill="white" />
    </clipPath>
  </defs>
</svg>
