<svg width="100" height="18" viewBox="0 0 100 18" fill="none" xmlns="http://www.w3.org/2000/svg">
  <g clip-path="url(#clip0_44_2436)">
    <path d="M15.4295 17.4698V16.7289C17.6155 16.5184 17.7236 16.3879 17.6977 13.6033L17.6155 2.88985H17.5139L10.9256 17.2804H10.3786L4.34388 3.25609H4.28982L3.89198 10.7344C3.78387 12.8877 3.78387 14.0432 3.80981 15.0935C3.86387 16.3564 4.51253 16.5395 6.29203 16.7226V17.4698H0V16.7289C1.56544 16.5458 2.10383 16.2553 2.29194 15.1524C2.42816 14.2347 2.59465 13.0792 2.81087 10.3472L3.1871 4.8852C3.42494 1.47332 3.29088 1.36597 0.836775 1.12813V0.393555H5.26065L11.4121 13.5254L17.6436 0.393555H22.2297V1.12813C19.8512 1.33861 19.6653 1.39123 19.7475 4.0959L20.0156 13.6033C20.0977 16.3879 20.1777 16.5184 22.5259 16.7289V17.4698H15.4295Z" fill="#231F20" />
    <path d="M40.7621 13.3149C40.5999 14.1821 40.0594 16.6489 39.8172 17.4635H26.8115V16.7289C29.2678 16.5458 29.4819 16.3353 29.4819 14.2032V3.75492C29.4819 1.39123 29.2656 1.31335 27.1618 1.12813V0.393555H39.1945C39.1945 1.05025 39.3286 2.83723 39.4107 4.1822L38.628 4.3127C38.4802 3.51573 38.1873 2.75089 37.7631 2.05424C37.3847 1.50279 36.6561 1.31967 34.7144 1.31967H32.6646C31.8278 1.31967 31.7738 1.37229 31.7738 2.16159V8.11397H34.3144C36.7425 8.11397 36.8766 7.90349 37.2269 6.14598H38.0096V11.1975H37.2269C36.8766 9.30318 36.6885 9.14953 34.3403 9.14953H31.7846V14.1021C31.7846 15.3377 31.9468 15.8891 32.4333 16.2301C32.9198 16.5711 33.8906 16.5711 35.2441 16.5711C37.2939 16.5711 38.055 16.3606 38.6431 15.6786C39.2346 14.941 39.6823 14.1042 39.9642 13.2097L40.7621 13.3149Z" fill="#231F20" />
    <path d="M60.9745 17.6803C60.6501 17.6803 60.3539 17.6803 60.0296 17.655C58.0079 17.5498 56.8749 16.971 55.6598 15.264C54.7149 13.9779 53.744 12.3488 52.9354 11.0544C52.477 10.3177 52.0186 10.002 50.6153 10.002H49.7504V14.1821C49.7504 16.4132 49.9926 16.5711 52.1505 16.7289V17.4698H45.0498V16.7289C47.2617 16.5711 47.5039 16.4132 47.5039 14.1821V3.62443C47.5039 1.39123 47.2877 1.30914 45.1839 1.12813V0.393555H51.8737C53.8435 0.393555 55.1668 0.629293 56.1982 1.28599C57.2793 1.97005 57.9777 3.15085 57.9777 4.72734C57.9777 6.98579 56.5484 8.37707 54.5527 9.21689C55.0111 10.0841 56.1441 11.8437 56.9528 13.0266C57.6087 13.9916 58.3395 14.9063 59.1388 15.7628C59.8653 16.5521 60.488 16.8405 61.0847 16.9983L60.9745 17.6803ZM51.0391 9.13901C52.4143 9.13901 53.3051 8.92853 53.9797 8.40443C55.0306 7.61513 55.463 6.56483 55.463 5.1462C55.463 2.31524 53.5473 1.26284 51.4975 1.26284C50.7148 1.26284 50.2564 1.36808 50.0402 1.52594C49.824 1.6838 49.744 1.97216 49.744 2.68147V9.13901H51.0391Z" fill="#231F20" />
    <path d="M81.9475 10.2695C80.3301 10.5053 80.2177 10.6358 80.2177 12.1849V14.4181C80.1913 15.2452 80.2544 16.0728 80.4058 16.887C78.7344 17.2806 76.5138 17.8574 74.3646 17.8574C68.4294 17.8574 64.4639 14.2603 64.4639 9.06139C64.4639 2.96799 69.4802 0.0107422 74.7689 0.0107422C77.0068 0.0107422 79.0934 0.589563 79.9582 0.772681C80.0404 1.69248 80.1745 3.13637 80.3907 4.86863L79.6339 5.02649C78.9853 1.81245 76.9355 0.945274 74.3798 0.945274C70.2521 0.945274 67.2293 3.892 67.2293 8.74567C67.2293 12.5343 69.5234 16.9397 74.73 16.9397C75.5386 16.9546 76.3403 16.7928 77.076 16.4661C77.6166 16.1777 77.9409 15.862 77.9409 14.7591V12.528C77.9409 10.6337 77.7528 10.4779 75.1084 10.2695V9.56023H81.9475V10.2695Z" fill="#231F20" />
    <path d="M99.9997 13.3149C99.8376 14.1821 99.297 16.6489 99.0549 17.4635H86.0557V16.7289C88.5119 16.5458 88.7282 16.3353 88.7282 14.2032V3.75492C88.7282 1.39123 88.5119 1.31335 86.4081 1.12813V0.393555H98.4386C98.4386 1.05025 98.5749 2.83723 98.6549 4.1822L97.8721 4.3127C97.7244 3.51573 97.4315 2.75089 97.0073 2.05424C96.6289 1.50279 95.9002 1.31967 93.9585 1.31967H91.9088C91.072 1.31967 91.0179 1.37229 91.0179 2.16159V8.11397H93.5542C95.9824 8.11397 96.1164 7.90349 96.4667 6.14598H97.2494V11.1975H96.4667C96.1164 9.30318 95.9283 9.14953 93.5801 9.14953H91.0158V14.1021C91.0158 15.3377 91.1779 15.8891 91.6644 16.2301C92.1509 16.5711 93.1196 16.5711 94.4753 16.5711C96.5251 16.5711 97.2862 16.3606 97.8743 15.6786C98.4657 14.9407 98.9141 14.104 99.1976 13.2097L99.9997 13.3149Z" fill="#231F20" />
  </g>
  <defs>
    <clipPath id="clip0_44_2436">
      <rect width="100" height="17.8571" fill="white" />
    </clipPath>
  </defs>
</svg>
