<svg width="146" height="26" viewBox="0 0 146 26" fill="none" xmlns="http://www.w3.org/2000/svg">
  <g clip-path="url(#clip0_238_786)">
    <path d="M22.5271 25.4363V24.3575C25.7187 24.0511 25.8765 23.8611 25.8386 19.8066L25.7187 4.20785H25.5703L15.9514 25.1605H15.1528L6.34206 4.74109H6.26314L5.68228 15.6296C5.52444 18.7647 5.52444 20.4471 5.56233 21.9764C5.64125 23.8151 6.58829 24.0817 9.18636 24.3483V25.4363H0V24.3575C2.28554 24.0909 3.07159 23.668 3.34623 22.0622C3.54511 20.726 3.78819 19.0435 4.10387 15.0657L4.65316 7.11308C5.00041 2.14538 4.80469 1.98908 1.22169 1.64279V0.573242H7.68056L16.6617 19.6932L25.7597 0.573242H32.4553V1.64279C28.9828 1.94924 28.7113 2.02586 28.8313 5.96386L29.2227 19.8066C29.3427 23.8611 29.4595 24.0511 32.8878 24.3575V25.4363H22.5271Z" fill="white" />
    <path d="M59.5124 19.3868C59.2756 20.6494 58.4864 24.2411 58.1328 25.4271H39.1445V24.3575C42.7307 24.0909 43.0432 23.7845 43.0432 20.68V5.4674C43.0432 2.02586 42.7275 1.91247 39.6559 1.64279V0.573242H57.2237C57.2237 1.52939 57.4194 4.13123 57.5394 6.08951L56.3966 6.27951C56.1808 5.11913 55.7532 4.00552 55.1338 2.99121C54.5814 2.18828 53.5176 1.92166 50.6827 1.92166H47.6901C46.4684 1.92166 46.3894 1.99828 46.3894 3.1475V11.8142H50.0987C53.6438 11.8142 53.8396 11.5077 54.351 8.94877H55.4937V16.3038H54.351C53.8396 13.5457 53.5649 13.3219 50.1366 13.3219H46.4052V20.5329C46.4052 22.3318 46.642 23.1348 47.3523 23.6312C48.0626 24.1277 49.48 24.1277 51.4561 24.1277C54.4488 24.1277 55.56 23.8212 56.4187 22.8283C57.2822 21.7543 57.9359 20.536 58.3475 19.2335L59.5124 19.3868Z" fill="white" />
    <path d="M89.0225 25.7427C88.549 25.7427 88.1165 25.7427 87.6429 25.706C84.6913 25.5527 83.0371 24.71 81.263 22.2246C79.8835 20.3521 78.4661 17.9801 77.2854 16.0954C76.6162 15.0228 75.9469 14.5631 73.8981 14.5631H72.6354V20.6494C72.6354 23.8979 72.989 24.1277 76.1395 24.3575V25.4363H65.7725V24.3575C69.0019 24.1277 69.3555 23.8979 69.3555 20.6494V5.27739C69.3555 2.02586 69.0398 1.90634 65.9682 1.64279V0.573242H75.7354C78.6113 0.573242 80.5432 0.916477 82.0491 1.87263C83.6275 2.86862 84.6471 4.58786 84.6471 6.88324C84.6471 10.1715 82.5605 12.1972 79.6467 13.42C80.316 14.6826 81.9701 17.2446 83.1508 18.9669C84.1084 20.372 85.1754 21.7039 86.3423 22.9509C87.403 24.1001 88.3122 24.52 89.1835 24.7498L89.0225 25.7427ZM74.5169 13.3066C76.5246 13.3066 77.8252 13.0002 78.8101 12.2371C80.3444 11.0879 80.9757 9.55863 80.9757 7.49309C80.9757 3.37122 78.1788 1.83892 75.1861 1.83892C74.0433 1.83892 73.3741 1.99215 73.0584 2.22199C72.7427 2.45184 72.6259 2.87169 72.6259 3.90445V13.3066H74.5169Z" fill="white" />
    <path d="M119.643 14.952C117.282 15.2952 117.118 15.4852 117.118 17.7407V20.9923C117.079 22.1966 117.171 23.4014 117.392 24.587C114.952 25.1601 111.71 25.9998 108.572 25.9998C99.9068 25.9998 94.1172 20.7624 94.1172 13.1929C94.1172 4.32089 101.441 0.0151367 109.163 0.0151367C112.43 0.0151367 115.476 0.8579 116.739 1.12452C116.859 2.46375 117.055 4.56606 117.37 7.08822L116.265 7.31806C115.318 2.63843 112.326 1.37582 108.594 1.37582C102.568 1.37582 98.1548 5.66625 98.1548 12.7332C98.1548 18.2495 101.504 24.6637 109.106 24.6637C110.286 24.6854 111.457 24.4498 112.531 23.9741C113.32 23.5543 113.794 23.0946 113.794 21.4887V18.2403C113.794 15.4821 113.519 15.2554 109.658 14.952V13.9192H119.643V14.952Z" fill="white" />
    <path d="M146 19.3868C145.763 20.6494 144.974 24.2411 144.62 25.4271H125.642V24.3575C129.228 24.0909 129.543 23.7845 129.543 20.68V5.4674C129.543 2.02586 129.228 1.91247 126.156 1.64279V0.573242H143.721C143.721 1.52939 143.92 4.13123 144.036 6.08951L142.894 6.27951C142.678 5.11913 142.25 4.00552 141.631 2.99121C141.078 2.18828 140.015 1.92166 137.18 1.92166H134.187C132.965 1.92166 132.887 1.99828 132.887 3.1475V11.8142H136.589C140.135 11.8142 140.33 11.5077 140.842 8.94877H141.984V16.3038H140.842C140.33 13.5457 140.056 13.3219 136.627 13.3219H132.883V20.5329C132.883 22.3318 133.12 23.1348 133.83 23.6312C134.541 24.1277 135.955 24.1277 137.934 24.1277C140.927 24.1277 142.038 23.8212 142.897 22.8283C143.76 21.7538 144.415 20.5357 144.829 19.2335L146 19.3868Z" fill="white" />
  </g>
  <defs>
    <clipPath id="clip0_238_786">
      <rect width="146" height="26" fill="white" />
    </clipPath>
  </defs>
</svg>
