<svg width="126" height="28" viewBox="0 0 126 28" fill="none" xmlns="http://www.w3.org/2000/svg">
  <path d="M11.676 8.40991H4.108V11.9739H10.444V14.7019H4.108V21.0379H0.5V5.63791H11.676V8.40991Z" fill="white" />
  <path d="M40.6211 21.0379H36.7931L35.8031 17.8259H30.2811L29.2911 21.0379H25.4411L30.7211 5.63791H35.3411L40.6211 21.0379ZM30.9851 15.2519H35.0771L33.0531 8.82791H32.9651L30.9851 15.2519Z" fill="white" />
  <path d="M47.3892 11.7319L48.9512 12.0399C52.2292 12.6559 53.7692 13.9319 53.7692 16.3299C53.7692 19.3659 51.3272 21.2139 47.3452 21.2139C43.5612 21.2139 41.1192 19.3659 41.0752 16.3519H44.5512C44.7272 17.5619 45.7392 18.3979 47.3892 18.3979C49.0612 18.3979 50.0512 17.7379 50.0512 16.6599C50.0512 15.6919 49.3472 15.2739 47.4332 14.8779L45.8712 14.5919C42.8132 13.9539 41.2072 12.5019 41.2072 10.1919C41.2072 7.28791 43.8252 5.46191 47.2572 5.46191C51.1732 5.46191 53.3512 7.52991 53.3952 10.3899H49.9192C49.8312 9.17991 48.9072 8.27791 47.3012 8.27791C45.7832 8.27791 44.8812 8.93791 44.8812 9.94991C44.8812 10.8959 45.6072 11.4019 47.3892 11.7319Z" fill="white" />
  <path d="M65.3187 5.63791H68.9487V21.0379H65.3187V14.7019H58.8287V21.0379H55.2207V5.63791H58.8287V11.9739H65.3187V5.63791Z" fill="white" />
  <path d="M25.0762 13.8286H20.4596L24.3871 5.53809H16.5779L12.0762 17.5339H15.82L12.191 27.5381L25.0762 13.8286Z" fill="url(#paint0_linear_367_1382)" />
  <path d="M75.6079 8.04004C75.9982 7.37044 76.5407 6.85124 77.2354 6.48242C77.9336 6.11003 78.741 5.92383 79.6577 5.92383C80.5744 5.92383 81.5591 6.32845 82.6118 7.1377C82.6297 7.07682 82.6548 6.96224 82.687 6.79395C82.7192 6.62565 82.7407 6.52181 82.7515 6.48242C82.7622 6.43945 82.7694 6.41081 82.7729 6.39648C82.7801 6.38216 82.7926 6.36247 82.8105 6.3374C82.8285 6.31234 82.8464 6.29264 82.8643 6.27832C82.9144 6.24251 82.9645 6.22819 83.0146 6.23535C83.0648 6.23893 83.1221 6.2443 83.1865 6.25146C83.251 6.25505 83.3047 6.26221 83.3477 6.27295C83.473 6.29801 83.5356 6.36068 83.5356 6.46094C83.5356 6.55762 83.3011 7.80192 82.832 10.1938C82.7998 10.3693 82.7049 10.457 82.5474 10.457C82.2108 10.457 82.0425 10.355 82.0425 10.1509L82.209 9.47412C82.3164 9.01937 82.3665 8.75081 82.3594 8.66846C82.3558 8.58252 82.3092 8.4751 82.2197 8.34619C82.1302 8.21729 81.9941 8.06152 81.8115 7.87891C81.6289 7.69271 81.4248 7.51546 81.1992 7.34717C80.6514 6.94255 80.0033 6.74023 79.2549 6.74023C78.5065 6.74023 77.8924 6.99984 77.4126 7.51904C76.9364 8.03467 76.6982 8.72038 76.6982 9.57617C76.6982 10.4499 77.1172 11.1553 77.9551 11.6924C78.374 11.9574 78.8234 12.1991 79.3032 12.4175C79.783 12.6359 80.091 12.7773 80.2271 12.8418C80.3631 12.9062 80.5547 13.0029 80.8018 13.1318C81.0488 13.2607 81.2404 13.3717 81.3765 13.4648C81.5125 13.5579 81.6826 13.6815 81.8867 13.8354C82.0908 13.9858 82.2502 14.1309 82.3647 14.2705C82.4829 14.4066 82.61 14.5731 82.7461 14.77C82.8857 14.9634 82.9896 15.1603 83.0576 15.3608C83.2295 15.855 83.3154 16.3241 83.3154 16.7681C83.3154 17.2085 83.2653 17.6024 83.165 17.9497C83.0648 18.297 82.9251 18.6104 82.7461 18.8896C82.5706 19.1654 82.363 19.4214 82.123 19.6577C81.8831 19.894 81.6235 20.0981 81.3442 20.27C81.0649 20.4419 80.7731 20.5887 80.4688 20.7104C79.4912 21.09 78.3812 21.1616 77.1387 20.9253C76.3008 20.7642 75.6348 20.5422 75.1406 20.2593C74.3457 19.8081 73.9482 19.4679 73.9482 19.2388C73.9482 19.1636 74.0306 18.6605 74.1953 17.7295C74.36 16.7949 74.4513 16.3062 74.4692 16.2632C74.4871 16.2202 74.548 16.1987 74.6519 16.1987C74.7593 16.1987 74.8882 16.2184 75.0386 16.2578C75.189 16.2972 75.2642 16.3509 75.2642 16.4189L74.8936 18.4868C74.8936 18.6909 75.3358 19.0347 76.2202 19.5181C77.1584 20.0337 78.0518 20.2915 78.9004 20.2915C79.7526 20.2915 80.4419 20.0426 80.9683 19.5449C81.4946 19.0472 81.7578 18.417 81.7578 17.6543C81.7578 16.9775 81.4749 16.4064 80.9092 15.9409C80.4795 15.59 79.9513 15.2624 79.3247 14.958C78.7017 14.6536 78.2039 14.4066 77.8315 14.2168C77.4591 14.0234 77.1047 13.8032 76.7681 13.5562C76.4315 13.3055 76.1325 13.0334 75.8711 12.7397C75.3053 12.0988 75.0225 11.3218 75.0225 10.4087C75.0225 9.49561 75.2176 8.70605 75.6079 8.04004Z" fill="white" />
  <path d="M86.5806 20.7749L84.9532 20.8447C84.8028 20.8447 84.7061 20.8161 84.6631 20.7588C84.6238 20.7015 84.6041 20.5887 84.6041 20.4204C84.6041 20.2485 84.6327 20.1447 84.69 20.1089C84.7509 20.0695 84.8762 20.0498 85.066 20.0498H85.7696C85.8842 19.9137 86.4517 18.9666 87.4722 17.2085C90.7343 11.6047 92.718 8.28353 93.4234 7.24512C93.4986 7.13411 93.606 7.01058 93.7457 6.87451C94.1002 6.51644 94.3472 6.20312 94.4869 5.93457C94.6265 5.66602 94.7715 5.53174 94.9219 5.53174C95.1225 5.53174 95.2406 5.66602 95.2764 5.93457C95.3122 6.19954 95.4376 6.98372 95.6524 8.28711C95.8672 9.58691 96.066 10.7865 96.2486 11.8857C96.4348 12.985 96.6389 14.1792 96.8609 15.4683C97.3479 18.2612 97.654 19.7884 97.7794 20.0498H98.6817C98.807 20.0498 98.8894 20.0749 98.9288 20.125C98.9682 20.1751 98.9879 20.2772 98.9879 20.4312C98.9879 20.5851 98.9682 20.6925 98.9288 20.7534C98.8894 20.8143 98.807 20.8447 98.6817 20.8447L96.6998 20.7749L94.2398 20.8447C94.0894 20.8447 93.9927 20.8143 93.9498 20.7534C93.9068 20.6961 93.8853 20.5833 93.8853 20.415C93.8853 20.2467 93.914 20.1447 93.9712 20.1089C94.0321 20.0695 94.1574 20.0498 94.3472 20.0498H95.5826V19.8726C95.5826 19.5288 95.4823 18.6497 95.2818 17.2354C95.0813 15.8174 94.9721 15.0404 94.9542 14.9043C94.9398 14.7646 94.9219 14.6787 94.9004 14.6465C94.879 14.6107 94.8199 14.5928 94.7232 14.5928H90.4747C90.3422 14.5928 90.2545 14.6071 90.2115 14.6357C90.1685 14.6608 90.1238 14.7163 90.0772 14.8022C90.0307 14.8882 89.8677 15.1925 89.5884 15.7153C89.3091 16.2381 89.0782 16.6714 88.8956 17.0151C88.7165 17.3553 88.4999 17.7671 88.2457 18.2505C87.7229 19.2495 87.4328 19.8493 87.3755 20.0498H88.8257C88.9511 20.0498 89.0334 20.0749 89.0728 20.125C89.1122 20.1751 89.1319 20.2772 89.1319 20.4312C89.1319 20.5851 89.1122 20.6925 89.0728 20.7534C89.0334 20.8143 88.9511 20.8447 88.8257 20.8447L86.5806 20.7749ZM93.1011 9.31299C92.6464 10.1187 92.1504 10.9959 91.6133 11.9448C91.0762 12.8901 90.7629 13.4416 90.6734 13.5991C90.5875 13.7567 90.5445 13.8516 90.5445 13.8838C90.5445 13.916 90.6537 13.9321 90.8721 13.9321H94.546C94.6928 13.9321 94.7662 13.9178 94.7662 13.8892C94.7662 13.7388 94.6122 12.738 94.3043 10.8867C93.9999 9.0319 93.837 8.10449 93.8155 8.10449C93.7976 8.10449 93.5595 8.50732 93.1011 9.31299Z" fill="white" />
  <path d="M102.742 20.7749L100.54 20.8447C100.389 20.8447 100.293 20.8161 100.25 20.7588C100.21 20.7015 100.191 20.5905 100.191 20.4258C100.191 20.2575 100.219 20.1536 100.276 20.1143C100.334 20.0713 100.452 20.0498 100.631 20.0498H101.727C101.82 19.5091 102.122 17.264 102.634 13.3145C103.146 9.36491 103.402 7.23975 103.402 6.93896V6.71875H102.103C101.949 6.71875 101.847 6.69368 101.797 6.64355C101.75 6.59342 101.727 6.48421 101.727 6.31592C101.727 6.14404 101.752 6.03662 101.802 5.99365C101.852 5.9471 101.967 5.92383 102.146 5.92383L104.391 5.99365C104.391 5.99365 105.198 5.97038 106.813 5.92383C106.999 5.92383 107.117 5.94889 107.168 5.99902C107.221 6.04915 107.248 6.15299 107.248 6.31055C107.248 6.46452 107.216 6.57194 107.151 6.63281C107.091 6.6901 106.969 6.71875 106.786 6.71875H105.492C105.402 7.34538 105.096 9.61019 104.573 13.5132C104.054 17.4162 103.795 19.4357 103.795 19.5718C103.795 19.7043 103.821 19.8027 103.875 19.8672C103.929 19.9316 104.176 19.9639 104.616 19.9639C105.06 19.9639 105.787 19.9549 106.797 19.937C109.407 19.8833 110.732 19.835 110.772 19.792C110.811 19.7454 110.87 19.604 110.949 19.3677L111.518 17.6328C111.568 17.4824 111.663 17.4162 111.803 17.4341C112.157 17.4735 112.335 17.5755 112.335 17.7402C112.335 17.7617 112.297 17.8924 112.222 18.1323C111.932 19.0454 111.729 19.7061 111.615 20.1143C111.504 20.5225 111.42 20.7463 111.362 20.7856C111.305 20.825 111.217 20.8447 111.099 20.8447L102.742 20.7749Z" fill="white" />
  <path d="M116.158 20.7749L113.892 20.8447C113.738 20.8447 113.638 20.8143 113.591 20.7534C113.544 20.6961 113.521 20.5833 113.521 20.415C113.521 20.2467 113.55 20.1447 113.607 20.1089C113.668 20.0695 113.793 20.0498 113.983 20.0498H114.859C114.862 20.0212 114.921 19.6398 115.036 18.9058C115.154 18.1681 115.274 17.4054 115.396 16.6177C115.517 15.8263 115.659 14.89 115.82 13.8086C115.981 12.7236 116.123 11.7443 116.244 10.8706C116.538 8.75798 116.685 7.44743 116.685 6.93896L116.663 6.7832H115.39C115.172 6.7832 115.05 6.74202 115.025 6.65967C115.004 6.57373 114.993 6.48421 114.993 6.39111C114.993 6.14046 115.088 6.01514 115.278 6.01514L116.325 6.04736C117.02 6.06885 117.521 6.07959 117.829 6.07959C117.829 6.07959 119.363 6.05811 122.432 6.01514C123.76 6.01514 124.433 5.94173 124.451 5.79492C124.451 5.57292 124.57 5.46191 124.806 5.46191C124.967 5.46191 125.08 5.4834 125.144 5.52637C125.212 5.56576 125.246 5.63558 125.246 5.73584C125.246 5.83252 125.218 6.15658 125.16 6.70801C125.103 7.25944 125.065 7.87891 125.048 8.56641C125.048 8.67025 125.019 8.73649 124.962 8.76514C124.904 8.79378 124.797 8.80811 124.639 8.80811C124.482 8.80811 124.374 8.7902 124.317 8.75439C124.26 8.71501 124.231 8.66667 124.231 8.60938C124.231 8.5485 124.276 7.97021 124.365 6.87451C123.728 6.78499 121.836 6.74023 118.688 6.74023C118.549 7.1377 118.362 8.23161 118.13 10.022C117.9 11.8088 117.786 12.729 117.786 12.7827C117.786 12.8328 117.788 12.8615 117.791 12.8687C117.802 12.8901 117.888 12.9009 118.049 12.9009H121.658C122.274 12.9009 122.597 12.8203 122.625 12.6592L122.867 11.4507C122.881 11.3468 123.014 11.2949 123.264 11.2949C123.515 11.2949 123.64 11.3612 123.64 11.4937C123.64 11.5903 123.587 11.8822 123.479 12.3691C123.157 13.8802 122.983 14.779 122.958 15.0654C122.937 15.3483 122.906 15.5041 122.867 15.5327C122.813 15.5685 122.718 15.5864 122.582 15.5864H122.496C122.26 15.5864 122.142 15.5273 122.142 15.4092L122.405 13.8677C122.405 13.7567 122.308 13.6886 122.115 13.6636C121.925 13.6385 121.678 13.626 121.374 13.626H118.049C117.884 13.626 117.786 13.6331 117.754 13.6475C117.725 13.6618 117.695 13.7459 117.662 13.8999C117.634 14.0503 117.498 14.9705 117.254 16.6606C117.014 18.3507 116.869 19.4142 116.819 19.8511C116.819 19.9406 116.848 19.9854 116.905 19.9854L123.925 19.8296C123.986 19.7759 124.111 19.4554 124.301 18.8682C124.494 18.2809 124.614 17.9264 124.661 17.8047C124.707 17.6829 124.756 17.6024 124.806 17.563C124.86 17.52 124.942 17.4985 125.053 17.4985C125.164 17.4985 125.268 17.5272 125.364 17.5845C125.461 17.6382 125.509 17.7098 125.509 17.7993C125.509 17.8853 125.468 18.0482 125.386 18.2881C125.307 18.5244 125.182 18.8753 125.01 19.3408C124.842 19.8027 124.72 20.1483 124.645 20.3774C124.573 20.603 124.503 20.7373 124.435 20.7803C124.367 20.8232 124.271 20.8447 124.145 20.8447L116.158 20.7749Z" fill="white" />
  <defs>
    <linearGradient id="paint0_linear_367_1382" x1="18.5762" y1="5.53809" x2="18.5762" y2="27.5381" gradientUnits="userSpaceOnUse">
      <stop offset="0.13" stop-color="#56C9F3" />
      <stop offset="0.75" stop-color="#397EA6" />
    </linearGradient>
  </defs>
</svg>
